SplineFontDB: 1.0
FontName: LomaOblique
FullName: Loma Oblique
FamilyName: Loma
Weight: Book
Copyright: Copyright (c) NECTEC, 2003. All rights reserved.
Version: 0.9.1; 2003
ItalicAngle: -12
UnderlinePosition: -217
UnderlineWidth: 150
Ascent: 1638
Descent: 410
NeedsXUIDChange: 1
FSType: 0
PfmFamily: 17
TTFWeight: 400
TTFWidth: 5
Panose: 2 11 5 4 2 2 2 2 2 4
LineGap: 0
VLineGap: 0
OS2TypoAscent: 2089
OS2TypoDescent: -430
OS2WinAscent: 2089
OS2WinDescent: 430
ScriptLang: 1
 1 latn 1 dflt 
TableOrder: GPOS 1
	'kern'
LangName: 1024 "Copyright (c) NECTEC, 2003. All rights reserved." "Loma" "Italic" "Nectec UI Italic" "Loma Italic" "Version 0.1; 2003 " "LomaItalic" "SLThaiUI is a trademark of the NECTEC." "" "Mr.Sirichai Lerdvorawut" "" "http://www.opentle.org" "http://www.opentle.org" "GPL" 
LangName: 1033 "" "" "" "Nectec UI -Loma Italic" "" "" "" "SLThaiUI is a trademark of the NECTEC." "" "Mr.Sirichai Lerdvorawut" "" "http://www.opentle.org" "http://www.opentle.org" "GPL" 
Encoding: compacted
OldEncoding: unicode
UnicodeInterp: none
DisplaySize: -24
AntiAlias: 1
FitToEm: 1
WinInfo: 128 16 6
BeginChars: 271 271
StartChar: .notdef
Encoding: 0 -1 0
OldEncoding: 0
Width: 1536
Flags: HW
Fore
256 0 m 1
 528 1280 l 1
 1552 1280 l 1
 1280 0 l 1
 256 0 l 1
294 32 m 1
 1254 32 l 1
 1513 1248 l 1
 553 1248 l 1
 294 32 l 1
EndSplineSet
EndChar
StartChar: exclam
Encoding: 3 33 5
OldEncoding: 33
Width: 569
Flags: HW
Fore
410 999 m 1
 506 1450 l 1
 686 1450 l 1
 590 999 l 1
 412 365 l 1
 319 365 l 1
 410 999 l 1
247 194 m 1
 411 194 l 1
 370 0 l 1
 206 0 l 1
 247 194 l 1
EndSplineSet
EndChar
StartChar: quotedbl
Encoding: 4 34 6
OldEncoding: 34
Width: 727
Flags: HW
Fore
357 947 m 1
 364 1217 l 1
 414 1450 l 1
 594 1450 l 1
 544 1217 l 1
 442 947 l 1
 357 947 l 1
688 947 m 1
 697 1217 l 1
 747 1450 l 1
 927 1450 l 1
 877 1217 l 1
 773 947 l 1
 688 947 l 1
EndSplineSet
EndChar
StartChar: numbersign
Encoding: 5 35 7
OldEncoding: 35
Width: 1139
Flags: HW
Fore
84 -10 m 1
 255 385 l 1
 102 385 l 1
 141 565 l 1
 324 565 l 1
 468 895 l 1
 211 895 l 1
 249 1075 l 1
 536 1075 l 1
 707 1470 l 1
 887 1470 l 1
 716 1075 l 1
 995 1075 l 1
 1166 1470 l 1
 1346 1470 l 1
 1175 1075 l 1
 1341 1075 l 1
 1303 895 l 1
 1107 895 l 1
 962 565 l 1
 1233 565 l 1
 1194 385 l 1
 893 385 l 1
 722 -10 l 1
 543 -10 l 1
 713 385 l 1
 435 385 l 1
 264 -10 l 1
 84 -10 l 1
504 565 m 1
 782 565 l 1
 927 895 l 1
 648 895 l 1
 504 565 l 1
EndSplineSet
EndChar
StartChar: dollar
Encoding: 6 36 8
OldEncoding: 36
Width: 1139
Flags: HW
Fore
487 -17 m 1
 416 -8 354 11 300 40 c 0
 250 67 210 110 181 169 c 0
 180 172 178 175 177 178 c 0
 153 233 145 296 154 367 c 1
 164 417 l 1
 343 417 l 1
 338 330 349 265 375 221 c 1
 385 207 394 195 402 185 c 0
 432 147 470 126 517 123 c 1
 629 651 l 1
 622 652 616 654 611 655 c 0
 566 665 508 690 439 731 c 1
 388 760 352 800 332 851 c 0
 313 903 310 963 325 1031 c 0
 350 1148 415 1243 521 1318 c 0
 533 1326 l 0
 603 1371 689 1399 790 1409 c 1
 807 1488 l 1
 950 1488 l 1
 933 1409 l 1
 947 1408 l 2
 1029 1399 1095 1370 1145 1323 c 0
 1156 1313 1167 1302 1176 1290 c 0
 1221 1232 1241 1167 1237 1094 c 1
 1231 1050 l 1
 1056 1050 l 1
 1061 1103 1045 1153 1010 1200 c 2
 1002 1211 l 2
 977 1242 944 1261 903 1269 c 1
 801 790 l 1
 802 789 l 1
 891 762 l 2
 919 754 940 747 954 741 c 0
 1029 708 1080 662 1109 604 c 0
 1137 545 1143 476 1126 397 c 0
 1101 281 1041 185 946 108 c 0
 937 100 927 93 917 86 c 0
 831 25 735 -9 630 -15 c 1
 608 -118 l 1
 465 -118 l 1
 487 -17 l 1
761 1271 m 1
 746 1269 733 1266 720 1263 c 0
 682 1252 642 1229 600 1192 c 1
 550 1150 519 1101 507 1044 c 0
 495 987 502 940 528 902 c 0
 534 893 l 0
 562 855 605 827 663 810 c 1
 761 1271 l 1
667 124 m 2
 684 127 711 136 746 151 c 0
 778 165 807 184 833 207 c 0
 859 230 882 257 901 287 c 1
 919 318 932 351 940 386 c 0
 953 446 946 494 921 531 c 1
 896 572 844 605 767 629 c 1
 660 123 l 1
 667 124 l 2
EndSplineSet
EndChar
StartChar: percent
Encoding: 7 37 9
OldEncoding: 37
Width: 1821
Flags: HW
Fore
355 1114 m 0
 378 1219 423 1308 490 1380 c 0
 558 1454 642 1491 742 1491 c 0
 837 1491 907 1458 950 1392 c 0
 995 1323 1005 1227 979 1104 c 0
 953 986 902 890 827 817 c 1
 756 750 673 717 580 717 c 0
 489 717 423 750 381 815 c 0
 336 884 328 984 355 1114 c 0
722 1366 m 0
 675 1366 633 1347 598 1308 c 0
 559 1266 529 1195 508 1096 c 0
 488 1001 489 935 512 897 c 0
 534 859 567 840 610 840 c 0
 655 840 697 859 736 898 c 128
 774 937 804 1007 825 1110 c 0
 845 1204 844 1270 823 1308 c 0
 801 1347 767 1366 722 1366 c 0
1533 1491 m 1
 1713 1491 l 1
 635 -10 l 1
 455 -10 l 1
 1533 1491 l 1
1140 344 m 0
 1162 449 1207 538 1274 610 c 0
 1343 684 1428 721 1529 721 c 0
 1624 721 1693 688 1736 622 c 0
 1782 552 1792 456 1766 334 c 0
 1741 213 1690 117 1613 47 c 0
 1540 -20 1457 -53 1364 -53 c 0
 1271 -53 1204 -20 1164 46 c 0
 1121 117 1113 217 1140 344 c 0
1507 598 m 0
 1459 598 1417 579 1382 540 c 1
 1345 497 1315 426 1294 326 c 0
 1274 233 1275 167 1297 128 c 0
 1318 89 1351 70 1394 70 c 0
 1441 70 1483 89 1521 128 c 0
 1558 167 1588 237 1610 340 c 0
 1630 434 1629 500 1608 540 c 128
 1586 578 1552 598 1507 598 c 0
EndSplineSet
EndChar
StartChar: ampersand
Encoding: 8 38 10
OldEncoding: 38
Width: 1366
Flags: HW
Fore
1009 172 m 1
 864 41 710 -25 547 -25 c 0
 397 -25 288 26 221 127 c 1
 168 210 152 302 173 403 c 0
 212 586 359 733 614 842 c 1
 590 880 571 914 556 944 c 0
 541 974 531 1002 524 1027 c 0
 517 1052 513 1076 512 1098 c 128
 512 1119 514 1141 519 1163 c 0
 538 1252 588 1328 671 1393 c 0
 754 1458 848 1491 953 1491 c 0
 1051 1491 1126 1460 1177 1399 c 0
 1228 1338 1245 1264 1227 1178 c 0
 1197 1039 1079 920 874 821 c 1
 1066 485 l 1
 1108 542 1145 611 1178 690 c 1
 1358 649 l 1
 1298 522 1232 417 1160 334 c 1
 1209 247 1269 172 1342 109 c 1
 1190 -35 l 1
 1128 13 1068 82 1009 172 c 1
805 938 m 1
 892 982 951 1022 982 1057 c 0
 1013 1092 1033 1131 1042 1174 c 0
 1053 1223 1046 1263 1021 1295 c 0
 996 1327 959 1343 912 1343 c 0
 864 1343 820 1327 781 1296 c 0
 742 1265 717 1227 708 1182 c 0
 698 1135 710 1085 744 1030 c 1
 805 938 l 1
684 725 m 1
 575 666 498 612 453 562 c 0
 408 512 381 463 371 416 c 0
 358 355 367 292 400 229 c 1
 435 165 496 133 583 133 c 0
 609 133 638 137 669 146 c 0
 700 155 731 168 762 184 c 0
 793 201 822 220 851 242 c 0
 880 263 905 288 926 315 c 1
 684 725 l 1
EndSplineSet
EndChar
StartChar: quotesingle
Encoding: 9 39 11
OldEncoding: 39
Width: 391
Flags: HW
Fore
337 947 m 1
 349 1221 l 1
 401 1466 l 1
 606 1466 l 1
 554 1221 l 1
 448 947 l 1
 337 947 l 1
EndSplineSet
EndChar
StartChar: parenleft
Encoding: 10 40 12
OldEncoding: 40
Width: 682
Flags: HW
Fore
387 -431 m 1
 288 -260 230 -71 212 135 c 0
 201 268 209 400 236 531 c 0
 288 773 393 999 551 1209 c 0
 616 1294 697 1388 795 1491 c 1
 924 1491 l 1
 798 1332 709 1211 658 1130 c 0
 561 978 490 809 443 622 c 0
 435 592 428 561 421 530 c 0
 353 209 385 -111 516 -431 c 1
 387 -431 l 1
EndSplineSet
EndChar
StartChar: parenright
Encoding: 11 41 13
OldEncoding: 41
Width: 682
Flags: HW
Fore
161 -431 m 1
 32 -431 l 1
 299 -111 467 209 535 530 c 0
 580 742 588 931 559 1097 c 0
 542 1190 505 1316 446 1475 c 0
 445 1480 443 1485 440 1491 c 1
 569 1491 l 1
 660 1321 717 1165 740 1022 c 0
 764 871 757 707 720 531 c 0
 667 283 546 36 356 -209 c 0
 295 -288 230 -362 161 -431 c 1
EndSplineSet
EndChar
StartChar: asterisk
Encoding: 12 42 14
OldEncoding: 42
Width: 797
Flags: HW
Fore
318 1197 m 1
 394 1339 l 1
 492 1302 562 1269 604 1242 c 1
 617 1363 628 1446 637 1491 c 1
 782 1491 l 1
 766 1425 741 1342 707 1243 c 1
 783 1278 868 1310 963 1339 c 1
 979 1197 l 1
 888 1169 801 1150 718 1141 c 1
 751 1106 795 1043 850 952 c 1
 712 867 l 1
 685 920 654 991 620 1082 c 1
 551 988 493 916 445 867 c 1
 345 952 l 1
 442 1047 511 1110 551 1141 c 1
 468 1158 391 1176 318 1197 c 1
EndSplineSet
EndChar
StartChar: plus
Encoding: 13 43 15
OldEncoding: 43
Width: 1196
Flags: HW
Fore
563 237 m 1
 648 639 l 1
 249 639 l 1
 285 807 l 1
 684 807 l 1
 769 1206 l 1
 939 1206 l 1
 854 807 l 1
 1253 807 l 1
 1217 639 l 1
 818 639 l 1
 733 237 l 1
 563 237 l 1
EndSplineSet
EndChar
StartChar: comma
Encoding: 14 44 16
OldEncoding: 44
Width: 569
Flags: HW
Fore
182 0 m 1
 225 205 l 1
 430 205 l 1
 387 0 l 1
 370 -75 344 -136 308 -182 c 0
 271 -229 221 -265 158 -290 c 1
 124 -213 l 1
 166 -196 199 -172 224 -140 c 0
 249 -107 269 -61 284 0 c 1
 182 0 l 1
EndSplineSet
EndChar
StartChar: hyphen
Encoding: 15 45 17
OldEncoding: 45
Width: 682
Flags: HW
Fore
158 440 m 1
 196 621 l 1
 749 621 l 1
 711 440 l 1
 158 440 l 1
EndSplineSet
EndChar
StartChar: period
Encoding: 16 46 18
OldEncoding: 46
Width: 569
Flags: HW
Fore
186 0 m 1
 229 205 l 1
 434 205 l 1
 391 0 l 1
 186 0 l 1
EndSplineSet
EndChar
StartChar: slash
Encoding: 17 47 19
OldEncoding: 47
Width: 595
Flags: HW
Fore
-83 -10 m 1
 818 1470 l 1
 1000 1470 l 1
 99 -10 l 1
 -83 -10 l 1
EndSplineSet
EndChar
StartChar: zero
Encoding: 18 48 20
OldEncoding: 48
Width: 1139
Flags: HW
Fore
239 723 m 0
 274 890 320 1026 375 1133 c 0
 489 1350 655 1459 873 1459 c 0
 1191 1459 1298 1214 1193 723 c 0
 1154 540 1103 394 1039 285 c 0
 928 96 769 -2 560 -10 c 1
 496 -10 441 -0 395 19 c 0
 208 95 156 330 239 723 c 0
423 723 m 0
 410 662 401 607 395 557 c 0
 360 279 425 140 592 140 c 0
 787 141 926 335 1009 723 c 0
 1092 1114 1036 1309 839 1309 c 0
 764 1309 698 1283 641 1231 c 1
 550 1145 477 976 423 723 c 0
EndSplineSet
EndChar
StartChar: one
Encoding: 19 49 21
OldEncoding: 49
Width: 1139
Flags: HW
Fore
763 0 m 1
 583 0 l 1
 824 1135 l 1
 767 1069 689 1013 590 966 c 0
 530 937 472 918 415 907 c 1
 457 1104 l 1
 573 1153 676 1221 767 1306 c 0
 827 1363 870 1419 895 1472 c 1
 1075 1472 l 1
 763 0 l 1
EndSplineSet
KernsSLIF: 19 -152 0 0
EndChar
StartChar: two
Encoding: 20 50 22
OldEncoding: 50
Width: 1139
Flags: HW
Fore
1067 173 m 1
 1031 0 l 1
 62 0 l 1
 105 145 226 295 425 450 c 0
 462 478 504 509 552 542 c 0
 693 641 791 714 846 759 c 0
 964 858 1037 955 1065 1049 c 0
 1068 1059 1071 1069 1073 1079 c 0
 1090 1161 1073 1226 1022 1274 c 0
 981 1313 924 1333 851 1333 c 0
 742 1333 654 1294 587 1217 c 0
 546 1169 517 1110 501 1039 c 1
 316 1039 l 1
 344 1168 409 1274 512 1356 c 0
 618 1440 743 1482 887 1482 c 0
 1028 1482 1132 1442 1199 1363 c 0
 1263 1289 1282 1193 1257 1075 c 0
 1230 945 1151 822 1022 705 c 0
 968 656 879 588 756 501 c 2
 692 455 l 1
 497 317 l 1
 444 278 395 230 348 173 c 1
 1067 173 l 1
EndSplineSet
EndChar
StartChar: three
Encoding: 21 51 23
OldEncoding: 51
Width: 1139
Flags: HW
Fore
176 427 m 1
 356 427 l 1
 350 383 l 1
 347 312 370 255 421 211 c 0
 464 174 519 156 586 156 c 0
 681 156 764 187 834 248 c 0
 894 301 932 366 949 445 c 0
 971 547 950 622 886 669 c 0
 846 698 793 713 727 713 c 0
 684 713 638 707 588 694 c 1
 622 852 l 1
 675 850 l 1
 762 853 840 880 909 932 c 0
 971 979 1009 1037 1023 1105 c 0
 1041 1188 1020 1248 961 1285 c 0
 926 1306 882 1317 828 1317 c 0
 686 1317 584 1244 522 1099 c 1
 511 1070 l 1
 331 1070 l 1
 352 1170 407 1259 494 1337 c 0
 583 1417 685 1464 799 1478 c 0
 820 1481 840 1482 860 1482 c 0
 977 1482 1068 1448 1135 1380 c 0
 1202 1312 1227 1226 1211 1123 c 0
 1210 1116 1209 1108 1208 1101 c 0
 1187 1002 1131 919 1042 852 c 0
 1010 829 976 809 940 794 c 1
 1080 760 1151 677 1152 546 c 0
 1152 516 1148 484 1141 449 c 0
 1114 325 1050 220 948 135 c 1
 902 100 l 1
 795 27 678 -10 549 -10 c 0
 426 -10 329 29 258 106 c 0
 191 178 161 267 169 372 c 0
 170 391 173 409 176 427 c 1
EndSplineSet
EndChar
StartChar: four
Encoding: 22 52 24
OldEncoding: 52
Width: 1139
Flags: HW
Fore
662 0 m 1
 735 347 l 1
 99 347 l 1
 136 522 l 1
 974 1472 l 1
 1154 1472 l 1
 952 522 l 1
 1150 522 l 1
 1113 347 l 1
 915 347 l 1
 842 0 l 1
 662 0 l 1
772 522 m 1
 899 1117 l 1
 361 522 l 1
 772 522 l 1
EndSplineSet
EndChar
StartChar: five
Encoding: 23 53 25
OldEncoding: 53
Width: 1139
Flags: HW
Fore
173 415 m 1
 362 415 l 1
 354 284 396 202 489 169 c 0
 518 159 551 154 588 154 c 0
 690 154 778 191 851 265 c 0
 911 326 951 403 971 496 c 0
 997 619 975 708 906 764 c 0
 862 799 802 817 726 817 c 0
 627 817 536 773 451 686 c 1
 267 708 l 1
 571 1472 l 1
 1300 1472 l 1
 1262 1292 l 1
 697 1292 l 1
 539 920 l 1
 602 964 689 986 800 987 c 0
 810 987 l 0
 936 987 1033 946 1100 864 c 0
 1169 781 1192 673 1171 542 c 0
 1170 532 1168 522 1165 512 c 0
 1135 370 1068 251 964 155 c 1
 859 57 738 3 601 -8 c 0
 585 -9 569 -10 553 -10 c 0
 392 -10 281 43 218 148 c 0
 175 219 160 308 173 415 c 1
EndSplineSet
EndChar
StartChar: six
Encoding: 24 54 26
OldEncoding: 54
Width: 1139
Flags: HW
Fore
1253 1103 m 1
 1074 1103 l 1
 1073 1220 1020 1286 917 1302 c 0
 902 1304 886 1305 869 1305 c 0
 660 1305 520 1151 449 842 c 1
 526 918 619 962 728 973 c 0
 751 976 776 977 801 977 c 0
 916 977 1007 937 1075 858 c 1
 1142 779 1170 679 1159 559 c 0
 1157 536 1154 514 1149 491 c 0
 1120 354 1057 240 960 147 c 0
 860 51 745 -1 616 -9 c 0
 605 -10 594 -10 583 -10 c 0
 360 -10 233 97 201 312 c 0
 185 418 193 548 226 701 c 0
 306 1078 451 1320 662 1425 c 1
 740 1463 825 1482 918 1482 c 0
 1034 1482 1124 1446 1189 1374 c 0
 1249 1307 1272 1225 1257 1128 c 0
 1256 1120 1255 1112 1253 1103 c 1
410 490 m 0
 387 381 398 296 444 233 c 0
 481 181 538 155 615 155 c 0
 708 155 788 191 855 263 c 0
 908 321 944 393 963 480 c 0
 986 593 972 679 919 739 c 0
 879 784 822 807 747 807 c 0
 651 807 570 769 505 692 c 0
 458 637 427 570 410 490 c 0
EndSplineSet
EndChar
StartChar: seven
Encoding: 25 55 27
OldEncoding: 55
Width: 1139
Flags: HW
Fore
371 1292 m 1
 409 1472 l 1
 1358 1472 l 1
 1320 1292 l 1
 1131 1111 965 911 822 692 c 0
 660 446 556 215 511 0 c 1
 293 0 l 1
 344 235 463 494 650 776 c 0
 784 979 924 1151 1069 1292 c 1
 371 1292 l 1
EndSplineSet
EndChar
StartChar: eight
Encoding: 26 56 28
OldEncoding: 56
Width: 1139
Flags: HW
Fore
533 805 m 1
 398 859 345 959 376 1104 c 0
 401 1218 461 1310 557 1381 c 0
 650 1448 757 1482 878 1482 c 0
 1004 1482 1099 1445 1163 1372 c 1
 1226 1301 1246 1210 1222 1099 c 0
 1194 967 1111 873 972 816 c 2
 944 805 l 1
 1072 760 1141 677 1150 556 c 0
 1153 519 1150 478 1141 434 c 1
 1123 368 l 1
 1079 233 995 132 872 65 c 0
 781 15 678 -10 563 -10 c 0
 422 -10 315 31 244 113 c 1
 171 195 148 302 175 434 c 0
 175 436 175 438 176 439 c 0
 207 588 287 696 416 762 c 0
 452 781 491 795 533 805 c 1
561 1110 m 1
 544 1026 561 963 614 921 c 0
 649 894 696 880 754 880 c 0
 835 880 903 907 959 960 c 0
 1000 999 1026 1045 1037 1100 c 0
 1054 1176 1038 1236 989 1279 c 0
 953 1310 905 1326 846 1326 c 0
 767 1326 700 1301 643 1250 c 1
 616 1222 l 1
 592 1189 l 1
 574 1151 l 1
 561 1110 l 1
361 438 m 0
 341 347 358 273 411 218 c 0
 456 171 519 147 599 147 c 0
 697 147 781 179 850 242 c 0
 905 293 940 356 956 432 c 0
 978 535 953 610 881 657 c 0
 838 685 781 699 710 699 c 0
 601 699 514 666 447 601 c 0
 403 558 374 503 361 438 c 0
EndSplineSet
EndChar
StartChar: nine
Encoding: 27 57 29
OldEncoding: 57
Width: 1139
Flags: HW
Fore
217 369 m 1
 396 369 l 1
 397 252 450 186 553 170 c 0
 568 168 584 167 601 167 c 0
 810 167 949 321 1020 630 c 1
 943 554 851 510 742 499 c 0
 719 496 694 495 669 495 c 0
 554 495 463 535 395 614 c 1
 328 693 300 793 311 913 c 0
 313 936 316 958 321 981 c 0
 350 1118 413 1232 510 1325 c 0
 610 1421 725 1473 854 1481 c 0
 865 1482 876 1482 887 1482 c 0
 1110 1482 1237 1375 1269 1160 c 0
 1285 1054 1277 924 1244 771 c 0
 1164 394 1018 152 807 47 c 0
 730 9 645 -10 552 -10 c 0
 436 -10 346 26 281 98 c 0
 221 165 198 247 213 344 c 0
 214 352 215 360 217 369 c 1
1060 982 m 0
 1083 1091 1072 1176 1026 1239 c 0
 988 1291 931 1317 854 1317 c 0
 761 1317 681 1281 614 1209 c 1
 583 1170 l 1
 547 1119 522 1060 507 992 c 0
 483 879 498 793 551 733 c 0
 591 688 648 665 723 665 c 0
 819 665 900 703 965 780 c 0
 1012 835 1043 902 1060 982 c 0
EndSplineSet
EndChar
StartChar: colon
Encoding: 28 58 30
OldEncoding: 58
Width: 569
Flags: HW
Fore
367 857 m 1
 410 1062 l 1
 615 1062 l 1
 572 857 l 1
 367 857 l 1
185 0 m 1
 228 205 l 1
 433 205 l 1
 390 0 l 1
 185 0 l 1
EndSplineSet
EndChar
StartChar: semicolon
Encoding: 29 59 31
OldEncoding: 59
Width: 569
Flags: HW
Fore
364 857 m 1
 407 1062 l 1
 612 1062 l 1
 569 857 l 1
 364 857 l 1
182 0 m 1
 225 205 l 1
 430 205 l 1
 387 0 l 1
 361 -120 306 -206 223 -257 c 0
 204 -270 182 -281 158 -290 c 1
 124 -213 l 1
 184 -189 227 -147 254 -87 c 0
 265 -63 275 -34 284 0 c 1
 182 0 l 1
EndSplineSet
EndChar
StartChar: less
Encoding: 30 60 32
OldEncoding: 60
Width: 1196
Flags: HW
Fore
248 641 m 1
 283 809 l 1
 1342 1219 l 1
 1304 1040 l 1
 466 724 l 1
 1169 405 l 1
 1131 226 l 1
 248 641 l 1
EndSplineSet
EndChar
StartChar: equal
Encoding: 31 61 33
OldEncoding: 61
Width: 1196
Flags: HW
Fore
1265 862 m 1
 297 862 l 1
 332 1030 l 1
 1300 1030 l 1
 1265 862 l 1
1170 417 m 1
 202 417 l 1
 238 585 l 1
 1206 585 l 1
 1170 417 l 1
EndSplineSet
EndChar
StartChar: greater
Encoding: 32 62 34
OldEncoding: 62
Width: 1196
Flags: HW
Fore
1219 641 m 1
 160 226 l 1
 198 405 l 1
 1034 724 l 1
 333 1040 l 1
 371 1219 l 1
 1254 809 l 1
 1219 641 l 1
EndSplineSet
EndChar
StartChar: question
Encoding: 33 63 35
OldEncoding: 63
Width: 1139
Flags: HW
Fore
548 361 m 1
 566 436 l 1
 597 547 656 641 741 719 c 0
 762 738 806 773 875 826 c 0
 945 879 996 928 1029 972 c 0
 1056 1009 1075 1048 1084 1088 c 0
 1092 1127 1090 1164 1079 1199 c 0
 1060 1263 1016 1306 947 1328 c 0
 918 1337 887 1341 853 1341 c 0
 712 1340 605 1268 530 1123 c 0
 518 1099 507 1073 497 1046 c 1
 312 1046 l 1
 347 1175 414 1282 513 1367 c 0
 620 1458 744 1504 884 1504 c 0
 1015 1504 1117 1467 1191 1392 c 0
 1259 1323 1287 1239 1276 1138 c 1
 1266 1084 l 1
 1251 1027 1224 971 1185 914 c 0
 1157 875 1110 830 1043 780 c 0
 974 729 929 694 909 676 c 0
 820 597 759 502 728 389 c 0
 725 380 723 370 721 361 c 1
 548 361 l 1
461 0 m 1
 504 205 l 1
 709 205 l 1
 666 0 l 1
 461 0 l 1
EndSplineSet
EndChar
StartChar: at
Encoding: 34 64 36
OldEncoding: 64
Width: 2079
Flags: HW
Fore
1186 121 m 1
 1097 38 986 -3 853 -3 c 0
 746 -3 670 44 624 138 c 0
 581 225 572 333 599 461 c 0
 622 570 668 671 736 764 c 1
 815 873 905 957 1007 1015 c 0
 1087 1061 1165 1084 1241 1084 c 0
 1383 1084 1473 1035 1512 938 c 1
 1576 1079 l 1
 1755 1079 l 1
 1460 379 l 1
 1421 283 1421 283 1400 229 c 1
 1398 212 l 1
 1398 202 1402 192 1410 182 c 0
 1421 169 1437 163 1456 163 c 0
 1526 163 1606 206 1695 291 c 0
 1782 374 1852 471 1903 580 c 0
 1926 628 1942 673 1951 716 c 0
 1986 885 1959 1025 1868 1138 c 0
 1785 1242 1663 1306 1502 1329 c 0
 1462 1335 1420 1338 1377 1338 c 0
 1166 1338 974 1276 801 1152 c 0
 764 1125 728 1095 693 1063 c 0
 546 924 444 754 388 553 c 0
 382 531 377 508 372 485 c 0
 315 220 362 22 511 -110 c 0
 634 -219 818 -274 1061 -274 c 0
 1287 -274 1483 -224 1650 -125 c 0
 1719 -84 1778 -36 1828 19 c 1
 2009 19 l 1
 1916 -113 1787 -219 1622 -300 c 0
 1442 -387 1245 -431 1031 -431 c 0
 739 -431 519 -361 370 -222 c 0
 222 -83 163 112 192 361 c 0
 196 396 202 432 210 469 c 0
 260 705 364 911 522 1087 c 0
 673 1256 853 1373 1063 1439 c 0
 1178 1475 1296 1493 1419 1493 c 0
 1628 1493 1796 1439 1925 1332 c 0
 2046 1231 2112 1098 2124 933 c 0
 2129 863 2123 790 2107 713 c 0
 2078 575 2011 440 1908 307 c 0
 1810 181 1701 88 1582 28 c 0
 1501 -13 1422 -33 1346 -33 c 0
 1300 -33 1264 -26 1239 -12 c 0
 1214 2 1197 22 1190 48 c 0
 1184 67 1183 91 1186 121 c 1
925 161 m 0
 1019 161 1109 207 1196 299 c 0
 1275 382 1331 480 1366 593 c 0
 1371 612 1376 630 1380 649 c 0
 1405 768 1389 850 1330 894 c 0
 1301 915 1265 925 1220 925 c 0
 1108 925 1005 862 912 737 c 0
 895 713 878 687 862 660 c 0
 855 648 848 636 841 623 c 0
 812 567 791 510 779 453 c 0
 757 350 765 272 804 218 c 0
 832 180 872 161 925 161 c 0
EndSplineSet
EndChar
StartChar: A
Encoding: 35 65 37
OldEncoding: 65
Width: 1366
Flags: HW
Fore
867 1450 m 1
 1076 1450 l 1
 1368 0 l 1
 1149 0 l 1
 1048 471 l 1
 492 471 l 1
 203 0 l 1
 -2 0 l 1
 867 1450 l 1
1041 653 m 1
 921 1237 l 1
 573 653 l 1
 1041 653 l 1
EndSplineSet
KernsSLIF: 91 -37 0 0 89 -37 0 0 88 -37 0 0 59 -152 0 0 57 -76 0 0 56 -152 0 0 54 -152 0 0
EndChar
StartChar: B
Encoding: 36 66 38
OldEncoding: 66
Width: 1366
Flags: HW
Fore
164 0 m 1
 472 1450 l 1
 1008 1450 l 2
 1120 1450 1207 1435 1268 1406 c 0
 1336 1373 1382 1320 1407 1249 c 0
 1425 1196 1428 1140 1415 1079 c 0
 1402 1019 1373 961 1327 906 c 0
 1281 851 1220 806 1145 772 c 1
 1228 746 1286 702 1321 639 c 0
 1355 576 1363 504 1346 421 c 0
 1326 326 1279 240 1206 164 c 0
 1181 137 1154 115 1126 97 c 0
 1077 65 1018 41 951 24 c 0
 883 8 802 0 709 0 c 2
 164 0 l 1
522 842 m 1
 839 842 l 2
 925 842 988 848 1028 859 c 0
 1133 888 1197 954 1219 1056 c 0
 1236 1136 1220 1195 1172 1233 c 0
 1159 1243 1143 1251 1126 1256 c 0
 1086 1270 1013 1277 908 1277 c 2
 615 1277 l 1
 522 842 l 1
380 173 m 1
 745 173 l 2
 834 173 898 180 939 193 c 0
 958 199 978 208 999 220 c 0
 1066 257 1111 312 1136 386 c 0
 1139 397 1142 409 1145 421 c 0
 1164 510 1143 576 1084 619 c 0
 1069 630 1053 638 1034 644 c 0
 988 661 918 669 825 669 c 2
 486 669 l 1
 380 173 l 1
EndSplineSet
EndChar
StartChar: C
Encoding: 37 67 39
OldEncoding: 67
Width: 1479
Flags: HW
Fore
1312 480 m 1
 1500 480 l 1
 1409 287 1284 150 1124 68 c 0
 1021 16 909 -10 788 -10 c 0
 630 -10 509 22 424 86 c 0
 338 151 282 244 257 366 c 0
 231 488 232 614 260 745 c 0
 290 888 347 1016 430 1130 c 0
 512 1243 613 1329 733 1388 c 0
 853 1447 978 1477 1107 1477 c 0
 1254 1477 1369 1440 1454 1365 c 0
 1538 1290 1585 1185 1596 1050 c 1
 1408 1050 l 1
 1397 1171 1329 1247 1206 1280 c 0
 1164 1291 1117 1297 1065 1297 c 0
 952 1297 853 1270 766 1216 c 0
 605 1117 502 960 457 746 c 0
 434 635 433 531 456 434 c 0
 486 309 560 228 677 191 c 0
 722 177 771 170 824 170 c 0
 950 170 1060 204 1155 272 c 0
 1234 328 1286 397 1312 480 c 1
EndSplineSet
EndChar
StartChar: D
Encoding: 38 68 40
OldEncoding: 68
Width: 1479
Flags: HW
Fore
168 0 m 1
 476 1450 l 1
 981 1450 l 2
 1280 1450 1464 1362 1533 1186 c 0
 1576 1077 1576 926 1535 733 c 0
 1447 318 1233 80 894 17 c 0
 833 6 767 0 697 0 c 2
 168 0 l 1
386 173 m 1
 711 173 l 2
 1034 173 1240 344 1327 686 c 0
 1333 710 1333 710 1339 736 c 0
 1410 1069 1302 1248 1016 1274 c 0
 992 1276 967 1277 941 1277 c 2
 621 1277 l 1
 386 173 l 1
EndSplineSet
EndChar
StartChar: E
Encoding: 39 69 41
OldEncoding: 69
Width: 1366
Flags: HW
Fore
162 0 m 1
 470 1450 l 1
 1530 1450 l 1
 1491 1268 l 1
 610 1268 l 1
 516 826 l 1
 1196 826 l 1
 1158 646 l 1
 478 646 l 1
 379 179 l 1
 1260 179 l 1
 1222 0 l 1
 162 0 l 1
EndSplineSet
EndChar
StartChar: F
Encoding: 40 70 42
OldEncoding: 70
Width: 1251
Flags: HW
Fore
168 0 m 1
 476 1450 l 1
 1465 1450 l 1
 1427 1271 l 1
 617 1271 l 1
 521 820 l 1
 1183 820 l 1
 1145 641 l 1
 483 641 l 1
 347 0 l 1
 168 0 l 1
EndSplineSet
KernsSLIF: 35 -113 0 0 16 -227 0 0 14 -227 0 0
EndChar
StartChar: G
Encoding: 41 71 43
OldEncoding: 71
Width: 1479
Flags: HW
Fore
1549 684 m 1
 1546 672 1544 661 1542 650 c 0
 1508 497 1471 387 1430 320 c 0
 1403 276 1357 224 1294 164 c 0
 1286 156 l 0
 1163 45 997 -10 788 -10 c 0
 630 -10 509 22 424 86 c 0
 338 151 282 244 257 366 c 0
 231 488 232 614 260 745 c 0
 290 888 347 1016 430 1130 c 0
 512 1243 613 1329 733 1388 c 0
 853 1447 978 1477 1107 1477 c 0
 1254 1477 1369 1440 1454 1365 c 0
 1538 1290 1585 1185 1596 1050 c 1
 1408 1050 l 1
 1404 1087 1395 1119 1382 1148 c 1
 1333 1247 1227 1297 1065 1297 c 0
 952 1297 853 1270 766 1216 c 0
 605 1117 502 960 457 746 c 0
 434 635 433 531 456 434 c 0
 465 394 480 358 499 327 c 0
 563 222 671 170 824 170 c 0
 833 170 843 170 852 171 c 0
 976 176 1083 214 1172 284 c 1
 1189 299 l 2
 1247 350 1287 405 1308 465 c 1
 1319 504 l 1
 1012 504 l 1
 1050 684 l 1
 1549 684 l 1
EndSplineSet
EndChar
StartChar: H
Encoding: 42 72 44
OldEncoding: 72
Width: 1479
Flags: HW
Fore
164 0 m 1
 472 1450 l 1
 652 1450 l 1
 524 848 l 1
 1314 848 l 1
 1442 1450 l 1
 1622 1450 l 1
 1314 0 l 1
 1134 0 l 1
 1275 668 l 1
 485 668 l 1
 344 0 l 1
 164 0 l 1
EndSplineSet
EndChar
StartChar: I
Encoding: 43 73 45
OldEncoding: 73
Width: 650
Flags: HW
Fore
659 160 m 1
 625 0 l 1
 25 0 l 1
 59 160 l 1
 269 160 l 1
 509 1290 l 1
 299 1290 l 1
 333 1450 l 1
 933 1450 l 1
 899 1290 l 1
 689 1290 l 1
 449 160 l 1
 659 160 l 1
EndSplineSet
EndChar
StartChar: J
Encoding: 44 74 46
OldEncoding: 74
Width: 1024
Flags: HW
Fore
1173 1450 m 1
 961 456 l 1
 935 331 897 237 847 172 c 0
 836 157 823 143 810 129 c 0
 729 47 630 1 511 -8 c 1
 460 -10 l 1
 335 -10 246 24 192 92 c 0
 185 100 179 109 173 118 c 0
 136 176 127 264 146 381 c 0
 149 402 154 427 160 455 c 1
 340 455 l 1
 327 378 l 1
 320 323 325 279 343 246 c 0
 370 195 422 170 498 170 c 0
 556 170 605 183 644 209 c 0
 661 220 679 235 698 252 c 0
 729 281 754 333 771 408 c 0
 774 421 774 421 785 471 c 1
 957 1280 l 1
 680 1280 l 1
 716 1450 l 1
 1173 1450 l 1
EndSplineSet
EndChar
StartChar: K
Encoding: 45 75 47
OldEncoding: 75
Width: 1366
Flags: HW
Fore
150 0 m 1
 458 1450 l 1
 638 1450 l 1
 496 785 l 1
 1380 1450 l 1
 1624 1450 l 1
 781 806 l 1
 1346 0 l 1
 1113 0 l 1
 621 670 l 1
 444 539 l 1
 330 0 l 1
 150 0 l 1
EndSplineSet
EndChar
StartChar: L
Encoding: 46 76 48
OldEncoding: 76
Width: 1139
Flags: HW
Fore
150 0 m 1
 458 1450 l 1
 638 1450 l 1
 366 170 l 1
 1096 170 l 1
 1060 0 l 1
 150 0 l 1
EndSplineSet
KernsSLIF: 91 -76 0 0 59 -152 0 0 57 -152 0 0 56 -152 0 0 54 -152 0 0
EndChar
StartChar: M
Encoding: 47 77 49
OldEncoding: 77
Width: 1706
Flags: HW
Fore
152 0 m 1
 460 1450 l 1
 640 1450 l 1
 879 133 l 1
 1678 1450 l 1
 1858 1450 l 1
 1550 0 l 1
 1370 0 l 1
 1574 964 l 1
 996 0 l 1
 706 0 l 1
 536 964 l 1
 332 0 l 1
 152 0 l 1
EndSplineSet
EndChar
StartChar: N
Encoding: 48 78 50
OldEncoding: 78
Width: 1479
Flags: HW
Fore
156 0 m 1
 464 1450 l 1
 644 1450 l 1
 1197 315 l 1
 1439 1450 l 1
 1619 1450 l 1
 1311 0 l 1
 1131 0 l 1
 577 1136 l 1
 336 0 l 1
 156 0 l 1
EndSplineSet
EndChar
StartChar: O
Encoding: 49 79 51
OldEncoding: 79
Width: 1593
Flags: HW
Fore
255 714 m 0
 305 949 406 1135 558 1271 c 1
 714 1407 900 1476 1115 1478 c 1
 1314 1478 1463 1416 1561 1293 c 0
 1655 1176 1690 1020 1667 825 c 0
 1663 794 1658 763 1651 731 c 0
 1607 524 1515 354 1375 221 c 0
 1242 93 1083 18 900 -4 c 0
 866 -8 832 -10 797 -10 c 0
 607 -10 462 48 361 165 c 0
 268 272 227 410 237 580 c 0
 240 624 246 669 255 714 c 0
455 711 m 0
 416 528 438 388 521 291 c 0
 590 210 695 170 835 170 c 0
 1014 170 1160 233 1273 358 c 0
 1359 453 1418 578 1451 732 c 0
 1492 927 1471 1074 1388 1175 c 0
 1320 1257 1216 1298 1077 1298 c 0
 854 1298 685 1206 572 1021 c 0
 519 936 480 832 455 711 c 0
EndSplineSet
EndChar
StartChar: P
Encoding: 50 80 52
OldEncoding: 80
Width: 1366
Flags: HW
Fore
158 0 m 1
 466 1450 l 1
 1019 1450 l 2
 1154 1450 1250 1440 1307 1421 c 0
 1343 1409 1376 1391 1405 1368 c 0
 1462 1322 1494 1255 1503 1168 c 0
 1508 1123 1505 1075 1495 1026 c 0
 1468 901 1406 796 1308 710 c 0
 1211 623 1058 580 851 580 c 2
 461 580 l 1
 338 0 l 1
 158 0 l 1
498 753 m 1
 891 753 l 2
 1016 753 1110 776 1172 823 c 0
 1235 870 1275 935 1293 1020 c 0
 1312 1107 1297 1174 1249 1222 c 1
 1223 1243 l 1
 1208 1252 1193 1259 1176 1264 c 0
 1145 1273 1086 1277 998 1277 c 2
 609 1277 l 1
 498 753 l 1
EndSplineSet
KernsSLIF: 35 -152 0 0 16 -264 0 0 14 -264 0 0
EndChar
StartChar: Q
Encoding: 51 81 53
OldEncoding: 81
Width: 1659
Flags: HW
Fore
1269 354 m 1
 1342 426 1398 532 1437 673 c 0
 1442 692 1447 712 1451 732 c 0
 1492 927 1471 1074 1388 1175 c 0
 1320 1257 1216 1298 1077 1298 c 0
 854 1298 685 1206 572 1021 c 0
 519 936 480 832 455 711 c 0
 416 527 438 387 521 290 c 0
 542 267 565 247 591 230 c 1
 631 314 697 379 789 424 c 1
 830 445 874 460 921 468 c 0
 946 473 970 475 995 475 c 0
 1086 474 1163 449 1225 399 c 0
 1243 385 1258 370 1269 354 c 1
1360 204 m 1
 1373 185 1395 176 1427 175 c 0
 1441 175 1456 177 1473 181 c 0
 1514 190 1550 206 1581 228 c 1
 1678 90 l 1
 1589 21 1495 -14 1396 -14 c 0
 1341 -14 1291 -3 1248 20 c 0
 1215 38 1190 61 1174 88 c 1
 1085 36 994 5 902 -5 c 1
 817 -10 l 2
 797 -10 l 0
 607 -10 462 48 361 165 c 0
 268 272 227 410 237 580 c 0
 240 624 246 669 255 714 c 0
 305 949 406 1135 558 1271 c 1
 714 1407 900 1476 1115 1478 c 1
 1314 1478 1463 1416 1561 1293 c 0
 1655 1176 1690 1020 1667 825 c 0
 1663 794 1658 763 1651 731 c 0
 1607 526 1535 371 1434 266 c 1
 1410 242 1385 221 1360 204 c 1
1098 226 m 1
 1068 273 1026 297 971 297 c 0
 960 297 949 296 938 294 c 0
 866 281 813 243 778 181 c 0
 777 178 775 176 774 174 c 1
 790 169 811 167 838 167 c 0
 915 168 985 179 1048 202 c 0
 1068 209 1085 217 1098 226 c 1
EndSplineSet
EndChar
StartChar: R
Encoding: 52 82 54
OldEncoding: 82
Width: 1400
Flags: HW
Fore
821 580 m 1
 461 580 l 1
 338 0 l 1
 158 0 l 1
 466 1450 l 1
 1019 1450 l 2
 1154 1450 1250 1440 1307 1421 c 0
 1343 1409 1376 1391 1405 1368 c 0
 1462 1322 1494 1255 1503 1168 c 0
 1508 1123 1505 1075 1495 1026 c 0
 1468 901 1406 796 1308 710 c 0
 1245 654 1159 616 1050 596 c 1
 1387 0 l 1
 1107 0 l 1
 821 580 l 1
498 753 m 1
 891 753 l 2
 1016 753 1110 776 1172 823 c 0
 1235 870 1275 935 1293 1020 c 0
 1312 1107 1297 1174 1249 1222 c 1
 1223 1243 l 1
 1208 1252 1193 1259 1176 1264 c 0
 1145 1273 1086 1277 998 1277 c 2
 609 1277 l 1
 498 753 l 1
EndSplineSet
KernsSLIF: 59 -37 0 0 57 -37 0 0 56 -37 0 0 54 -37 0 0
EndChar
StartChar: S
Encoding: 53 83 55
OldEncoding: 83
Width: 1366
Flags: HW
Fore
198 502 m 1
 381 502 l 1
 366 346 424 243 553 194 c 0
 605 174 668 164 742 164 c 0
 863 164 963 191 1043 245 c 1
 1106 289 1145 345 1159 413 c 0
 1177 496 1148 555 1071 592 c 0
 1049 603 1021 613 987 622 c 1
 780 666 l 1
 635 703 534 742 476 781 c 0
 387 841 352 928 370 1041 c 0
 374 1067 l 0
 401 1193 474 1293 593 1367 c 0
 703 1436 831 1471 976 1471 c 0
 1137 1471 1260 1428 1345 1342 c 0
 1361 1325 1375 1307 1388 1287 c 1
 1410 1245 l 1
 1432 1195 1441 1139 1438 1078 c 1
 1431 1019 l 1
 1245 1019 l 1
 1254 1115 1226 1189 1161 1240 c 0
 1109 1280 1038 1300 948 1300 c 0
 807 1300 702 1267 633 1202 c 0
 597 1168 574 1127 564 1080 c 0
 549 1009 572 956 635 923 c 0
 666 906 729 887 824 865 c 0
 841 861 855 858 865 856 c 0
 1016 820 1119 791 1172 768 c 0
 1270 727 1330 671 1351 598 c 0
 1364 551 1364 495 1350 429 c 0
 1323 302 1250 198 1133 117 c 0
 1024 40 897 -2 753 -9 c 0
 740 -10 727 -10 714 -10 c 0
 474 -10 315 55 237 186 c 0
 187 269 174 374 198 502 c 1
EndSplineSet
EndChar
StartChar: T
Encoding: 54 84 56
OldEncoding: 84
Width: 1251
Flags: HW
Fore
538 0 m 1
 810 1280 l 1
 320 1280 l 1
 356 1450 l 1
 1518 1450 l 1
 1482 1280 l 1
 990 1280 l 1
 718 0 l 1
 538 0 l 1
EndSplineSet
KernsSLIF: 91 -113 0 0 89 -113 0 0 87 -76 0 0 85 -227 0 0 84 -76 0 0 81 -227 0 0 75 -76 0 0 71 -227 0 0 69 -227 0 0 67 -227 0 0 49 -37 0 0 35 -152 0 0 29 -227 0 0 28 -227 0 0 16 -227 0 0 15 -113 0 0 14 -227 0 0
EndChar
StartChar: U
Encoding: 55 85 57
OldEncoding: 85
Width: 1479
Flags: HW
Fore
1442 1450 m 1
 1622 1450 l 1
 1434 567 l 2
 1352 182 1120 -10 738 -10 c 0
 388 -10 230 147 263 460 c 0
 267 494 273 530 281 567 c 2
 469 1450 l 1
 649 1450 l 1
 461 568 l 1
 415 349 479 221 652 182 c 0
 688 174 728 170 773 170 c 0
 954 170 1083 226 1162 338 c 1
 1203 395 1234 472 1254 568 c 1
 1442 1450 l 1
EndSplineSet
EndChar
StartChar: V
Encoding: 56 86 58
OldEncoding: 86
Width: 1366
Flags: HW
Fore
577 0 m 1
 317 1450 l 1
 527 1450 l 1
 736 279 l 1
 1460 1450 l 1
 1658 1450 l 1
 776 0 l 1
 577 0 l 1
EndSplineSet
KernsSLIF: 91 -76 0 0 87 -76 0 0 84 -76 0 0 81 -113 0 0 75 -37 0 0 71 -113 0 0 67 -152 0 0 35 -152 0 0 29 -76 0 0 28 -76 0 0 16 -188 0 0 15 -113 0 0 14 -188 0 0
EndChar
StartChar: W
Encoding: 57 87 59
OldEncoding: 87
Width: 1933
Flags: HW
Fore
414 0 m 1
 333 1450 l 1
 532 1450 l 1
 595 390 l 1
 1142 1450 l 1
 1396 1450 l 1
 1491 390 l 1
 2006 1450 l 1
 2205 1450 l 1
 1508 0 l 1
 1310 0 l 1
 1209 1170 l 1
 612 0 l 1
 414 0 l 1
EndSplineSet
KernsSLIF: 91 -18 0 0 87 -37 0 0 84 -37 0 0 81 -37 0 0 71 -37 0 0 67 -76 0 0 35 -76 0 0 29 -37 0 0 28 -37 0 0 16 -113 0 0 15 -37 0 0 14 -113 0 0
EndChar
StartChar: X
Encoding: 58 88 60
OldEncoding: 88
Width: 1366
Flags: HW
Fore
9 0 m 1
 724 756 l 1
 384 1450 l 1
 614 1450 l 1
 872 902 l 1
 1391 1450 l 1
 1621 1450 l 1
 958 756 l 1
 1353 0 l 1
 1123 0 l 1
 811 613 l 1
 239 0 l 1
 9 0 l 1
EndSplineSet
EndChar
StartChar: Y
Encoding: 59 89 61
OldEncoding: 89
Width: 1366
Flags: HW
Fore
571 0 m 1
 702 621 l 1
 314 1451 l 1
 544 1451 l 1
 861 855 l 1
 1428 1451 l 1
 1658 1451 l 1
 896 621 l 1
 765 0 l 1
 571 0 l 1
EndSplineSet
KernsSLIF: 88 -113 0 0 87 -113 0 0 83 -188 0 0 82 -152 0 0 81 -188 0 0 75 -76 0 0 71 -188 0 0 67 -152 0 0 35 -152 0 0 29 -133 0 0 28 -113 0 0 16 -264 0 0 15 -188 0 0 14 -264 0 0
EndChar
StartChar: Z
Encoding: 60 90 62
OldEncoding: 90
Width: 1251
Flags: HW
Fore
41 0 m 1
 80 187 l 1
 1214 1270 l 1
 314 1270 l 1
 353 1450 l 1
 1521 1450 l 1
 1482 1270 l 1
 363 180 l 1
 1238 180 l 1
 1200 0 l 1
 41 0 l 1
EndSplineSet
EndChar
StartChar: bracketleft
Encoding: 61 91 63
OldEncoding: 91
Width: 569
Flags: HW
Fore
52 -407 m 1
 450 1466 l 1
 847 1466 l 1
 815 1317 l 1
 598 1317 l 1
 264 -258 l 1
 481 -258 l 1
 449 -407 l 1
 52 -407 l 1
EndSplineSet
EndChar
StartChar: backslash
Encoding: 62 92 64
OldEncoding: 92
Width: 569
Flags: HW
Fore
419 -25 m 1
 316 1491 l 1
 461 1491 l 1
 563 -25 l 1
 419 -25 l 1
EndSplineSet
EndChar
StartChar: bracketright
Encoding: 63 93 65
OldEncoding: 93
Width: 569
Flags: HW
Fore
349 -407 m 1
 -47 -407 l 1
 -15 -258 l 1
 201 -258 l 1
 535 1317 l 1
 318 1317 l 1
 350 1466 l 1
 747 1466 l 1
 349 -407 l 1
EndSplineSet
EndChar
StartChar: asciicircum
Encoding: 64 94 66
OldEncoding: 94
Width: 961
Flags: HW
Fore
385 690 m 1
 200 690 l 1
 723 1491 l 1
 868 1491 l 1
 1053 690 l 1
 872 690 l 1
 752 1287 l 1
 385 690 l 1
EndSplineSet
EndChar
StartChar: underscore
Encoding: 65 95 67
OldEncoding: 95
Width: 1139
Flags: HW
Fore
-117 -407 m 1
 -89 -277 l 1
 1103 -277 l 1
 1075 -407 l 1
 -117 -407 l 1
EndSplineSet
EndChar
StartChar: grave
Encoding: 66 96 68
OldEncoding: 96
Width: 682
Flags: HW
Fore
718 1194 m 1
 573 1194 l 1
 402 1474 l 1
 643 1474 l 1
 718 1194 l 1
EndSplineSet
EndChar
StartChar: a
Encoding: 67 97 69
OldEncoding: 97
Width: 1139
Flags: HW
Fore
855 131 m 1
 776 74 704 34 638 11 c 0
 571 -12 502 -24 431 -24 c 0
 314 -24 231 5 181 62 c 0
 130 119 114 191 133 280 c 0
 144 332 166 379 199 422 c 0
 232 465 270 500 313 526 c 0
 358 552 405 572 456 585 c 0
 493 594 549 603 622 612 c 0
 771 629 882 650 956 674 c 1
 962 699 966 714 967 721 c 0
 982 794 976 846 949 876 c 0
 912 917 848 937 757 937 c 0
 672 937 606 922 559 892 c 0
 513 863 472 810 437 735 c 1
 266 759 l 1
 298 834 337 895 384 942 c 0
 430 988 490 1023 565 1048 c 0
 640 1073 723 1086 814 1086 c 0
 905 1086 976 1075 1029 1054 c 0
 1081 1033 1117 1006 1137 974 c 0
 1156 941 1166 900 1166 851 c 0
 1166 820 1157 765 1140 685 c 1
 1089 445 l 2
 1054 278 1035 172 1033 128 c 0
 1031 83 1037 41 1052 0 c 1
 864 0 l 1
 853 37 850 81 855 131 c 1
926 533 m 1
 855 506 752 484 617 465 c 0
 541 454 486 442 453 429 c 0
 419 416 391 396 369 370 c 0
 347 345 333 316 326 285 c 0
 316 237 326 197 355 165 c 0
 384 133 434 117 504 117 c 0
 573 117 638 132 699 162 c 0
 760 193 808 234 845 287 c 0
 872 328 895 388 912 467 c 1
 926 533 l 1
EndSplineSet
EndChar
StartChar: b
Encoding: 68 98 70
OldEncoding: 98
Width: 1139
Flags: HW
Fore
301 0 m 1
 134 0 l 1
 445 1466 l 1
 625 1466 l 1
 514 943 l 1
 610 1038 717 1086 835 1086 c 0
 977 1086 1078 1032 1138 924 c 0
 1192 825 1203 699 1171 547 c 0
 1134 372 1059 233 948 131 c 0
 846 37 728 -10 593 -10 c 0
 487 -10 406 21 351 84 c 0
 342 95 333 106 326 119 c 1
 301 0 l 1
426 539 m 0
 393 385 408 274 470 206 c 0
 505 168 553 149 612 149 c 0
 717 150 806 193 879 278 c 1
 935 345 974 429 996 532 c 0
 1027 681 1012 790 950 857 c 0
 911 900 855 921 784 921 c 0
 712 921 643 889 577 824 c 0
 501 750 451 655 426 539 c 0
EndSplineSet
EndChar
StartChar: c
Encoding: 69 99 71
OldEncoding: 99
Width: 1024
Flags: HW
Fore
913 403 m 1
 1090 403 l 1
 1051 244 968 129 841 58 c 0
 759 13 665 -10 560 -10 c 0
 434 -10 336 31 265 113 c 0
 186 205 159 329 184 485 c 0
 186 499 189 513 192 527 c 0
 231 714 311 858 431 958 c 0
 534 1043 655 1086 794 1086 c 0
 959 1086 1069 1036 1123 936 c 0
 1155 878 1165 806 1154 719 c 0
 1153 712 1152 704 1150 696 c 1
 975 696 l 1
 983 765 963 821 915 864 c 0
 876 899 826 916 765 916 c 0
 575 916 450 805 389 583 c 1
 378 532 l 2
 347 385 365 280 433 216 c 0
 473 179 527 160 595 160 c 0
 724 161 817 207 873 300 c 0
 891 330 904 364 913 403 c 1
EndSplineSet
EndChar
StartChar: d
Encoding: 70 100 72
OldEncoding: 100
Width: 1139
Flags: HW
Fore
824 0 m 1
 849 122 l 1
 770 34 662 -10 524 -10 c 0
 387 -10 288 41 226 142 c 0
 166 238 150 361 178 511 c 0
 179 518 181 524 182 530 c 0
 217 697 286 831 389 933 c 0
 491 1035 611 1086 749 1086 c 0
 878 1086 966 1046 1012 965 c 1
 1015 958 l 1
 1123 1466 l 1
 1302 1466 l 1
 991 0 l 1
 824 0 l 1
367 530 m 0
 335 378 351 269 415 203 c 0
 453 164 506 144 574 144 c 0
 633 144 694 171 757 224 c 0
 838 293 893 384 922 496 c 0
 923 502 925 508 926 515 c 0
 956 656 945 764 894 838 c 0
 857 891 805 917 738 917 c 0
 617 917 522 861 452 750 c 0
 414 690 386 617 367 530 c 0
EndSplineSet
EndChar
StartChar: e
Encoding: 71 101 73
OldEncoding: 101
Width: 1139
Flags: HW
Fore
932 333 m 1
 1118 333 l 1
 1069 214 989 123 876 62 c 0
 801 21 719 -2 629 -8 c 0
 612 -9 595 -10 578 -10 c 0
 391 -10 267 52 206 177 c 0
 162 266 155 381 185 522 c 0
 224 705 304 848 423 949 c 0
 530 1040 656 1086 801 1086 c 0
 968 1086 1081 1026 1141 906 c 0
 1190 808 1197 679 1164 520 c 0
 1160 502 1160 502 1156 485 c 1
 370 485 l 1
 337 312 381 206 502 167 c 0
 535 157 572 152 614 152 c 0
 754 152 856 205 920 311 c 0
 932 333 l 1
408 649 m 1
 999 649 l 1
 1016 790 969 875 857 904 c 0
 830 911 800 914 767 914 c 0
 684 914 609 889 540 839 c 0
 474 790 430 727 408 649 c 1
EndSplineSet
EndChar
StartChar: f
Encoding: 72 102 74
OldEncoding: 102
Width: 569
Flags: HW
Fore
178 0 m 1
 344 785 l 1
 185 785 l 1
 215 925 l 1
 374 925 l 1
 427 1175 l 1
 458 1318 527 1418 635 1474 c 0
 688 1501 746 1515 809 1515 c 0
 860 1515 909 1506 956 1488 c 1
 919 1316 l 1
 868 1334 824 1343 786 1343 c 0
 763 1344 743 1341 724 1334 c 0
 663 1312 623 1254 603 1160 c 2
 553 925 l 1
 732 925 l 1
 702 785 l 1
 523 785 l 1
 357 0 l 1
 178 0 l 1
EndSplineSet
KernsSLIF: 72 -37 0 0
EndChar
StartChar: g
Encoding: 73 103 75
OldEncoding: 103
Width: 1139
Flags: HW
Fore
86 -74 m 1
 261 -74 l 1
 255 -115 l 1
 253 -186 291 -233 368 -256 c 0
 397 -264 429 -268 464 -268 c 0
 585 -268 675 -227 736 -146 c 0
 783 -84 820 9 847 134 c 0
 847 135 847 137 848 139 c 1
 750 46 642 0 525 0 c 0
 379 0 275 54 214 163 c 0
 159 261 147 386 180 537 c 0
 213 695 280 824 380 925 c 0
 486 1032 611 1086 756 1086 c 0
 897 1086 992 1049 1043 974 c 1
 1061 1062 l 1
 1227 1062 l 1
 1032 144 l 1
 987 -65 921 -214 834 -301 c 0
 779 -355 711 -392 629 -413 c 0
 572 -428 506 -435 429 -435 c 1
 362 -431 l 1
 239 -418 155 -370 109 -287 c 0
 77 -228 69 -157 86 -74 c 1
367 550 m 0
 321 333 369 210 511 181 c 0
 532 177 554 175 579 175 c 0
 766 175 885 298 937 544 c 0
 972 711 950 823 870 880 c 0
 835 905 789 917 733 917 c 0
 622 917 531 869 462 774 c 0
 418 714 386 639 367 550 c 0
EndSplineSet
EndChar
StartChar: h
Encoding: 74 104 76
OldEncoding: 104
Width: 1139
Flags: HW
Fore
135 0 m 1
 446 1466 l 1
 626 1466 l 1
 521 970 l 1
 576 1026 646 1064 731 1083 c 0
 764 1091 798 1095 832 1095 c 0
 983 1095 1082 1042 1129 935 c 0
 1160 864 1165 777 1143 673 c 2
 1000 0 l 1
 820 0 l 1
 952 624 l 1
 989 796 932 882 783 882 c 0
 646 882 545 817 480 687 c 0
 457 642 440 591 428 532 c 1
 315 0 l 1
 135 0 l 1
EndSplineSet
EndChar
StartChar: i
Encoding: 75 105 77
OldEncoding: 105
Width: 455
Flags: HW
Fore
403 1259 m 1
 447 1466 l 1
 627 1466 l 1
 583 1259 l 1
 403 1259 l 1
136 0 m 1
 361 1062 l 1
 541 1062 l 1
 316 0 l 1
 136 0 l 1
EndSplineSet
EndChar
StartChar: j
Encoding: 76 106 78
OldEncoding: 106
Width: 455
Flags: HW
Fore
401 1257 m 1
 445 1466 l 1
 625 1466 l 1
 581 1257 l 1
 401 1257 l 1
-181 -412 m 1
 -149 -259 l 1
 -115 -264 -86 -267 -63 -267 c 0
 -4 -267 39 -247 67 -206 c 0
 89 -174 107 -123 122 -54 c 2
 359 1062 l 1
 539 1062 l 1
 301 -58 l 2
 261 -246 185 -362 73 -406 c 0
 36 -421 -6 -428 -51 -428 c 0
 -91 -428 -134 -423 -181 -412 c 1
EndSplineSet
EndChar
StartChar: k
Encoding: 77 107 79
OldEncoding: 107
Width: 1024
Flags: HW
Fore
136 0 m 1
 447 1466 l 1
 627 1466 l 1
 449 630 l 1
 967 1062 l 1
 1200 1062 l 1
 710 668 l 1
 1016 0 l 1
 794 0 l 1
 558 543 l 1
 405 421 l 1
 316 0 l 1
 136 0 l 1
EndSplineSet
EndChar
StartChar: l
Encoding: 78 108 80
OldEncoding: 108
Width: 455
Flags: HW
Fore
131 0 m 1
 442 1466 l 1
 622 1466 l 1
 311 0 l 1
 131 0 l 1
EndSplineSet
EndChar
StartChar: m
Encoding: 79 109 81
OldEncoding: 109
Width: 1706
Flags: HW
Fore
135 0 m 1
 360 1062 l 1
 521 1062 l 1
 490 913 l 1
 534 965 587 1007 649 1038 c 0
 711 1070 777 1086 848 1086 c 0
 927 1086 988 1070 1032 1037 c 0
 1075 1004 1101 959 1109 900 c 1
 1219 1024 1341 1086 1476 1086 c 0
 1581 1086 1656 1057 1701 998 c 0
 1745 940 1754 850 1728 729 c 1
 1574 0 l 1
 1395 0 l 1
 1537 669 l 2
 1552 741 1558 793 1553 824 c 0
 1548 856 1532 882 1505 901 c 0
 1478 920 1444 930 1403 930 c 0
 1328 930 1261 905 1201 856 c 0
 1142 806 1100 726 1077 617 c 2
 946 0 l 1
 766 0 l 1
 912 690 l 1
 929 770 927 830 906 870 c 0
 885 910 842 930 775 930 c 0
 724 930 675 917 627 890 c 0
 578 863 538 824 508 773 c 0
 477 722 452 648 432 551 c 1
 315 0 l 1
 135 0 l 1
EndSplineSet
EndChar
StartChar: n
Encoding: 80 110 82
OldEncoding: 110
Width: 1139
Flags: HW
Fore
135 0 m 1
 361 1064 l 1
 541 1064 l 1
 521 970 l 1
 576 1026 646 1064 731 1083 c 0
 764 1091 798 1095 832 1095 c 0
 983 1095 1082 1042 1129 935 c 0
 1160 864 1165 777 1143 673 c 2
 1000 0 l 1
 820 0 l 1
 952 624 l 1
 989 796 932 882 783 882 c 0
 646 882 545 817 480 687 c 0
 457 642 440 591 428 532 c 1
 315 0 l 1
 135 0 l 1
EndSplineSet
EndChar
StartChar: o
Encoding: 81 111 83
OldEncoding: 111
Width: 1139
Flags: HW
Fore
180 531 m 0
 221 721 304 865 430 964 c 0
 534 1045 656 1086 796 1086 c 0
 952 1086 1064 1035 1133 932 c 0
 1198 835 1213 706 1179 546 c 0
 1128 305 1018 141 850 54 c 0
 766 11 670 -11 563 -11 c 0
 384 -11 263 50 202 171 c 0
 156 263 149 383 180 531 c 0
365 531 m 0
 328 357 356 241 447 184 c 0
 486 159 536 147 597 147 c 0
 734 147 839 208 913 329 c 0
 948 386 975 456 992 537 c 0
 1023 686 1006 794 941 862 c 0
 899 906 840 928 763 928 c 0
 640 928 540 875 464 770 c 0
 419 706 386 626 365 531 c 0
EndSplineSet
EndChar
StartChar: p
Encoding: 82 112 84
OldEncoding: 112
Width: 1139
Flags: HW
Fore
492 957 m 1
 505 970 518 981 532 992 c 0
 614 1055 708 1086 814 1086 c 0
 949 1086 1047 1039 1109 945 c 0
 1177 843 1192 704 1155 529 c 0
 1122 377 1058 251 962 152 c 1
 856 44 732 -10 590 -10 c 0
 472 -10 385 38 330 133 c 1
 219 -390 l 1
 39 -390 l 1
 350 1076 l 1
 517 1076 l 1
 492 957 l 1
414 537 m 0
 389 421 399 326 443 252 c 0
 482 187 537 155 609 155 c 0
 680 155 745 176 802 219 c 0
 893 286 955 395 986 544 c 0
 990 561 993 578 995 595 c 0
 1003 655 1002 708 991 755 c 1
 977 798 l 1
 940 883 870 926 766 927 c 0
 707 927 651 908 599 870 c 0
 508 802 447 691 414 537 c 0
EndSplineSet
EndChar
StartChar: q
Encoding: 83 113 85
OldEncoding: 113
Width: 1139
Flags: HW
Fore
1069 1076 m 1
 1236 1076 l 1
 925 -390 l 1
 745 -390 l 1
 856 133 l 1
 759 38 652 -10 534 -10 c 0
 392 -10 291 44 232 152 c 0
 177 251 166 377 199 529 c 0
 236 704 310 843 421 945 c 0
 523 1039 641 1086 776 1086 c 0
 882 1086 963 1055 1018 992 c 0
 1028 981 1037 970 1044 957 c 1
 1069 1076 l 1
944 537 m 0
 977 691 962 802 899 870 c 0
 864 908 817 927 758 927 c 0
 653 926 564 883 491 798 c 1
 459 755 l 1
 428 708 404 655 387 595 c 0
 382 578 378 561 374 544 c 0
 343 395 358 286 420 219 c 0
 459 176 514 155 585 155 c 0
 657 155 726 187 793 252 c 0
 869 326 919 421 944 537 c 0
EndSplineSet
EndChar
StartChar: r
Encoding: 84 114 86
OldEncoding: 114
Width: 682
Flags: HW
Fore
133 0 m 1
 358 1062 l 1
 520 1062 l 1
 496 947 l 1
 529 992 576 1027 639 1052 c 0
 647 1055 656 1058 666 1062 c 0
 694 1072 726 1077 761 1077 c 0
 826 1077 881 1061 928 1028 c 1
 831 861 l 1
 792 887 752 900 709 900 c 0
 686 900 664 896 642 889 c 0
 626 883 610 875 593 864 c 0
 518 815 464 713 431 556 c 2
 313 0 l 1
 133 0 l 1
EndSplineSet
KernsSLIF: 16 -113 0 0 14 -113 0 0
EndChar
StartChar: s
Encoding: 85 115 87
OldEncoding: 115
Width: 1024
Flags: HW
Fore
139 358 m 1
 317 358 l 1
 308 243 360 176 471 157 c 0
 494 153 520 151 548 151 c 0
 633 151 703 172 760 214 c 0
 795 241 817 271 825 306 c 1
 836 364 809 406 746 431 c 0
 721 442 679 452 621 463 c 0
 503 486 426 505 389 520 c 0
 330 544 289 583 267 638 c 0
 250 681 247 728 258 780 c 0
 280 884 343 964 446 1021 c 0
 525 1064 615 1086 714 1086 c 0
 880 1086 989 1040 1040 949 c 0
 1067 902 1076 846 1069 779 c 0
 1068 774 1068 769 1067 764 c 1
 891 764 l 1
 897 863 843 916 729 924 c 1
 693 925 l 2
 602 925 532 902 485 856 c 1
 466 833 l 1
 452 807 l 1
 444 778 l 1
 443 765 443 751 445 738 c 0
 451 709 477 687 524 673 c 0
 544 667 587 657 653 644 c 0
 775 620 859 597 904 575 c 0
 982 538 1021 479 1022 400 c 0
 1022 377 1019 352 1014 325 c 0
 991 220 929 136 826 73 c 0
 735 17 631 -11 514 -11 c 0
 343 -11 229 39 171 138 c 0
 137 197 126 271 139 358 c 1
EndSplineSet
EndChar
StartChar: t
Encoding: 86 116 88
OldEncoding: 116
Width: 569
Flags: HW
Fore
562 161 m 1
 554 2 l 1
 504 -8 455 -13 408 -13 c 0
 342 -13 296 -3 269 17 c 0
 234 44 214 82 211 130 c 0
 209 170 217 230 234 311 c 1
 363 922 l 1
 213 922 l 1
 243 1062 l 1
 393 1062 l 1
 472 1433 l 1
 651 1433 l 1
 572 1062 l 1
 722 1062 l 1
 692 922 l 1
 542 922 l 1
 410 301 l 1
 399 245 395 209 400 194 c 0
 404 184 412 175 423 167 c 0
 436 158 455 153 481 153 c 0
 498 153 525 156 562 161 c 1
EndSplineSet
EndChar
StartChar: u
Encoding: 87 117 89
OldEncoding: 117
Width: 1139
Flags: HW
Fore
1199 1085 m 1
 969 0 l 1
 789 0 l 1
 802 64 l 1
 749 17 664 -7 545 -10 c 0
 539 -10 539 -10 534 -10 c 2
 465 -7 l 1
 324 8 235 71 197 181 c 0
 174 246 172 323 191 412 c 1
 334 1085 l 1
 514 1085 l 1
 381 461 l 1
 358 350 381 273 450 231 c 0
 483 211 525 201 576 201 c 0
 746 201 849 286 885 456 c 1
 1019 1085 l 1
 1199 1085 l 1
EndSplineSet
EndChar
StartChar: v
Encoding: 88 118 90
OldEncoding: 118
Width: 1024
Flags: HW
Fore
429 0 m 1
 251 1062 l 1
 441 1062 l 1
 577 269 l 1
 1035 1062 l 1
 1225 1062 l 1
 599 0 l 1
 429 0 l 1
EndSplineSet
KernsSLIF: 16 -152 0 0 14 -152 0 0
EndChar
StartChar: w
Encoding: 89 119 91
OldEncoding: 119
Width: 1479
Flags: HW
Fore
331 0 m 1
 231 1062 l 1
 417 1062 l 1
 476 246 l 1
 873 1062 l 1
 1057 1062 l 1
 1121 246 l 1
 1513 1062 l 1
 1688 1062 l 1
 1163 0 l 1
 975 0 l 1
 957 265 l 1
 930 623 915 807 913 817 c 1
 519 0 l 1
 331 0 l 1
EndSplineSet
KernsSLIF: 16 -113 0 0 14 -113 0 0
EndChar
StartChar: x
Encoding: 90 120 92
OldEncoding: 120
Width: 1024
Flags: HW
Fore
15 0 m 1
 513 552 l 1
 269 1062 l 1
 494 1062 l 1
 646 694 l 1
 991 1062 l 1
 1206 1062 l 1
 726 562 l 1
 1009 0 l 1
 788 0 l 1
 594 419 l 1
 233 0 l 1
 15 0 l 1
EndSplineSet
EndChar
StartChar: y
Encoding: 91 121 93
OldEncoding: 121
Width: 1024
Flags: HW
Fore
40 -409 m 1
 55 -240 l 1
 88 -249 123 -254 160 -254 c 0
 207 -254 246 -246 277 -231 c 0
 322 -209 355 -181 378 -146 c 0
 400 -112 419 -64 435 -2 c 1
 258 1062 l 1
 452 1062 l 1
 567 201 l 1
 1051 1062 l 1
 1231 1062 l 1
 601 -1 l 1
 555 -145 503 -245 446 -302 c 0
 417 -331 382 -355 340 -375 c 0
 281 -402 218 -418 149 -422 c 1
 95 -421 l 1
 74 -419 56 -415 40 -409 c 1
EndSplineSet
KernsSLIF: 16 -152 0 0 14 -152 0 0
EndChar
StartChar: z
Encoding: 92 122 94
OldEncoding: 122
Width: 1024
Flags: HW
Fore
40 0 m 1
 72 155 l 1
 910 916 l 1
 254 916 l 1
 285 1062 l 1
 1173 1062 l 1
 1142 916 l 1
 294 155 l 1
 1012 155 l 1
 980 0 l 1
 40 0 l 1
EndSplineSet
EndChar
StartChar: braceleft
Encoding: 93 123 95
OldEncoding: 123
Width: 684
Flags: HW
Fore
187 612 m 1
 238 613 283 627 321 654 c 0
 359 680 388 716 408 762 c 0
 429 808 451 887 476 998 c 0
 500 1109 517 1183 528 1218 c 0
 546 1274 567 1319 591 1353 c 0
 614 1387 640 1414 668 1434 c 0
 697 1455 731 1470 770 1481 c 0
 797 1488 839 1491 896 1491 c 2
 952 1491 l 1
 919 1334 l 1
 888 1334 l 2
 819 1334 770 1321 742 1296 c 0
 714 1271 691 1216 672 1129 c 0
 635 954 608 844 591 798 c 0
 564 727 532 672 494 633 c 128
 458 594 405 560 336 530 c 1
 403 499 446 453 466 390 c 0
 485 327 480 223 450 80 c 0
 422 -50 407 -127 404 -152 c 0
 400 -197 407 -229 425 -247 c 0
 442 -265 483 -274 546 -274 c 2
 577 -274 l 1
 544 -431 l 1
 488 -431 l 2
 423 -431 376 -426 349 -415 c 0
 310 -400 280 -375 259 -340 c 0
 238 -306 230 -263 233 -210 c 0
 236 -157 249 -71 274 49 c 0
 299 169 311 252 310 298 c 0
 309 344 295 380 268 407 c 1
 242 434 203 448 152 449 c 1
 187 612 l 1
EndSplineSet
EndChar
StartChar: bar
Encoding: 94 124 96
OldEncoding: 124
Width: 532
Flags: HW
Fore
96 -431 m 1
 504 1491 l 1
 661 1491 l 1
 253 -431 l 1
 96 -431 l 1
EndSplineSet
EndChar
StartChar: braceright
Encoding: 95 125 97
OldEncoding: 125
Width: 684
Flags: HW
Fore
756 612 m 1
 721 449 l 1
 670 448 625 434 586 407 c 0
 549 380 520 344 499 298 c 0
 478 253 456 174 432 63 c 0
 407 -48 390 -122 379 -157 c 0
 361 -214 340 -259 317 -292 c 0
 294 -326 268 -353 239 -374 c 0
 211 -394 177 -409 137 -420 c 0
 110 -427 68 -431 11 -431 c 2
 -44 -431 l 1
 -11 -274 l 1
 19 -274 l 2
 88 -274 137 -261 165 -236 c 0
 193 -211 216 -155 235 -68 c 0
 270 99 296 204 311 249 c 0
 338 323 372 382 413 426 c 0
 454 471 507 505 571 530 c 1
 502 567 459 615 440 676 c 0
 421 736 427 838 458 981 c 0
 485 1111 500 1189 503 1214 c 0
 508 1259 501 1290 484 1308 c 1
 465 1325 424 1334 361 1334 c 2
 330 1334 l 1
 363 1491 l 1
 419 1491 l 2
 484 1491 531 1486 558 1475 c 0
 597 1460 627 1436 648 1401 c 0
 669 1366 678 1323 675 1270 c 0
 672 1217 658 1131 633 1011 c 0
 608 891 596 808 597 762 c 0
 598 717 612 681 639 654 c 0
 666 627 705 613 756 612 c 1
EndSplineSet
EndChar
StartChar: asciitilde
Encoding: 96 126 98
OldEncoding: 126
Width: 1196
Flags: HW
Fore
205 557 m 1
 248 762 l 1
 336 842 437 882 552 882 c 0
 592 882 633 876 674 864 c 0
 716 853 774 830 847 795 c 0
 889 776 921 763 942 757 c 0
 964 751 987 748 1010 748 c 0
 1053 748 1101 761 1153 787 c 0
 1205 813 1253 846 1298 885 c 1
 1253 673 l 1
 1202 633 1152 604 1104 586 c 0
 1057 568 1006 559 951 559 c 0
 911 559 874 564 839 573 c 0
 805 582 753 605 682 640 c 0
 610 675 548 693 495 693 c 0
 452 693 410 684 369 666 c 0
 327 647 272 611 205 557 c 1
EndSplineSet
EndChar
StartChar: uni007F
Encoding: 97 127 99
OldEncoding: 127
Width: 1247
Flags: HW
Fore
340 928 m 0
 343 945 352 960 366 972 c 128
 380 983 396 989 413 989 c 0
 430 989 444 983 452 972 c 128
 462 960 464 945 461 928 c 0
 457 911 448 896 434 885 c 128
 420 874 404 868 387 868 c 0
 370 868 356 874 348 885 c 128
 338 896 336 911 340 928 c 0
559 1071 m 0
 563 1088 572 1103 586 1114 c 128
 599 1126 615 1132 632 1132 c 0
 649 1132 663 1126 672 1114 c 128
 681 1103 684 1088 680 1071 c 0
 677 1054 668 1039 654 1028 c 128
 639 1017 623 1011 606 1011 c 0
 589 1011 576 1017 567 1028 c 128
 558 1039 556 1054 559 1071 c 0
800 1139 m 0
 803 1156 812 1171 826 1182 c 128
 840 1194 856 1200 873 1200 c 0
 890 1200 904 1194 912 1182 c 128
 922 1171 924 1156 921 1139 c 0
 917 1122 908 1107 894 1096 c 128
 880 1085 864 1079 847 1079 c 0
 830 1079 816 1085 808 1096 c 128
 798 1107 796 1122 800 1139 c 0
129 505 m 0
 132 522 141 537 155 548 c 128
 169 560 185 566 202 566 c 0
 219 566 232 560 242 548 c 128
 250 537 253 522 250 505 c 0
 246 488 237 473 223 462 c 128
 209 451 193 445 176 445 c 0
 159 445 146 451 136 462 c 128
 128 473 125 488 129 505 c 0
208 309 m 0
 212 326 221 341 234 352 c 128
 248 364 264 370 281 370 c 0
 298 370 312 364 321 352 c 128
 330 341 333 326 329 309 c 0
 326 292 317 277 302 266 c 128
 288 255 272 249 255 249 c 0
 238 249 225 255 216 266 c 128
 207 277 205 292 208 309 c 0
319 158 m 0
 323 175 332 190 346 202 c 128
 359 213 375 219 392 219 c 0
 409 219 423 213 432 202 c 128
 441 190 444 175 440 158 c 0
 437 141 428 126 414 115 c 128
 399 104 383 98 366 98 c 0
 349 98 336 104 327 115 c 128
 318 126 316 141 319 158 c 0
565 67 m 0
 568 84 577 99 591 110 c 128
 605 122 621 128 638 128 c 0
 655 128 668 122 678 110 c 128
 686 99 689 84 686 67 c 0
 682 50 673 35 659 24 c 128
 645 13 629 7 612 7 c 0
 595 7 582 13 572 24 c 128
 564 35 561 50 565 67 c 0
872 128 m 0
 875 145 884 160 898 172 c 128
 912 183 928 189 945 189 c 0
 962 189 976 183 984 172 c 128
 994 160 996 145 993 128 c 0
 989 111 980 96 966 85 c 128
 952 74 936 68 919 68 c 0
 902 68 888 74 880 85 c 128
 870 96 868 111 872 128 c 0
1073 294 m 0
 1077 311 1086 326 1100 338 c 128
 1113 349 1129 355 1146 355 c 0
 1163 355 1177 349 1186 338 c 128
 1195 326 1198 311 1194 294 c 0
 1190 277 1181 262 1167 251 c 128
 1153 240 1137 234 1120 234 c 0
 1103 234 1090 240 1080 251 c 128
 1072 262 1069 277 1073 294 c 0
1191 498 m 0
 1195 515 1204 530 1218 542 c 128
 1231 553 1247 559 1264 559 c 0
 1281 559 1295 553 1304 542 c 128
 1313 530 1316 515 1312 498 c 0
 1309 481 1300 466 1286 455 c 128
 1272 444 1256 438 1239 438 c 0
 1222 438 1208 444 1200 455 c 128
 1190 466 1188 481 1191 498 c 0
1229 739 m 0
 1232 756 1241 771 1255 782 c 128
 1269 794 1285 800 1302 800 c 0
 1319 800 1332 794 1342 782 c 128
 1350 771 1353 756 1350 739 c 0
 1346 722 1337 707 1323 696 c 128
 1309 685 1293 679 1276 679 c 0
 1259 679 1246 685 1236 696 c 128
 1228 707 1225 722 1229 739 c 0
1167 951 m 0
 1170 968 1179 983 1193 994 c 128
 1207 1006 1223 1012 1240 1012 c 0
 1257 1012 1270 1006 1280 994 c 128
 1288 983 1291 968 1288 951 c 0
 1284 934 1275 919 1261 908 c 128
 1247 897 1231 891 1214 891 c 0
 1197 891 1184 897 1174 908 c 128
 1166 919 1163 934 1167 951 c 0
1009 1094 m 0
 1013 1111 1022 1126 1036 1138 c 128
 1049 1149 1065 1155 1082 1155 c 0
 1099 1155 1113 1149 1122 1138 c 128
 1131 1126 1134 1111 1130 1094 c 0
 1127 1077 1118 1062 1104 1051 c 128
 1089 1040 1073 1034 1056 1034 c 0
 1039 1034 1026 1040 1017 1051 c 128
 1008 1062 1006 1077 1009 1094 c 0
194 739 m 0
 197 756 206 771 220 782 c 128
 234 794 250 800 267 800 c 0
 284 800 298 794 306 782 c 128
 316 771 318 756 315 739 c 0
 311 722 302 707 288 696 c 128
 274 685 258 679 241 679 c 0
 224 679 210 685 202 696 c 128
 192 707 190 722 194 739 c 0
EndSplineSet
EndChar
StartChar: exclamdown
Encoding: 99 161 101
OldEncoding: 161
Width: 680
Flags: HW
Fore
713 1278 m 1
 509 1278 l 1
 554 1489 l 1
 758 1489 l 1
 713 1278 l 1
452 0 m 1
 228 0 l 1
 485 1079 l 1
 651 1079 l 1
 452 0 l 1
EndSplineSet
EndChar
StartChar: cent
Encoding: 100 162 102
OldEncoding: 162
Width: 1118
Flags: HW
Fore
557 2 m 1
 417 19 319 75 264 171 c 128
 208 267 197 396 232 557 c 0
 265 716 332 844 432 943 c 128
 531 1042 652 1099 794 1115 c 1
 870 1475 l 1
 984 1475 l 1
 908 1116 l 1
 965 1114 1019 1105 1070 1090 c 128
 1120 1074 1162 1056 1195 1037 c 1
 1152 837 l 1
 1142 837 l 1
 1108 871 1070 901 1029 926 c 128
 988 951 937 968 878 977 c 1
 700 141 l 1
 734 144 769 152 804 164 c 128
 839 176 870 189 895 202 c 0
 922 216 947 230 968 244 c 128
 990 257 1009 270 1024 281 c 1
 1034 281 l 1
 992 83 l 1
 945 63 896 45 846 30 c 128
 795 14 737 4 671 1 c 1
 594 -361 l 1
 480 -361 l 1
 557 2 l 1
588 146 m 1
 763 971 l 1
 682 957 612 915 553 846 c 128
 494 776 451 680 425 557 c 0
 398 432 401 335 432 268 c 128
 463 200 515 159 588 146 c 1
EndSplineSet
EndChar
StartChar: sterling
Encoding: 101 163 103
OldEncoding: 163
Width: 1118
Flags: HW
Fore
1031 0 m 1
 89 0 l 1
 132 207 l 1
 211 229 273 272 316 335 c 128
 360 398 395 491 421 613 c 1
 260 613 l 1
 289 751 l 1
 450 751 l 1
 518 1071 l 2
 547 1205 608 1313 703 1395 c 128
 798 1477 907 1518 1030 1518 c 0
 1095 1518 1149 1513 1193 1502 c 128
 1237 1492 1277 1481 1313 1470 c 1
 1269 1264 l 1
 1259 1264 l 1
 1226 1291 1188 1313 1144 1328 c 128
 1100 1343 1057 1351 1014 1351 c 0
 932 1351 865 1325 814 1274 c 128
 763 1223 727 1149 706 1052 c 2
 642 751 l 1
 1006 751 l 1
 977 613 l 1
 613 613 l 1
 600 552 l 2
 583 474 549 403 496 340 c 128
 443 276 378 223 299 182 c 1
 297 171 l 1
 1067 171 l 1
 1031 0 l 1
EndSplineSet
EndChar
StartChar: currency
Encoding: 102 164 104
OldEncoding: 164
Width: 1118
Flags: HW
Fore
1114 272 m 1
 986 166 l 1
 817 378 l 1
 783 360 752 347 724 338 c 128
 697 330 665 326 629 326 c 0
 598 326 568 331 540 341 c 128
 510 351 486 364 465 379 c 1
 204 164 l 1
 123 273 l 1
 380 486 l 1
 369 513 362 542 360 572 c 128
 357 604 359 633 365 661 c 0
 371 690 382 720 397 750 c 128
 412 779 432 808 455 835 c 1
 288 1051 l 1
 417 1157 l 1
 586 944 l 1
 614 960 644 973 677 982 c 128
 710 991 741 996 771 996 c 0
 806 996 837 991 866 980 c 128
 894 970 917 958 936 945 c 1
 1193 1157 l 1
 1280 1052 l 1
 1020 836 l 1
 1032 807 1040 780 1042 753 c 128
 1046 726 1043 696 1036 661 c 0
 1029 631 1018 600 1002 570 c 128
 986 538 967 511 946 486 c 1
 1114 272 l 1
892 661 m 0
 903 714 894 760 865 800 c 128
 836 838 795 858 742 858 c 0
 691 858 642 839 595 800 c 128
 548 762 519 716 508 661 c 0
 497 608 506 562 535 522 c 128
 564 484 605 464 658 464 c 0
 709 464 758 483 805 522 c 128
 852 560 881 606 892 661 c 0
EndSplineSet
EndChar
StartChar: yen
Encoding: 103 165 105
OldEncoding: 165
Width: 1118
Flags: HW
Fore
1375 1489 m 1
 795 678 l 1
 773 578 l 1
 1115 578 l 1
 1086 440 l 1
 746 440 l 1
 653 0 l 1
 465 0 l 1
 558 440 l 1
 218 440 l 1
 247 578 l 1
 589 578 l 1
 606 657 l 1
 372 1489 l 1
 582 1489 l 1
 740 850 l 1
 1174 1489 l 1
 1375 1489 l 1
EndSplineSet
EndChar
StartChar: brokenbar
Encoding: 104 166 106
OldEncoding: 166
Width: 783
Flags: HW
Fore
636 758 m 1
 469 758 l 1
 638 1556 l 1
 805 1556 l 1
 636 758 l 1
391 -392 m 1
 224 -392 l 1
 394 406 l 1
 561 406 l 1
 391 -392 l 1
EndSplineSet
EndChar
StartChar: section
Encoding: 105 167 107
OldEncoding: 167
Width: 1118
Flags: HW
Fore
844 401 m 0
 865 424 882 447 896 468 c 128
 909 490 920 519 927 555 c 0
 934 588 936 616 931 640 c 128
 926 664 917 684 904 699 c 0
 891 714 876 727 856 738 c 128
 838 748 815 757 788 766 c 0
 757 776 757 776 716 788 c 128
 689 797 658 807 624 819 c 1
 609 811 592 801 576 789 c 128
 558 777 539 760 517 738 c 0
 500 721 483 697 466 668 c 128
 449 639 437 609 431 579 c 0
 419 525 422 482 441 450 c 128
 460 418 503 391 570 369 c 0
 602 359 602 359 642 346 c 128
 683 332 683 332 733 315 c 1
 748 323 765 334 784 348 c 128
 804 362 824 380 844 401 c 0
153 -133 m 1
 168 -142 188 -151 212 -162 c 128
 235 -173 258 -182 280 -190 c 0
 309 -200 337 -208 362 -212 c 128
 388 -218 421 -220 462 -220 c 0
 538 -220 605 -204 662 -174 c 128
 720 -142 755 -97 768 -36 c 0
 775 0 775 29 768 52 c 128
 761 74 745 94 721 111 c 0
 696 128 665 142 626 154 c 128
 569 171 569 171 500 192 c 0
 445 209 400 226 365 243 c 128
 330 260 299 283 274 312 c 0
 250 339 234 371 227 407 c 128
 220 443 221 485 232 533 c 0
 245 596 274 655 319 712 c 128
 364 768 424 817 500 858 c 1
 501 865 l 1
 448 898 413 939 396 986 c 128
 380 1033 378 1087 391 1147 c 0
 415 1259 477 1349 576 1417 c 128
 676 1485 801 1519 950 1519 c 0
 1007 1519 1058 1515 1104 1506 c 128
 1151 1497 1201 1483 1256 1462 c 1
 1215 1268 l 1
 1205 1268 l 1
 1152 1298 1101 1320 1052 1334 c 128
 1003 1348 951 1355 895 1355 c 0
 820 1355 754 1340 696 1310 c 128
 637 1279 602 1235 589 1176 c 0
 581 1138 581 1107 590 1083 c 128
 599 1059 614 1039 637 1024 c 0
 660 1008 690 994 728 981 c 128
 765 968 808 955 857 942 c 0
 972 909 1051 866 1092 814 c 128
 1133 761 1144 690 1125 601 c 0
 1110 529 1078 466 1030 412 c 128
 983 358 925 313 857 277 c 1
 856 270 l 1
 907 239 942 201 960 154 c 128
 977 107 979 53 966 -10 c 0
 956 -59 935 -108 904 -155 c 128
 873 -202 834 -242 789 -274 c 0
 740 -309 685 -337 624 -356 c 128
 562 -375 490 -385 408 -385 c 0
 355 -385 304 -380 254 -371 c 128
 204 -362 153 -347 102 -327 c 1
 143 -133 l 1
 153 -133 l 1
EndSplineSet
EndChar
StartChar: dieresis
Encoding: 106 168 108
OldEncoding: 168
Width: 1118
Flags: HW
Fore
1144 1304 m 1
 943 1304 l 1
 984 1499 l 1
 1185 1499 l 1
 1144 1304 l 1
731 1304 m 1
 530 1304 l 1
 571 1499 l 1
 772 1499 l 1
 731 1304 l 1
EndSplineSet
EndChar
StartChar: copyright
Encoding: 107 169 109
OldEncoding: 169
Width: 1902
Flags: HW
Fore
1955 655 m 0
 1904 416 1776 212 1572 44 c 128
 1366 -126 1145 -210 906 -210 c 128
 667 -210 482 -126 348 44 c 128
 216 212 174 416 225 655 c 128
 276 894 403 1097 608 1266 c 128
 813 1435 1034 1519 1273 1519 c 128
 1512 1519 1698 1435 1831 1266 c 128
 1964 1097 2006 894 1955 655 c 0
1840 655 m 0
 1884 864 1848 1042 1734 1188 c 128
 1618 1336 1458 1409 1251 1409 c 128
 1044 1409 852 1336 674 1188 c 128
 497 1042 386 864 342 655 c 128
 297 446 332 268 448 121 c 128
 562 -26 723 -100 930 -100 c 128
 1137 -100 1329 -26 1506 121 c 128
 1684 268 1795 446 1840 655 c 0
1328 255 m 1
 1279 235 1230 218 1182 202 c 128
 1135 188 1081 180 1020 180 c 0
 881 180 779 221 716 304 c 128
 653 386 638 505 671 660 c 0
 704 813 770 932 872 1016 c 128
 972 1101 1090 1143 1224 1143 c 0
 1279 1143 1331 1136 1378 1121 c 128
 1426 1106 1467 1089 1501 1070 c 1
 1462 889 l 1
 1446 889 l 1
 1423 914 1389 938 1343 962 c 128
 1297 984 1248 996 1197 996 c 0
 1115 996 1044 969 983 914 c 128
 922 859 880 775 856 660 c 0
 833 552 838 470 873 412 c 128
 908 356 968 327 1055 327 c 0
 1111 327 1167 339 1222 364 c 128
 1277 388 1320 411 1350 434 c 1
 1366 434 l 1
 1328 255 l 1
EndSplineSet
EndChar
StartChar: ordfeminine
Encoding: 108 170 110
OldEncoding: 170
Width: 1010
Flags: HW
Fore
994 566 m 1
 828 566 l 1
 847 657 l 1
 825 642 825 642 788 618 c 128
 763 603 740 590 717 581 c 0
 687 568 658 558 630 552 c 128
 602 544 565 541 518 541 c 0
 435 541 372 569 329 624 c 128
 286 680 273 752 292 839 c 0
 307 908 333 965 371 1008 c 128
 409 1052 457 1087 516 1112 c 0
 571 1136 638 1153 716 1163 c 128
 794 1173 875 1180 959 1184 c 1
 963 1203 l 2
 970 1238 971 1266 964 1287 c 128
 958 1308 946 1325 927 1337 c 0
 910 1348 887 1356 860 1360 c 128
 832 1363 803 1365 772 1365 c 0
 720 1365 666 1357 608 1342 c 128
 552 1326 509 1313 481 1304 c 1
 466 1304 l 1
 502 1474 l 1
 533 1483 579 1492 640 1503 c 128
 700 1514 755 1519 805 1519 c 0
 933 1519 1025 1494 1080 1442 c 128
 1136 1392 1152 1309 1127 1194 c 1
 994 566 l 1
878 802 m 1
 930 1045 l 1
 886 1042 835 1038 776 1033 c 128
 717 1028 670 1020 634 1010 c 0
 592 999 556 980 526 954 c 128
 495 929 475 894 466 849 c 0
 455 799 462 761 486 735 c 128
 509 709 550 696 608 696 c 0
 659 696 706 707 752 729 c 128
 796 751 839 775 878 802 c 1
EndSplineSet
EndChar
StartChar: guillemotleft
Encoding: 109 171 111
OldEncoding: 171
Width: 1174
Flags: HW
Fore
1083 191 m 1
 684 610 l 1
 702 695 l 1
 1279 1113 l 1
 1239 925 l 1
 864 652 l 1
 1123 379 l 1
 1083 191 l 1
647 162 m 1
 232 608 l 1
 251 697 l 1
 855 1142 l 1
 814 946 l 1
 420 652 l 1
 689 358 l 1
 647 162 l 1
EndSplineSet
EndChar
StartChar: logicalnot
Encoding: 110 172 112
OldEncoding: 172
Width: 1490
Flags: HW
Fore
1335 57 m 1
 1164 57 l 1
 1279 602 l 1
 284 602 l 1
 318 762 l 1
 1484 762 l 1
 1335 57 l 1
EndSplineSet
EndChar
StartChar: registered
Encoding: 112 174 114
OldEncoding: 174
Width: 1902
Flags: HW
Fore
1955 655 m 0
 1904 416 1776 212 1572 44 c 128
 1366 -126 1145 -210 906 -210 c 128
 667 -210 482 -126 348 44 c 128
 216 212 174 416 225 655 c 128
 276 894 403 1097 608 1266 c 128
 813 1435 1034 1519 1273 1519 c 128
 1512 1519 1698 1435 1831 1266 c 128
 1964 1097 2006 894 1955 655 c 0
1840 655 m 0
 1884 864 1848 1042 1734 1188 c 128
 1618 1336 1458 1409 1251 1409 c 128
 1044 1409 852 1336 674 1188 c 128
 497 1042 386 864 342 655 c 128
 297 446 332 268 448 121 c 128
 562 -26 723 -100 930 -100 c 128
 1137 -100 1329 -26 1506 121 c 128
 1684 268 1795 446 1840 655 c 0
1493 215 m 1
 1266 215 l 1
 1059 570 l 1
 936 570 l 1
 860 215 l 1
 695 215 l 1
 890 1130 l 1
 1169 1130 l 2
 1232 1130 1281 1128 1316 1123 c 128
 1351 1118 1385 1105 1418 1084 c 0
 1453 1061 1476 1034 1488 1002 c 128
 1498 970 1499 929 1488 879 c 0
 1474 812 1444 758 1398 715 c 128
 1352 672 1297 639 1232 615 c 1
 1493 215 l 1
1304 868 m 0
 1309 893 1310 914 1306 932 c 128
 1301 950 1290 965 1273 978 c 0
 1259 989 1242 996 1222 1000 c 128
 1202 1003 1176 1005 1143 1005 c 2
 1028 1005 l 1
 962 696 l 1
 1060 696 l 2
 1092 696 1123 699 1152 706 c 128
 1181 712 1206 723 1227 738 c 128
 1248 753 1264 771 1276 791 c 128
 1288 811 1297 837 1304 868 c 0
EndSplineSet
EndChar
StartChar: macron
Encoding: 113 175 115
OldEncoding: 175
Width: 1118
Flags: HW
Fore
1486 1659 m 1
 336 1659 l 1
 364 1789 l 1
 1514 1789 l 1
 1486 1659 l 1
EndSplineSet
EndChar
StartChar: degree
Encoding: 114 176 116
OldEncoding: 176
Width: 964
Flags: HW
Fore
1104 1135 m 0
 1081 1028 1026 938 936 865 c 128
 848 792 749 755 642 755 c 0
 536 755 454 791 395 864 c 128
 336 937 319 1027 342 1135 c 0
 365 1242 420 1332 510 1405 c 128
 598 1478 697 1515 804 1515 c 128
 911 1515 994 1478 1052 1405 c 128
 1109 1332 1127 1242 1104 1135 c 0
947 1135 m 0
 960 1199 950 1253 917 1297 c 128
 884 1341 835 1363 771 1363 c 128
 707 1363 649 1341 597 1297 c 128
 545 1253 512 1199 499 1135 c 0
 485 1070 495 1015 530 972 c 128
 564 929 612 907 674 907 c 0
 738 907 796 929 848 974 c 128
 901 1018 934 1072 947 1135 c 0
EndSplineSet
EndChar
StartChar: plusminus
Encoding: 115 177 117
OldEncoding: 177
Width: 1490
Flags: HW
Fore
1361 159 m 1
 195 159 l 1
 229 317 l 1
 729 317 l 1
 819 739 l 1
 319 739 l 1
 352 897 l 1
 852 897 l 1
 960 1402 l 1
 1126 1402 l 1
 1018 897 l 1
 1518 897 l 1
 1485 739 l 1
 985 739 l 1
 895 317 l 1
 1395 317 l 1
 1361 159 l 1
EndSplineSet
EndChar
StartChar: uni00B2
Encoding: 116 178 118
OldEncoding: 178
Width: 1010
Flags: HW
Fore
986 566 m 1
 305 566 l 1
 337 718 l 1
 427 777 427 777 509 832 c 128
 564 868 609 900 644 929 c 0
 729 997 787 1050 817 1088 c 128
 847 1127 868 1173 879 1227 c 0
 889 1273 882 1308 859 1334 c 128
 836 1358 799 1371 748 1371 c 0
 702 1371 653 1361 602 1341 c 128
 551 1321 509 1300 477 1279 c 1
 462 1279 l 1
 500 1458 l 1
 546 1476 596 1491 649 1502 c 128
 702 1513 754 1519 803 1519 c 0
 907 1519 981 1493 1026 1440 c 128
 1071 1388 1084 1321 1067 1239 c 0
 1055 1182 1030 1128 992 1076 c 128
 955 1023 893 965 808 900 c 0
 767 869 719 837 666 802 c 128
 586 751 586 751 523 710 c 1
 1016 710 l 1
 986 566 l 1
EndSplineSet
EndChar
StartChar: uni00B3
Encoding: 117 179 119
OldEncoding: 179
Width: 1010
Flags: HW
Fore
1012 828 m 0
 1002 781 983 738 955 700 c 128
 927 663 895 633 858 611 c 0
 818 586 776 569 733 558 c 128
 690 547 642 542 589 542 c 0
 534 542 484 547 438 557 c 128
 393 567 350 581 311 600 c 1
 348 775 l 1
 365 775 l 1
 385 752 418 730 466 710 c 128
 512 691 562 681 615 681 c 0
 671 681 720 693 762 718 c 128
 804 742 830 778 840 826 c 0
 850 874 843 910 819 933 c 128
 795 956 748 968 679 968 c 2
 539 968 l 1
 569 1107 l 1
 694 1107 l 2
 752 1107 800 1120 836 1145 c 128
 874 1170 897 1205 906 1249 c 0
 915 1289 908 1321 886 1344 c 128
 863 1368 823 1380 765 1380 c 0
 721 1380 671 1370 616 1349 c 128
 561 1328 518 1306 488 1283 c 1
 471 1283 l 1
 508 1458 l 1
 555 1476 604 1491 656 1502 c 128
 709 1513 761 1519 814 1519 c 0
 915 1519 990 1496 1036 1449 c 128
 1084 1402 1100 1346 1086 1281 c 0
 1073 1223 1047 1175 1006 1138 c 128
 966 1100 919 1072 864 1055 c 1
 862 1047 l 1
 913 1036 954 1013 986 976 c 128
 1016 940 1025 891 1012 828 c 0
EndSplineSet
EndChar
StartChar: acute
Encoding: 118 180 120
OldEncoding: 180
Width: 1118
Flags: HW
Fore
1227 1676 m 1
 874 1302 l 1
 725 1302 l 1
 984 1676 l 1
 1227 1676 l 1
EndSplineSet
EndChar
StartChar: mu
Encoding: 119 181 121
OldEncoding: 181
Width: 1163
Flags: HW
Fore
1027 0 m 1
 855 0 l 1
 879 116 l 1
 873 116 l 1
 824 74 777 41 732 18 c 128
 687 -5 634 -17 574 -17 c 0
 513 -17 467 -5 436 18 c 128
 406 41 377 74 348 115 c 1
 236 -412 l 1
 48 -412 l 1
 373 1117 l 1
 561 1117 l 1
 382 275 l 1
 403 242 432 215 470 194 c 128
 507 174 555 164 612 164 c 0
 672 164 725 174 770 193 c 128
 815 212 858 240 897 275 c 1
 1076 1117 l 1
 1264 1117 l 1
 1027 0 l 1
EndSplineSet
EndChar
StartChar: paragraph
Encoding: 120 182 122
OldEncoding: 182
Width: 1118
Flags: HW
Fore
904 -363 m 1
 764 -363 l 1
 1130 1359 l 1
 943 1359 l 1
 577 -363 l 1
 437 -363 l 1
 641 593 l 1
 504 596 403 639 336 722 c 128
 269 805 251 914 280 1050 c 0
 309 1188 376 1296 478 1373 c 128
 582 1450 714 1489 876 1489 c 2
 1298 1489 l 1
 904 -363 l 1
EndSplineSet
EndChar
StartChar: periodcentered
Encoding: 121 183 123
OldEncoding: 183
Width: 724
Flags: HW
Fore
658 832 m 1
 419 832 l 1
 480 1117 l 1
 719 1117 l 1
 658 832 l 1
EndSplineSet
EndChar
StartChar: cedilla
Encoding: 122 184 124
OldEncoding: 184
Width: 1118
Flags: HW
Fore
771 20 m 1
 769 8 767 -7 764 -26 c 128
 762 -44 759 -65 754 -89 c 0
 731 -197 684 -280 614 -337 c 128
 544 -394 465 -423 376 -423 c 0
 351 -423 323 -421 290 -417 c 128
 257 -413 229 -407 204 -399 c 1
 238 -239 l 1
 247 -239 l 1
 261 -246 280 -254 304 -262 c 128
 329 -269 354 -273 381 -273 c 0
 444 -273 491 -260 524 -234 c 128
 556 -207 578 -165 591 -107 c 0
 596 -81 596 -81 602 -50 c 128
 607 -19 607 -19 614 20 c 1
 771 20 l 1
EndSplineSet
EndChar
StartChar: uni0E01
Encoding: 123 3585 125
OldEncoding: 3585
Width: 1240
Flags: HW
Fore
1225 673 m 1
 1082 0 l 1
 922 0 l 1
 1061 657 l 1
 1084 762 1080 839 1051 888 c 0
 1043 901 1034 913 1023 924 c 1
 1016 930 l 2
 986 956 942 974 883 985 c 0
 866 988 849 989 834 989 c 0
 737 989 642 957 550 892 c 0
 521 872 495 850 471 825 c 1
 499 818 532 794 570 755 c 0
 605 720 624 689 626 663 c 1
 569 614 532 581 515 563 c 0
 486 530 466 499 454 470 c 0
 444 445 434 409 425 363 c 1
 348 0 l 1
 188 0 l 1
 265 363 l 1
 282 446 305 507 332 546 c 0
 353 576 395 618 458 671 c 1
 439 701 404 731 351 762 c 0
 327 776 305 786 286 792 c 1
 313 855 362 917 434 979 c 1
 563 1092 708 1149 868 1149 c 0
 1013 1149 1120 1102 1188 1008 c 1
 1241 922 1254 810 1225 673 c 1
EndSplineSet
EndChar
StartChar: uni0E02
Encoding: 124 3586 126
OldEncoding: 3586
Width: 1400
Flags: HW
Fore
422 642 m 1
 448 641 l 1
 477 645 504 660 527 687 c 1
 528 690 530 692 532 695 c 0
 545 713 553 732 557 751 c 0
 560 766 561 780 558 793 c 0
 554 817 541 832 518 839 c 1
 490 841 l 1
 455 839 426 822 403 791 c 0
 399 786 395 780 392 773 c 0
 385 760 381 748 378 735 c 0
 375 724 375 713 376 703 c 1
 381 679 l 1
 389 658 403 645 422 642 c 1
997 771 m 1
 948 731 l 1
 878 670 838 618 829 575 c 2
 766 278 l 2
 759 247 775 218 812 189 c 0
 844 164 878 151 914 150 c 0
 961 150 1008 166 1054 198 c 0
 1089 223 1110 250 1116 278 c 2
 1299 1139 l 1
 1459 1139 l 1
 1276 278 l 2
 1242 119 1144 25 983 -2 c 0
 951 -7 917 -10 880 -10 c 0
 771 -10 692 21 642 82 c 0
 601 133 589 199 606 278 c 1
 669 575 l 2
 680 625 729 685 817 755 c 0
 830 766 841 791 849 830 c 1
 853 867 849 900 836 927 c 0
 819 962 786 986 736 998 c 0
 722 1001 708 1003 693 1003 c 2
 645 1000 l 1
 594 993 543 968 491 925 c 1
 504 931 519 934 536 934 c 0
 543 934 552 934 561 933 c 0
 605 928 637 900 656 850 c 0
 665 827 665 798 658 765 c 0
 648 718 628 675 597 634 c 0
 568 595 526 568 473 553 c 0
 453 548 433 545 413 545 c 0
 404 545 395 546 387 547 c 0
 334 553 295 582 269 635 c 0
 263 649 l 0
 251 684 252 735 266 804 c 0
 269 818 273 831 277 843 c 0
 299 911 339 972 398 1025 c 0
 405 1032 413 1038 420 1043 c 0
 507 1110 602 1145 704 1149 c 0
 720 1149 l 0
 788 1149 851 1130 908 1092 c 0
 928 1079 944 1064 956 1049 c 0
 991 1006 1007 939 1006 847 c 1
 1005 818 1002 793 997 771 c 1
EndSplineSet
EndChar
StartChar: uni0E03
Encoding: 125 3587 127
OldEncoding: 3587
Width: 1450
Flags: HW
Fore
420 603 m 1
 446 603 l 1
 475 607 501 622 523 649 c 0
 527 653 527 653 530 656 c 0
 543 674 551 693 555 713 c 0
 558 728 559 742 556 754 c 0
 552 775 541 790 522 798 c 0
 516 800 l 2
 488 803 l 1
 452 800 423 784 401 753 c 0
 397 747 393 741 390 734 c 0
 383 721 378 709 375 696 c 0
 371 675 372 656 378 639 c 1
 387 619 401 607 420 603 c 1
400 1011 m 0
 443 1060 496 1100 561 1132 c 0
 579 1141 593 1146 604 1149 c 1
 604 1148 649 1112 740 1041 c 1
 907 1149 l 1
 944 1138 981 1110 1018 1065 c 0
 1025 1056 1032 1046 1039 1036 c 0
 1066 995 1080 936 1083 859 c 0
 1084 836 1083 815 1080 797 c 0
 1079 792 1078 787 1077 783 c 1
 1027 743 l 1
 957 682 917 630 908 587 c 1
 843 278 l 1
 836 247 852 218 889 189 c 0
 921 164 955 151 991 150 c 0
 1038 150 1085 166 1131 198 c 0
 1166 223 1187 250 1193 278 c 2
 1376 1139 l 1
 1536 1139 l 1
 1353 278 l 2
 1319 119 1221 25 1060 -2 c 1
 994 -9 l 2
 982 -10 970 -10 957 -10 c 0
 848 -10 769 21 719 82 c 0
 678 133 666 199 683 278 c 1
 748 587 l 2
 759 637 808 697 897 767 c 0
 910 778 919 794 922 814 c 128
 925 836 924 863 917 897 c 0
 911 923 896 950 871 979 c 1
 870 978 815 946 706 881 c 1
 586 963 l 1
 568 979 l 1
 547 966 525 943 502 908 c 1
 489 886 l 1
 502 893 517 896 534 896 c 0
 541 896 549 895 559 894 c 0
 603 889 635 861 654 812 c 0
 663 789 663 760 656 727 c 0
 646 680 626 636 595 595 c 0
 565 556 524 529 471 515 c 0
 451 510 431 507 410 507 c 0
 401 507 393 507 384 508 c 0
 332 515 293 544 267 596 c 0
 261 611 l 0
 248 646 249 697 264 765 c 0
 267 780 271 793 274 804 c 0
 296 871 338 940 400 1011 c 0
EndSplineSet
EndChar
StartChar: uni0E04
Encoding: 126 3588 128
OldEncoding: 3588
Width: 1370
Flags: HW
Fore
916 630 m 1
 911 635 905 638 898 640 c 1
 874 641 l 1
 836 638 802 618 773 579 c 1
 767 572 762 565 759 558 c 1
 751 532 l 1
 744 498 753 472 778 453 c 1
 789 446 800 443 813 443 c 0
 824 443 835 445 847 450 c 0
 880 463 906 488 927 523 c 0
 932 532 936 543 938 554 c 0
 945 587 938 613 916 630 c 1
434 256 m 1
 441 274 449 293 458 312 c 0
 521 456 582 559 639 621 c 0
 649 631 659 641 670 650 c 0
 721 695 771 725 821 738 c 0
 840 743 859 746 880 746 c 0
 927 746 964 733 990 708 c 1
 997 700 l 2
 1036 659 1049 610 1037 553 c 0
 1034 538 1029 524 1022 511 c 0
 1012 490 999 470 982 449 c 0
 938 394 892 361 843 348 c 0
 826 344 809 342 792 342 c 0
 757 342 730 351 710 370 c 0
 691 389 681 407 679 424 c 1
 660 396 639 363 616 324 c 0
 535 188 482 80 455 0 c 1
 245 0 l 1
 267 108 l 1
 278 161 284 266 284 424 c 1
 282 513 289 596 306 673 c 0
 325 766 357 841 400 897 c 1
 453 964 515 1017 586 1057 c 1
 675 1106 765 1135 856 1146 c 1
 920 1149 l 1
 1021 1148 1103 1130 1166 1095 c 1
 1234 1060 1284 1015 1315 959 c 0
 1317 956 1319 953 1320 950 c 0
 1357 881 1361 782 1333 651 c 1
 1195 0 l 1
 1035 0 l 1
 1184 702 l 1
 1185 706 1185 710 1186 715 c 0
 1191 761 1187 802 1173 837 c 0
 1157 878 1122 915 1069 948 c 0
 1025 975 966 989 891 989 c 0
 824 989 761 976 703 950 c 0
 688 943 671 935 654 924 c 0
 598 889 555 851 524 808 c 0
 496 768 475 714 461 646 c 0
 452 603 447 562 448 525 c 1
 434 256 l 1
EndSplineSet
EndChar
StartChar: uni0E05
Encoding: 127 3589 129
OldEncoding: 3589
Width: 1370
Flags: HW
Fore
1338 926 m 0
 1339 925 1339 923 1339 922 c 0
 1356 857 1353 766 1328 651 c 1
 1190 0 l 1
 1030 0 l 1
 1179 702 l 1
 1183 721 l 2
 1196 782 1195 834 1180 876 c 0
 1161 928 1121 966 1061 989 c 1
 863 873 l 1
 724 989 l 1
 721 988 717 987 713 986 c 0
 638 963 574 912 521 834 c 0
 499 801 480 745 463 664 c 0
 452 613 445 567 443 525 c 1
 429 256 l 1
 436 274 444 293 453 312 c 0
 516 456 577 559 634 621 c 0
 644 631 654 641 665 650 c 0
 716 695 766 725 816 738 c 0
 835 743 854 746 875 746 c 0
 922 746 958 733 985 708 c 0
 988 705 990 703 992 700 c 0
 1031 659 1044 610 1032 553 c 0
 1029 538 1024 524 1017 511 c 0
 1007 490 994 470 977 449 c 0
 933 394 887 361 838 348 c 0
 821 344 804 342 787 342 c 0
 752 342 725 351 705 370 c 0
 686 389 676 407 674 424 c 1
 655 396 634 363 611 324 c 0
 530 188 477 80 450 0 c 1
 240 0 l 1
 262 108 l 1
 273 161 279 266 279 424 c 1
 277 521 284 610 301 689 c 0
 312 739 326 785 343 826 c 0
 365 877 394 925 431 968 c 1
 470 1009 l 1
 555 1092 651 1138 758 1149 c 1
 897 1033 l 1
 1095 1149 l 1
 1123 1142 1149 1133 1174 1122 c 0
 1259 1081 1314 1015 1338 926 c 0
911 630 m 1
 906 635 900 638 893 640 c 1
 869 641 l 1
 831 638 797 618 768 579 c 1
 762 572 757 565 754 558 c 1
 745 532 l 1
 738 498 748 472 773 453 c 0
 783 446 794 443 807 443 c 0
 818 443 830 445 842 450 c 0
 875 463 901 488 922 523 c 0
 927 532 930 543 932 554 c 0
 939 587 932 613 911 630 c 1
EndSplineSet
EndChar
StartChar: uni0E06
Encoding: 128 3590 130
OldEncoding: 3590
Width: 1520
Flags: HW
Fore
431 603 m 1
 457 603 l 1
 486 607 512 622 534 649 c 0
 538 653 538 653 541 656 c 0
 554 674 562 693 566 713 c 0
 569 728 570 742 567 754 c 0
 563 775 552 790 533 798 c 0
 527 800 l 2
 499 803 l 1
 463 800 434 784 412 753 c 0
 408 747 404 741 401 734 c 0
 394 721 389 709 386 696 c 0
 382 675 383 656 389 639 c 1
 398 619 412 607 431 603 c 1
759 587 m 1
 770 637 820 697 908 767 c 0
 921 778 930 794 933 814 c 128
 936 836 935 863 928 897 c 0
 922 923 907 950 882 979 c 1
 881 978 826 946 717 881 c 1
 597 963 l 1
 579 979 l 1
 558 966 536 943 513 908 c 1
 500 886 l 1
 513 893 528 896 545 896 c 0
 552 896 560 895 570 894 c 0
 614 889 646 861 665 812 c 0
 674 789 674 760 667 727 c 0
 657 680 637 636 606 595 c 0
 576 556 535 529 482 515 c 0
 462 510 442 507 421 507 c 0
 412 507 404 507 395 508 c 0
 343 515 304 544 278 596 c 0
 272 611 l 0
 259 646 260 697 275 765 c 0
 278 780 282 793 285 804 c 0
 307 871 349 940 411 1011 c 0
 454 1060 507 1100 572 1132 c 0
 590 1141 604 1146 615 1149 c 1
 615 1148 660 1112 751 1041 c 1
 918 1149 l 1
 955 1138 992 1110 1029 1065 c 0
 1036 1056 1043 1046 1050 1036 c 0
 1077 995 1091 936 1094 859 c 0
 1095 836 1094 815 1091 797 c 0
 1090 792 1089 787 1088 783 c 1
 1038 743 l 1
 968 682 928 630 919 587 c 2
 881 409 l 1
 1000 272 l 1
 1077 189 1137 148 1179 147 c 0
 1188 147 1197 149 1206 154 c 0
 1229 167 1247 201 1259 256 c 1
 1447 1139 l 1
 1607 1139 l 1
 1419 256 l 2
 1400 169 1377 108 1350 74 c 0
 1334 55 1314 39 1290 25 c 0
 1255 5 1219 -5 1184 -5 c 0
 1112 -5 1034 40 950 129 c 1
 853 235 l 1
 845 243 l 1
 822 146 l 1
 799 78 760 31 707 6 c 0
 683 -5 658 -10 633 -10 c 0
 586 -10 547 4 518 32 c 1
 508 43 l 1
 474 88 464 142 477 205 c 0
 490 267 516 319 554 362 c 1
 605 417 664 445 729 446 c 1
 759 587 l 1
713 328 m 1
 673 328 639 307 612 264 c 1
 598 244 589 223 584 202 c 0
 576 163 580 133 595 114 c 0
 600 107 608 103 617 103 c 0
 648 103 669 124 679 166 c 1
 686 200 l 1
 713 328 l 1
EndSplineSet
EndChar
StartChar: uni0E07
Encoding: 129 3591 131
OldEncoding: 3591
Width: 1000
Flags: HW
Fore
848 1042 m 2
 817 1042 789 1027 763 996 c 0
 749 979 740 962 736 945 c 1
 736 938 l 1
 729 892 740 861 767 844 c 0
 778 838 790 835 804 835 c 1
 841 838 866 853 881 882 c 0
 889 897 896 917 901 943 c 1
 909 994 902 1025 881 1036 c 1
 859 1041 l 1
 848 1042 l 2
912 272 m 1
 889 161 831 82 739 33 c 0
 684 4 621 -10 550 -10 c 0
 407 -10 321 51 293 173 c 1
 287 203 284 236 284 272 c 1
 297 719 l 1
 462 640 l 1
 455 455 449 333 445 272 c 1
 444 232 461 200 497 175 c 0
 521 158 550 150 584 150 c 0
 654 150 704 175 733 225 c 0
 742 239 748 255 751 272 c 1
 857 770 l 1
 843 756 820 747 787 743 c 0
 783 742 779 742 775 742 c 2
 742 744 l 1
 708 749 680 765 659 792 c 0
 620 842 621 913 662 1004 c 1
 683 1047 717 1084 766 1114 c 0
 805 1137 845 1149 887 1150 c 0
 895 1150 l 0
 949 1149 990 1131 1019 1095 c 1
 1055 1052 1063 980 1042 881 c 1
 912 272 l 1
EndSplineSet
EndChar
StartChar: uni0E08
Encoding: 130 3592 132
OldEncoding: 3592
Width: 1200
Flags: HW
Fore
538 645 m 0
 507 645 479 630 453 599 c 0
 440 582 431 565 427 548 c 1
 425 541 l 1
 419 495 430 464 458 447 c 0
 468 441 480 438 494 438 c 1
 530 441 556 456 572 485 c 1
 579 500 585 520 591 546 c 1
 600 597 593 628 571 639 c 0
 563 643 552 645 538 645 c 0
689 283 m 1
 670 194 700 150 779 150 c 0
 856 150 904 189 924 268 c 0
 925 271 926 275 927 279 c 1
 1019 715 l 1
 1034 786 1033 841 1014 882 c 0
 1011 887 1009 892 1006 896 c 0
 961 952 887 983 785 988 c 0
 776 989 766 989 756 989 c 0
 664 989 579 962 501 909 c 0
 480 894 461 879 444 862 c 1
 419 835 l 1
 301 929 l 1
 406 1048 535 1119 688 1142 c 0
 721 1147 754 1149 788 1149 c 0
 909 1149 1007 1122 1084 1068 c 0
 1117 1045 1142 1018 1161 987 c 0
 1198 924 1206 841 1185 740 c 1
 1087 279 l 1
 1063 168 1008 87 922 36 c 0
 870 5 811 -10 745 -10 c 0
 559 -10 487 88 529 283 c 1
 548 373 l 1
 533 359 509 350 477 346 c 0
 474 345 470 345 466 344 c 1
 431 347 l 1
 398 352 371 368 349 395 c 1
 310 445 311 516 353 607 c 0
 373 650 408 687 457 717 c 0
 494 740 534 752 577 753 c 0
 581 753 581 753 586 753 c 0
 639 752 681 734 710 698 c 0
 745 655 752 583 731 484 c 1
 689 283 l 1
EndSplineSet
EndChar
StartChar: uni0E09
Encoding: 131 3593 133
OldEncoding: 3593
Width: 1395
Flags: HW
Fore
1030 409 m 1
 1032 418 1054 520 1095 715 c 0
 1113 800 1108 860 1081 896 c 1
 1036 952 962 983 861 988 c 0
 851 989 841 989 832 989 c 0
 740 989 655 962 577 909 c 0
 556 894 537 879 520 862 c 1
 495 835 l 1
 376 929 l 1
 481 1048 611 1119 764 1142 c 0
 797 1147 830 1149 863 1149 c 0
 984 1149 1083 1122 1160 1068 c 0
 1193 1045 1218 1018 1236 987 c 0
 1274 924 1282 841 1261 740 c 1
 1198 446 l 1
 1263 445 1310 417 1337 362 c 0
 1358 319 1361 267 1348 205 c 0
 1335 142 1302 88 1249 43 c 1
 1213 14 1170 -4 1121 -9 c 0
 1114 -10 1107 -10 1100 -10 c 0
 1038 -10 999 18 983 75 c 0
 978 96 976 120 979 146 c 1
 993 227 l 1
 991 226 962 204 907 161 c 0
 767 52 656 -3 575 -3 c 0
 560 -3 547 -1 534 2 c 0
 515 6 499 14 484 25 c 0
 451 50 435 87 435 136 c 0
 436 164 442 204 453 256 c 2
 482 391 l 1
 467 377 444 368 412 364 c 0
 408 363 404 363 399 362 c 1
 366 365 l 1
 333 370 305 386 283 413 c 1
 244 463 245 534 286 625 c 1
 307 668 342 705 391 735 c 0
 428 758 468 770 510 771 c 0
 514 771 514 771 519 771 c 0
 573 770 615 752 644 716 c 0
 679 673 686 601 665 502 c 1
 613 256 l 1
 601 201 602 168 616 157 c 0
 622 154 l 2
 637 154 l 1
 672 160 762 216 907 322 c 0
 979 375 1020 404 1030 409 c 1
471 663 m 2
 440 663 412 648 387 617 c 0
 373 600 364 583 361 566 c 1
 359 559 l 1
 353 513 364 482 391 465 c 0
 401 459 413 456 427 456 c 1
 464 459 490 474 505 503 c 0
 513 518 520 538 525 564 c 0
 534 615 527 646 505 657 c 1
 483 662 l 1
 471 663 l 2
1164 328 m 1
 1137 200 l 1
 1130 164 1127 142 1128 133 c 0
 1130 113 1142 103 1164 103 c 0
 1186 103 1206 121 1224 156 c 0
 1231 171 1236 186 1239 202 c 0
 1248 242 1242 275 1222 301 c 0
 1208 319 1189 328 1164 328 c 1
EndSplineSet
EndChar
StartChar: uni0E0A
Encoding: 132 3594 134
OldEncoding: 3594
Width: 1390
Flags: HW
Fore
1036 921 m 1
 1101 930 1148 940 1177 949 c 0
 1209 960 1238 973 1263 990 c 0
 1311 1021 1344 1056 1361 1095 c 0
 1370 1114 1377 1136 1384 1163 c 1
 1389 1188 l 1
 1555 1188 l 1
 1550 1164 l 2
 1527 1053 1454 968 1333 909 c 0
 1291 888 1246 872 1197 861 c 1
 1264 802 l 2
 1281 787 1292 774 1299 765 c 0
 1335 714 1346 656 1333 592 c 2
 1267 278 l 1
 1260 248 1252 220 1242 195 c 0
 1199 90 1121 25 1008 1 c 1
 947 -8 l 1
 928 -9 909 -10 890 -10 c 0
 773 -10 695 27 656 101 c 0
 631 148 626 207 641 278 c 1
 704 575 l 2
 715 625 764 685 852 755 c 0
 865 766 876 791 884 830 c 1
 888 867 884 900 871 927 c 0
 854 962 821 986 771 998 c 0
 757 1001 743 1003 728 1003 c 2
 680 1000 l 1
 629 993 578 968 526 925 c 1
 539 931 554 934 571 934 c 0
 578 934 587 934 596 933 c 0
 640 928 672 900 691 850 c 0
 700 827 700 798 693 765 c 0
 683 718 663 675 632 634 c 0
 603 595 561 568 508 553 c 0
 488 548 468 545 448 545 c 0
 439 545 430 546 422 547 c 0
 369 553 330 582 304 635 c 0
 298 649 l 0
 286 684 287 735 301 804 c 0
 304 818 308 831 312 843 c 0
 334 911 374 972 433 1025 c 0
 440 1032 448 1038 455 1043 c 0
 542 1110 637 1145 739 1149 c 0
 755 1149 l 0
 823 1149 886 1130 943 1092 c 0
 963 1079 979 1064 991 1049 c 0
 1014 1020 1029 978 1036 921 c 1
1032 771 m 1
 983 731 l 1
 913 670 873 618 864 575 c 2
 801 278 l 1
 794 245 805 214 836 186 c 0
 861 163 891 151 924 150 c 0
 971 150 1015 167 1056 202 c 0
 1084 225 1101 251 1107 278 c 1
 1171 581 l 2
 1176 606 1168 639 1145 679 c 0
 1133 700 1119 719 1102 734 c 0
 1081 753 1057 766 1032 771 c 1
457 642 m 1
 483 641 l 1
 512 645 539 660 562 687 c 1
 563 690 565 692 567 695 c 0
 580 713 588 732 592 751 c 0
 595 766 596 780 593 793 c 0
 589 817 576 832 553 839 c 1
 525 841 l 1
 490 839 461 822 438 791 c 0
 434 786 430 780 427 773 c 0
 420 760 416 748 413 735 c 0
 410 724 410 713 411 703 c 1
 416 679 l 1
 424 658 438 645 457 642 c 1
EndSplineSet
EndChar
StartChar: uni0E0B
Encoding: 133 3595 135
OldEncoding: 3595
Width: 1390
Flags: HW
Fore
389 603 m 1
 415 603 l 1
 444 607 470 622 492 649 c 0
 496 653 496 653 499 656 c 0
 512 674 520 693 524 713 c 0
 527 728 528 742 525 754 c 0
 521 775 510 790 491 798 c 0
 485 800 l 2
 457 803 l 1
 421 800 392 784 370 753 c 0
 366 747 362 741 359 734 c 0
 352 721 347 709 344 696 c 0
 340 675 341 656 347 639 c 1
 356 619 370 607 389 603 c 1
1040 921 m 1
 1105 930 1152 940 1181 949 c 0
 1213 960 1242 973 1267 990 c 0
 1315 1021 1348 1056 1365 1095 c 0
 1374 1114 1381 1136 1388 1163 c 1
 1393 1188 l 1
 1559 1188 l 1
 1554 1164 l 2
 1531 1053 1458 968 1337 909 c 0
 1295 888 1250 872 1201 861 c 1
 1268 802 l 2
 1285 787 1296 774 1303 765 c 0
 1339 714 1350 656 1337 592 c 2
 1271 278 l 1
 1264 248 1256 220 1246 195 c 0
 1203 90 1125 25 1012 1 c 1
 951 -8 l 1
 932 -9 913 -10 894 -10 c 0
 777 -10 699 27 660 101 c 0
 635 148 630 207 645 278 c 1
 708 575 l 2
 719 625 769 685 858 754 c 0
 872 765 880 773 882 776 c 128
 885 779 887 786 889 796 c 0
 895 827 894 860 886 897 c 0
 880 923 865 950 840 979 c 1
 839 978 784 946 675 881 c 1
 555 963 l 1
 537 979 l 1
 516 966 494 943 471 908 c 1
 458 886 l 1
 471 893 486 896 503 896 c 0
 510 896 518 895 528 894 c 0
 572 889 604 861 623 812 c 0
 632 789 632 760 625 727 c 0
 615 680 595 636 564 595 c 0
 534 556 493 529 440 515 c 0
 420 510 400 507 379 507 c 0
 370 507 362 507 353 508 c 0
 301 515 262 544 236 596 c 0
 230 611 l 0
 217 646 218 697 233 765 c 0
 236 780 240 793 243 804 c 0
 265 871 307 940 369 1011 c 0
 412 1060 465 1100 530 1132 c 0
 548 1141 562 1146 573 1149 c 1
 573 1148 618 1112 709 1041 c 1
 876 1149 l 1
 915 1138 952 1111 986 1068 c 0
 993 1058 1001 1047 1008 1036 c 0
 1030 999 1041 960 1040 921 c 1
1036 771 m 1
 987 731 l 1
 917 670 877 618 868 575 c 2
 805 278 l 1
 798 245 809 214 840 186 c 0
 865 163 895 151 928 150 c 0
 975 150 1019 167 1060 202 c 0
 1088 225 1105 251 1111 278 c 1
 1175 581 l 2
 1180 606 1172 639 1149 679 c 0
 1137 700 1123 719 1106 734 c 0
 1085 753 1061 766 1036 771 c 1
EndSplineSet
EndChar
StartChar: uni0E0C
Encoding: 134 3596 136
OldEncoding: 3596
Width: 1750
Flags: HW
Fore
1064 657 m 2
 1086 761 1083 838 1055 887 c 0
 1046 903 1034 917 1019 930 c 0
 990 956 945 974 886 985 c 0
 869 988 853 989 838 989 c 0
 740 989 645 957 553 892 c 0
 525 872 499 850 475 825 c 1
 503 818 536 794 574 755 c 0
 609 720 627 689 629 663 c 1
 572 614 535 581 519 563 c 0
 485 526 462 491 451 459 c 0
 446 444 441 425 436 403 c 2
 429 369 l 1
 444 383 467 392 500 396 c 0
 503 397 507 397 511 397 c 2
 545 395 l 1
 578 390 606 374 627 347 c 0
 666 297 665 226 624 135 c 0
 604 92 569 56 520 25 c 0
 482 2 442 -10 400 -11 c 2
 391 -11 l 2
 337 -10 296 8 267 44 c 0
 232 87 224 159 245 258 c 1
 276 403 l 2
 288 460 308 507 336 546 c 0
 357 576 399 618 462 671 c 1
 443 701 407 731 354 762 c 0
 330 776 309 786 290 792 c 1
 317 855 366 917 437 979 c 0
 566 1092 711 1149 872 1149 c 0
 1017 1149 1124 1102 1191 1008 c 1
 1244 923 1257 811 1228 673 c 0
 1227 671 1208 583 1171 409 c 1
 1290 272 l 1
 1367 189 1427 148 1469 147 c 0
 1478 147 1487 149 1496 154 c 0
 1519 167 1537 201 1549 256 c 1
 1737 1139 l 1
 1897 1139 l 1
 1709 256 l 2
 1690 169 1667 108 1640 74 c 0
 1624 55 1604 39 1580 25 c 0
 1545 5 1509 -5 1474 -5 c 0
 1402 -5 1324 40 1240 129 c 1
 1143 235 l 2
 1135 243 l 1
 1112 146 l 1
 1089 78 1050 31 997 6 c 0
 973 -5 948 -10 923 -10 c 0
 876 -10 838 4 809 31 c 1
 798 43 l 1
 764 88 754 142 767 205 c 0
 780 267 806 319 844 362 c 1
 895 417 954 445 1019 446 c 1
 1064 657 l 2
1003 328 m 1
 963 328 929 307 902 264 c 1
 888 244 879 223 874 202 c 0
 866 163 870 133 885 114 c 0
 890 107 898 103 907 103 c 0
 938 103 959 124 969 166 c 1
 976 200 l 1
 1003 328 l 1
439 97 m 0
 470 97 498 112 524 143 c 0
 537 160 546 177 550 194 c 0
 551 197 551 199 551 201 c 0
 558 247 547 278 519 294 c 1
 509 301 497 304 483 304 c 1
 446 301 420 286 405 257 c 1
 393 222 l 2
 390 215 388 206 386 196 c 0
 377 145 384 114 405 103 c 0
 414 99 425 97 439 97 c 0
EndSplineSet
EndChar
StartChar: uni0E0D
Encoding: 135 3597 137
OldEncoding: 3597
Width: 1745
Flags: HW
Fore
856 -203 m 1
 867 -162 l 1
 887 -105 923 -62 976 -33 c 0
 1000 -20 1025 -12 1050 -9 c 1
 1087 -8 l 1
 1124 -10 1154 -25 1176 -53 c 0
 1195 -78 1204 -107 1203 -141 c 1
 1197 -174 l 1
 1183 -223 1155 -261 1112 -288 c 2
 1104 -293 l 1
 1112 -296 1126 -298 1145 -298 c 0
 1175 -298 1205 -294 1236 -285 c 0
 1336 -256 1407 -205 1449 -133 c 0
 1469 -100 1485 -60 1496 -13 c 1
 1612 -13 l 1
 1583 -146 1515 -249 1408 -323 c 0
 1371 -348 1330 -369 1287 -384 c 0
 1233 -404 1177 -414 1118 -414 c 0
 1024 -414 952 -390 903 -343 c 0
 864 -306 848 -259 856 -203 c 1
1038 -84 m 1
 1007 -89 982 -104 965 -131 c 0
 958 -141 953 -152 951 -164 c 0
 950 -169 949 -175 949 -181 c 0
 949 -209 962 -227 987 -236 c 0
 994 -239 1003 -241 1012 -241 c 0
 1016 -241 1020 -241 1024 -240 c 0
 1061 -235 1088 -218 1107 -189 c 0
 1113 -180 1117 -170 1119 -160 c 0
 1120 -157 1121 -153 1121 -149 c 0
 1122 -121 1111 -101 1087 -89 c 1
 1077 -85 1066 -83 1054 -83 c 2
 1038 -84 l 1
439 97 m 0
 470 97 498 112 524 143 c 0
 537 160 546 177 550 194 c 0
 551 197 551 199 551 201 c 0
 558 247 547 278 519 294 c 1
 509 301 497 304 483 304 c 1
 446 301 420 286 405 257 c 1
 393 222 l 2
 390 215 388 206 386 196 c 0
 377 145 384 114 405 103 c 0
 414 99 425 97 439 97 c 0
1228 673 m 1
 1150 310 l 1
 1135 237 1156 188 1215 163 c 0
 1235 154 1257 150 1281 150 c 0
 1285 150 l 0
 1350 151 1397 166 1427 193 c 0
 1455 219 1474 258 1485 310 c 1
 1662 1139 l 1
 1822 1139 l 1
 1631 241 l 2
 1616 172 1572 114 1498 65 c 0
 1423 16 1337 -9 1241 -10 c 1
 1186 -6 l 1
 1103 5 1042 40 1003 98 c 0
 974 143 966 193 977 249 c 1
 1064 657 l 1
 1087 762 1083 839 1054 888 c 0
 1047 901 1038 913 1027 924 c 1
 1019 930 l 2
 990 956 945 974 886 985 c 0
 869 988 853 989 838 989 c 0
 740 989 645 957 553 892 c 0
 525 872 499 850 475 825 c 1
 503 818 536 794 574 755 c 0
 609 720 627 689 629 663 c 1
 572 614 535 581 519 563 c 0
 485 526 462 491 451 459 c 0
 446 444 441 425 436 403 c 2
 429 369 l 1
 444 383 467 392 500 396 c 0
 503 397 507 397 511 397 c 2
 545 395 l 1
 578 390 606 374 627 347 c 0
 666 297 665 226 624 135 c 0
 604 92 569 56 520 25 c 0
 482 2 442 -10 400 -11 c 2
 391 -11 l 2
 337 -10 296 8 267 44 c 0
 232 87 224 159 245 258 c 1
 276 403 l 2
 288 460 308 507 336 546 c 0
 357 576 399 618 462 671 c 1
 443 701 407 731 354 762 c 0
 330 776 309 786 290 792 c 1
 317 855 366 917 437 979 c 0
 566 1092 711 1149 872 1149 c 0
 1017 1149 1124 1102 1191 1008 c 1
 1244 922 1257 810 1228 673 c 1
EndSplineSet
EndChar
StartChar: uni0E0E
Encoding: 136 3598 138
OldEncoding: 3598
Width: 1375
Flags: HW
Fore
282 98 m 0
 317 98 342 113 358 142 c 0
 365 155 372 174 377 197 c 0
 388 250 384 282 363 295 c 1
 342 303 l 1
 337 304 332 304 326 305 c 0
 288 305 257 285 233 245 c 0
 225 232 219 217 214 202 c 1
 211 177 l 1
 211 146 223 124 247 109 c 1
 257 102 269 98 282 98 c 0
1018 -209 m 1
 1203 658 l 1
 1221 740 1223 804 1210 849 c 0
 1201 882 1184 909 1159 931 c 0
 1130 957 1085 975 1025 986 c 0
 1008 989 992 990 977 990 c 0
 879 990 784 958 692 893 c 0
 664 873 638 851 614 826 c 1
 642 819 675 795 713 756 c 0
 748 721 766 690 769 664 c 1
 711 615 674 582 658 564 c 0
 624 527 601 492 590 459 c 0
 585 444 580 425 575 404 c 1
 545 259 l 1
 524 160 486 89 432 45 c 0
 388 9 339 -9 284 -10 c 1
 240 -7 l 1
 215 -2 192 9 171 26 c 0
 135 56 116 93 113 136 c 1
 111 227 140 298 200 348 c 0
 242 382 285 399 330 399 c 0
 333 399 335 399 338 398 c 0
 371 397 395 387 408 370 c 1
 415 404 l 1
 428 461 448 509 475 547 c 0
 496 577 538 619 601 672 c 1
 582 702 547 732 494 763 c 0
 469 777 448 787 429 793 c 1
 456 856 505 918 576 980 c 0
 705 1093 850 1150 1011 1150 c 0
 1156 1150 1263 1103 1330 1009 c 1
 1384 923 1396 811 1367 674 c 2
 1136 -410 l 1
 976 -410 l 1
 937 -339 890 -278 833 -227 c 1
 821 -215 809 -205 797 -196 c 1
 767 -239 723 -283 666 -328 c 1
 641 -346 l 2
 582 -386 516 -408 442 -413 c 1
 414 -413 l 2
 355 -412 315 -394 294 -357 c 1
 281 -336 279 -304 288 -260 c 0
 295 -230 305 -203 319 -180 c 0
 345 -135 387 -94 444 -56 c 0
 483 -29 536 -13 603 -7 c 1
 654 -7 l 1
 694 -10 731 -19 766 -34 c 1
 896 140 l 1
 995 105 l 1
 865 -76 l 1
 904 -97 948 -133 995 -182 c 0
 1005 -193 1013 -202 1018 -209 c 1
429 -210 m 0
 416 -234 413 -252 419 -264 c 0
 427 -281 443 -289 467 -289 c 0
 476 -289 486 -288 497 -286 c 0
 520 -282 548 -271 583 -253 c 1
 612 -240 640 -219 667 -191 c 0
 681 -176 692 -162 701 -147 c 1
 689 -130 660 -121 613 -121 c 2
 590 -121 l 2
 554 -122 516 -134 475 -159 c 1
 456 -172 441 -189 429 -210 c 0
EndSplineSet
EndChar
StartChar: uni0E0F
Encoding: 137 3599 139
OldEncoding: 3599
Width: 1375
Flags: HW
Fore
282 98 m 0
 317 98 342 113 358 142 c 0
 365 155 372 174 377 197 c 0
 388 250 384 282 363 295 c 1
 342 303 l 1
 337 304 332 304 326 305 c 0
 288 305 257 285 233 245 c 0
 225 232 219 217 214 202 c 1
 211 177 l 1
 211 146 223 124 247 109 c 1
 257 102 269 98 282 98 c 0
1019 -209 m 1
 1203 658 l 1
 1221 740 1223 804 1210 849 c 0
 1201 882 1184 909 1159 931 c 0
 1130 957 1085 975 1025 986 c 0
 1008 989 992 990 977 990 c 0
 879 990 784 958 692 893 c 0
 664 873 638 851 614 826 c 1
 642 819 675 795 713 756 c 0
 748 721 766 690 769 664 c 1
 711 615 674 582 658 564 c 0
 624 527 601 492 590 459 c 0
 585 444 580 425 575 404 c 1
 545 259 l 1
 524 160 486 89 432 45 c 0
 388 9 339 -9 284 -10 c 1
 240 -7 l 1
 215 -2 192 9 171 26 c 0
 135 56 116 93 113 136 c 1
 111 227 140 298 200 348 c 0
 242 382 285 399 330 399 c 0
 333 399 335 399 338 398 c 0
 371 397 395 387 408 370 c 1
 415 404 l 1
 428 461 448 509 475 547 c 0
 496 577 538 619 601 672 c 1
 582 702 547 732 494 763 c 0
 469 777 448 787 429 793 c 1
 456 856 505 918 576 980 c 0
 705 1093 850 1150 1011 1150 c 0
 1156 1150 1263 1103 1330 1009 c 1
 1384 923 1396 811 1367 674 c 2
 1136 -410 l 1
 976 -410 l 1
 949 -360 918 -311 883 -263 c 0
 878 -257 878 -257 874 -252 c 1
 869 -256 841 -278 789 -317 c 0
 768 -333 750 -348 735 -362 c 1
 723 -313 705 -271 680 -236 c 0
 668 -218 656 -207 645 -203 c 1
 614 -249 568 -294 508 -338 c 0
 496 -346 l 0
 437 -386 371 -408 297 -413 c 1
 269 -413 l 2
 210 -412 170 -394 149 -357 c 1
 136 -336 134 -304 143 -260 c 0
 150 -230 160 -203 174 -180 c 0
 200 -135 242 -94 299 -56 c 0
 338 -29 391 -13 458 -7 c 1
 509 -7 l 1
 549 -10 586 -19 621 -34 c 1
 751 140 l 1
 850 105 l 1
 720 -76 l 1
 747 -104 764 -124 771 -137 c 0
 774 -144 777 -150 778 -156 c 1
 882 -64 l 1
 895 -53 908 -45 919 -38 c 1
 939 -57 968 -106 1006 -183 c 2
 1019 -209 l 1
284 -210 m 0
 271 -234 268 -252 274 -264 c 0
 282 -281 298 -289 322 -289 c 0
 331 -289 341 -288 352 -286 c 0
 375 -282 403 -271 438 -253 c 1
 467 -240 495 -219 522 -191 c 0
 536 -176 547 -162 556 -147 c 1
 544 -130 515 -121 468 -121 c 2
 445 -121 l 2
 409 -122 371 -134 330 -159 c 1
 311 -172 296 -189 284 -210 c 0
EndSplineSet
EndChar
StartChar: uni0E10
Encoding: 138 3600 140
OldEncoding: 3600
Width: 1130
Flags: HW
Fore
414 589 m 0
 383 589 355 574 329 543 c 0
 316 526 307 509 303 492 c 1
 302 485 l 2
 295 439 306 408 334 391 c 0
 344 385 356 382 370 382 c 1
 407 385 433 400 448 429 c 0
 455 444 462 464 468 490 c 1
 476 541 469 572 447 583 c 1
 425 588 l 2
 422 589 418 589 414 589 c 0
869 529 m 2
 880 583 839 625 744 656 c 0
 623 695 456 730 241 762 c 1
 270 829 311 894 364 957 c 0
 414 1016 476 1063 549 1099 c 0
 617 1132 698 1149 793 1149 c 0
 870 1149 938 1134 998 1103 c 0
 1047 1078 1106 1065 1174 1065 c 0
 1200 1065 1223 1067 1244 1072 c 1
 1172 917 l 1
 1155 913 1135 911 1113 912 c 0
 1051 912 999 922 958 941 c 0
 955 942 953 943 951 944 c 0
 884 980 816 998 748 998 c 0
 739 998 729 998 719 997 c 0
 658 993 602 967 549 918 c 0
 533 903 520 887 509 872 c 1
 643 849 l 1
 784 815 885 780 945 744 c 0
 1022 698 1053 641 1039 574 c 1
 976 279 l 1
 952 168 897 87 811 36 c 0
 758 5 699 -10 634 -10 c 0
 447 -10 375 88 417 283 c 1
 424 317 l 1
 409 303 386 294 354 290 c 0
 342 288 l 1
 308 291 l 1
 275 296 247 312 226 339 c 0
 186 389 187 460 229 551 c 0
 249 594 284 631 333 661 c 0
 370 684 410 696 453 697 c 0
 457 697 457 697 462 697 c 0
 515 696 557 678 586 642 c 0
 621 599 628 527 607 428 c 1
 577 283 l 1
 558 194 588 150 668 150 c 0
 744 150 792 189 812 268 c 1
 814 271 815 275 816 279 c 1
 869 529 l 2
702 -329 m 1
 716 -262 l 1
 704 -271 685 -276 659 -276 c 0
 653 -276 653 -276 648 -276 c 0
 622 -273 600 -263 582 -246 c 0
 561 -227 553 -201 560 -170 c 0
 563 -160 566 -149 571 -138 c 0
 573 -133 575 -129 578 -124 c 0
 591 -97 617 -74 654 -55 c 0
 681 -41 708 -34 735 -34 c 0
 786 -34 826 -45 853 -66 c 0
 880 -86 891 -118 887 -163 c 0
 886 -178 882 -198 877 -223 c 2
 812 -530 l 1
 662 -530 l 1
 660 -478 646 -443 620 -424 c 0
 611 -417 599 -413 586 -413 c 0
 560 -413 528 -434 489 -475 c 0
 473 -492 459 -510 447 -529 c 1
 431 -474 l 1
 422 -449 405 -427 379 -406 c 1
 337 -448 299 -478 266 -497 c 1
 225 -517 180 -529 132 -533 c 1
 91 -534 l 1
 44 -531 9 -512 -14 -478 c 0
 -24 -463 -26 -441 -20 -413 c 0
 -17 -400 -13 -387 -7 -376 c 0
 -1 -366 l 0
 18 -337 44 -314 77 -299 c 0
 84 -296 90 -294 96 -292 c 0
 131 -277 174 -269 223 -269 c 0
 269 -269 313 -277 355 -294 c 1
 359 -291 l 1
 368 -282 390 -254 425 -208 c 1
 509 -230 l 1
 433 -324 l 1
 453 -338 468 -351 477 -364 c 0
 478 -365 479 -367 479 -368 c 1
 536 -312 580 -284 613 -284 c 0
 654 -284 684 -299 702 -329 c 1
711 -95 m 0
 693 -95 675 -105 656 -124 c 0
 646 -134 640 -144 638 -154 c 1
 636 -177 l 1
 638 -200 650 -215 672 -220 c 0
 675 -221 679 -222 684 -222 c 0
 716 -219 737 -202 748 -172 c 1
 751 -157 l 0
 759 -121 749 -101 721 -96 c 0
 718 -95 714 -95 711 -95 c 0
63 -399 m 0
 59 -406 56 -412 55 -418 c 0
 52 -427 53 -435 58 -442 c 1
 71 -455 84 -461 99 -461 c 0
 103 -461 103 -461 106 -461 c 0
 141 -461 178 -453 217 -437 c 0
 232 -432 256 -413 291 -380 c 0
 298 -373 304 -367 309 -362 c 1
 292 -350 260 -344 212 -344 c 0
 175 -344 139 -351 106 -364 c 1
 84 -376 70 -388 63 -399 c 0
EndSplineSet
EndChar
StartChar: uni0E11
Encoding: 139 3601 141
OldEncoding: 3601
Width: 1700
Flags: HW
Fore
431 603 m 1
 457 603 l 1
 486 607 512 622 534 649 c 0
 538 653 538 653 541 656 c 0
 554 674 562 693 566 713 c 0
 569 728 570 742 567 754 c 0
 563 775 552 790 533 798 c 0
 527 800 l 2
 499 803 l 1
 463 800 434 784 412 753 c 0
 408 747 404 741 401 734 c 0
 394 721 389 709 386 696 c 0
 382 675 383 656 389 639 c 1
 398 619 412 607 431 603 c 1
636 0 m 1
 677 193 677 193 759 587 c 0
 770 637 819 697 908 767 c 0
 921 778 930 794 933 814 c 128
 936 836 935 863 928 897 c 0
 922 923 907 950 882 979 c 1
 881 978 826 946 717 881 c 1
 597 963 l 1
 579 979 l 1
 558 966 536 943 513 908 c 1
 500 886 l 1
 513 893 528 896 545 896 c 0
 552 896 560 895 570 894 c 0
 614 889 646 861 665 812 c 0
 674 789 674 760 667 727 c 0
 657 680 637 636 606 595 c 0
 576 556 535 529 482 515 c 0
 462 510 442 507 421 507 c 0
 412 507 404 507 395 508 c 0
 343 515 304 544 278 596 c 0
 272 611 l 0
 259 646 260 697 275 765 c 0
 278 780 282 793 285 804 c 0
 307 871 349 940 411 1011 c 0
 454 1060 507 1100 572 1132 c 0
 590 1141 604 1146 615 1149 c 1
 615 1148 660 1112 751 1041 c 1
 918 1149 l 1
 955 1138 992 1110 1029 1065 c 0
 1036 1056 1043 1046 1050 1036 c 0
 1077 995 1091 936 1094 859 c 0
 1095 836 1094 815 1091 797 c 0
 1090 792 1089 787 1088 783 c 1
 1038 743 l 1
 968 682 928 630 919 587 c 1
 851 263 l 1
 1342 990 l 1
 1393 1068 1456 1115 1533 1131 c 0
 1548 1134 1564 1136 1579 1136 c 0
 1598 1135 1616 1133 1632 1128 c 0
 1693 1110 1726 1067 1733 1000 c 0
 1736 973 1734 943 1727 910 c 1
 1534 0 l 1
 1374 0 l 1
 1526 719 l 1
 1545 809 1550 864 1539 885 c 1
 1531 894 l 1
 1521 898 l 1
 1501 899 l 1
 1470 895 1438 869 1405 821 c 2
 1388 796 l 1
 838 0 l 1
 636 0 l 1
EndSplineSet
EndChar
StartChar: uni0E12
Encoding: 140 3602 142
OldEncoding: 3602
Width: 1850
Flags: HW
Fore
1149 734 m 1
 1161 793 1148 851 1110 906 c 0
 1085 942 1057 966 1024 979 c 1
 826 863 l 1
 687 979 l 1
 633 965 583 937 536 895 c 0
 518 879 503 862 491 845 c 0
 464 804 442 748 427 676 c 0
 418 631 413 589 413 551 c 1
 417 266 l 1
 416 241 415 218 414 197 c 1
 459 212 504 240 550 279 c 0
 583 308 606 337 619 365 c 1
 612 363 603 362 594 362 c 0
 534 362 495 386 478 434 c 1
 465 461 463 495 472 536 c 0
 481 574 496 609 517 641 c 1
 565 707 630 742 711 745 c 1
 744 743 l 1
 790 734 823 710 842 670 c 0
 846 663 849 655 851 647 c 0
 860 612 860 571 850 523 c 0
 847 508 842 493 837 477 c 0
 790 332 692 205 545 95 c 0
 488 52 436 21 389 0 c 1
 204 0 l 1
 226 108 l 1
 241 178 249 292 248 450 c 1
 246 541 253 625 270 702 c 0
 279 747 292 789 308 826 c 0
 358 939 432 1025 531 1084 c 0
 592 1121 656 1142 723 1149 c 1
 862 1033 l 1
 1060 1149 l 1
 1274 1099 1353 942 1296 677 c 1
 1239 409 l 1
 1244 406 1272 374 1324 314 c 0
 1418 205 1483 151 1518 151 c 0
 1523 151 1527 152 1531 154 c 0
 1554 165 1572 199 1584 256 c 2
 1772 1139 l 1
 1932 1139 l 1
 1744 256 l 2
 1725 169 1702 108 1675 74 c 0
 1659 55 1639 39 1615 25 c 0
 1581 6 1547 -4 1513 -4 c 0
 1436 -4 1356 49 1273 154 c 2
 1204 242 l 1
 1203 243 l 1
 1180 146 l 1
 1157 78 1118 31 1065 6 c 0
 1041 -5 1016 -10 991 -10 c 0
 944 -10 906 4 877 31 c 1
 866 43 l 1
 832 88 822 142 835 205 c 0
 848 267 874 319 912 362 c 1
 963 417 1022 445 1087 446 c 1
 1149 734 l 1
1071 328 m 1
 1031 328 997 307 970 264 c 1
 956 244 947 223 942 202 c 0
 934 163 938 133 953 114 c 0
 958 107 966 103 975 103 c 0
 1006 103 1027 124 1037 166 c 1
 1044 200 l 1
 1071 328 l 1
681 647 m 1
 663 646 l 1
 636 639 613 622 592 595 c 0
 583 582 576 567 571 552 c 1
 563 516 l 1
 560 473 575 449 608 444 c 0
 611 443 613 443 616 443 c 2
 638 445 l 1
 670 453 694 477 710 517 c 1
 714 525 717 533 719 542 c 1
 727 585 l 1
 729 620 714 641 681 647 c 1
EndSplineSet
EndChar
StartChar: uni0E13
Encoding: 141 3603 143
OldEncoding: 3603
Width: 1900
Flags: HW
Fore
1067 657 m 2
 1076 700 1082 737 1083 768 c 0
 1085 839 1065 893 1023 930 c 0
 993 956 948 974 889 985 c 0
 872 988 856 989 841 989 c 0
 743 989 648 957 557 892 c 0
 528 872 502 850 478 825 c 1
 506 818 539 794 577 755 c 0
 612 720 630 689 632 663 c 1
 575 614 538 581 522 563 c 0
 489 526 466 491 455 459 c 0
 449 444 444 425 439 403 c 1
 433 369 l 1
 447 383 470 392 503 396 c 0
 507 397 511 397 514 397 c 2
 548 395 l 1
 582 390 610 374 631 347 c 0
 670 297 669 226 628 135 c 0
 608 92 573 56 524 25 c 0
 485 2 445 -10 403 -11 c 2
 395 -11 l 2
 341 -10 300 8 271 44 c 1
 235 87 227 159 248 258 c 1
 279 403 l 2
 291 460 311 507 339 546 c 0
 360 576 402 618 465 671 c 1
 446 701 410 731 357 762 c 0
 333 776 312 786 293 792 c 1
 320 855 369 917 440 979 c 0
 570 1092 715 1149 875 1149 c 0
 1020 1149 1127 1102 1194 1008 c 1
 1247 922 1260 810 1231 673 c 1
 1142 256 l 2
 1132 209 1133 178 1144 161 c 0
 1146 158 1148 156 1151 154 c 0
 1158 149 1166 147 1175 147 c 0
 1219 147 1305 202 1433 313 c 0
 1502 372 1540 404 1547 409 c 1
 1558 460 1610 703 1702 1139 c 1
 1862 1139 l 1
 1714 446 l 1
 1780 445 1827 417 1854 362 c 0
 1875 319 1878 267 1865 205 c 0
 1852 142 1819 88 1766 43 c 1
 1730 14 1687 -4 1637 -9 c 0
 1630 -10 1623 -10 1617 -10 c 0
 1555 -10 1516 18 1500 75 c 0
 1495 96 1493 120 1495 146 c 1
 1513 243 l 1
 1498 233 1457 201 1391 148 c 0
 1301 74 1229 28 1174 9 c 0
 1149 -0 1125 -5 1102 -5 c 0
 1069 -5 1039 5 1013 25 c 0
 980 50 963 87 964 136 c 0
 965 164 971 204 982 256 c 1
 1067 657 l 2
1681 328 m 1
 1654 200 l 1
 1647 164 1643 142 1644 133 c 0
 1646 113 1658 103 1681 103 c 0
 1702 103 1722 121 1740 156 c 0
 1747 171 1753 186 1756 202 c 0
 1765 242 1759 275 1739 301 c 0
 1725 319 1706 328 1681 328 c 1
442 97 m 0
 473 97 501 112 527 143 c 0
 541 160 550 177 554 194 c 0
 555 197 555 199 554 201 c 1
 561 247 550 278 523 294 c 0
 512 301 500 304 486 304 c 1
 449 301 424 286 409 257 c 1
 396 222 l 2
 393 215 391 206 389 196 c 0
 381 145 388 114 409 103 c 0
 417 99 428 97 442 97 c 0
EndSplineSet
EndChar
StartChar: uni0E14
Encoding: 142 3604 144
OldEncoding: 3604
Width: 1330
Flags: HW
Fore
699 647 m 1
 681 646 l 1
 654 639 631 622 611 595 c 0
 601 582 594 567 589 552 c 1
 581 516 l 1
 578 473 593 449 626 444 c 0
 629 443 631 443 634 443 c 2
 656 445 l 1
 688 453 712 477 728 517 c 1
 732 525 735 533 737 542 c 1
 745 585 l 1
 747 620 732 641 699 647 c 1
407 0 m 1
 222 0 l 1
 244 108 l 1
 259 178 267 292 266 450 c 1
 264 541 270 619 284 683 c 0
 293 724 305 764 321 801 c 0
 374 920 465 1011 595 1075 c 0
 694 1124 797 1148 904 1149 c 1
 975 1145 l 1
 1110 1131 1207 1079 1267 988 c 0
 1324 901 1338 789 1309 652 c 1
 1171 0 l 1
 1011 0 l 1
 1161 708 l 2
 1178 786 1155 853 1093 908 c 0
 1038 957 971 984 892 989 c 0
 874 989 l 0
 804 989 729 970 650 932 c 0
 581 900 533 863 504 820 c 0
 477 780 456 729 443 668 c 0
 435 629 431 590 431 551 c 1
 435 266 l 1
 434 241 433 218 432 197 c 1
 477 212 522 240 568 279 c 0
 601 308 624 337 637 365 c 1
 630 363 621 362 612 362 c 0
 553 362 514 386 496 434 c 1
 483 461 481 495 490 536 c 0
 499 574 514 609 535 641 c 1
 583 707 648 742 729 745 c 1
 762 743 l 1
 808 734 841 710 860 670 c 0
 864 663 867 655 869 647 c 0
 878 612 878 571 868 523 c 0
 865 508 860 493 855 477 c 0
 808 332 710 205 563 95 c 0
 506 52 454 21 407 0 c 1
EndSplineSet
EndChar
StartChar: uni0E15
Encoding: 143 3605 145
OldEncoding: 3605
Width: 1330
Flags: HW
Fore
699 647 m 1
 681 646 l 1
 654 639 631 622 611 595 c 0
 601 582 594 567 589 552 c 1
 581 516 l 1
 578 473 593 449 626 444 c 0
 629 443 631 443 634 443 c 2
 656 445 l 1
 688 453 712 477 728 517 c 1
 732 525 735 533 737 542 c 1
 745 585 l 1
 747 620 732 641 699 647 c 1
407 0 m 1
 222 0 l 1
 244 108 l 1
 259 178 267 292 266 450 c 1
 264 541 271 625 288 702 c 0
 297 747 310 789 326 826 c 0
 376 939 450 1025 549 1084 c 0
 610 1121 674 1142 741 1149 c 1
 880 1033 l 1
 1078 1149 l 1
 1292 1099 1371 942 1314 677 c 1
 1171 0 l 1
 1011 0 l 1
 1167 734 l 1
 1179 793 1166 851 1128 906 c 0
 1103 942 1075 966 1042 979 c 1
 844 863 l 1
 705 979 l 1
 651 965 601 937 554 895 c 0
 536 879 521 862 509 845 c 0
 482 804 460 748 445 676 c 0
 436 631 431 589 431 551 c 1
 435 266 l 1
 434 241 433 218 432 197 c 1
 477 212 522 240 568 279 c 0
 601 308 624 337 637 365 c 1
 630 363 621 362 612 362 c 0
 553 362 514 386 496 434 c 1
 483 461 481 495 490 536 c 0
 499 574 514 609 535 641 c 1
 583 707 648 742 729 745 c 1
 762 743 l 1
 808 734 841 710 860 670 c 0
 864 663 867 655 869 647 c 0
 878 612 878 571 868 523 c 0
 865 508 860 493 855 477 c 0
 808 332 710 205 563 95 c 0
 506 52 454 21 407 0 c 1
EndSplineSet
EndChar
StartChar: uni0E16
Encoding: 144 3606 146
OldEncoding: 3606
Width: 1240
Flags: HW
Fore
1085 0 m 1
 925 0 l 1
 1064 657 l 2
 1086 761 1083 838 1055 887 c 0
 1046 903 1034 917 1019 930 c 0
 990 956 945 974 886 985 c 0
 869 988 853 989 838 989 c 0
 740 989 645 957 553 892 c 0
 525 872 499 850 475 825 c 1
 503 818 536 794 574 755 c 0
 609 720 627 689 629 663 c 1
 572 614 535 581 519 563 c 0
 485 526 462 491 451 459 c 0
 446 444 441 425 436 403 c 2
 429 369 l 1
 444 383 467 392 500 396 c 0
 503 397 507 397 511 397 c 2
 545 395 l 1
 578 390 606 374 627 347 c 0
 666 297 665 226 624 135 c 0
 604 92 569 56 520 25 c 0
 482 2 442 -10 400 -11 c 2
 391 -11 l 2
 337 -10 296 8 267 44 c 0
 232 87 224 159 245 258 c 1
 276 403 l 2
 288 460 308 507 336 546 c 0
 357 576 399 618 462 671 c 1
 443 701 407 731 354 762 c 0
 330 776 309 786 290 792 c 1
 317 855 366 917 437 979 c 0
 566 1092 711 1149 872 1149 c 0
 1017 1149 1124 1102 1191 1008 c 1
 1244 922 1257 810 1228 673 c 1
 1085 0 l 1
439 97 m 0
 470 97 498 112 524 143 c 0
 537 160 546 177 550 194 c 0
 551 197 551 199 551 201 c 0
 558 247 547 278 519 294 c 1
 509 301 497 304 483 304 c 1
 446 301 420 286 405 257 c 1
 393 222 l 2
 390 215 388 206 386 196 c 0
 377 145 384 114 405 103 c 0
 414 99 425 97 439 97 c 0
EndSplineSet
EndChar
StartChar: uni0E17
Encoding: 145 3607 147
OldEncoding: 3607
Width: 1350
Flags: HW
Fore
470 1042 m 0
 439 1042 411 1027 385 996 c 0
 372 979 363 962 359 945 c 1
 358 938 l 2
 351 892 362 861 390 844 c 0
 400 838 412 835 426 835 c 1
 463 838 489 853 504 882 c 0
 512 897 519 917 524 943 c 1
 532 994 525 1025 504 1036 c 0
 495 1040 484 1042 470 1042 c 0
318 0 m 1
 480 770 l 1
 466 756 443 747 410 743 c 0
 406 742 402 742 398 742 c 2
 365 744 l 1
 331 749 303 765 282 792 c 0
 243 842 244 913 285 1004 c 1
 306 1047 340 1084 389 1114 c 0
 427 1137 467 1149 509 1150 c 0
 513 1150 513 1150 518 1150 c 0
 572 1149 613 1131 642 1095 c 0
 677 1052 685 980 664 881 c 1
 533 263 l 1
 1024 990 l 1
 1075 1068 1138 1115 1215 1131 c 0
 1230 1134 1246 1136 1261 1136 c 0
 1280 1135 1298 1133 1314 1128 c 0
 1375 1110 1408 1067 1415 1000 c 0
 1418 973 1416 943 1409 910 c 1
 1216 0 l 1
 1056 0 l 1
 1208 719 l 1
 1231 824 l 1
 1237 867 1228 891 1203 898 c 1
 1183 900 l 1
 1152 897 1116 866 1077 808 c 1
 1070 796 l 1
 520 0 l 1
 318 0 l 1
EndSplineSet
EndChar
StartChar: uni0E18
Encoding: 146 3608 148
OldEncoding: 3608
Width: 1250
Flags: HW
Fore
966 480 m 1
 967 489 968 497 969 505 c 0
 971 560 939 601 872 626 c 0
 869 627 844 635 797 648 c 0
 603 703 439 741 304 761 c 1
 333 828 374 893 427 956 c 0
 476 1015 538 1062 612 1098 c 0
 651 1117 693 1131 738 1139 c 0
 774 1145 813 1148 856 1148 c 0
 933 1148 1001 1133 1061 1102 c 0
 1110 1077 1169 1064 1236 1064 c 0
 1263 1064 1286 1066 1307 1071 c 1
 1235 916 l 1
 1229 915 1222 914 1215 913 c 2
 1163 911 l 1
 1100 913 1051 924 1014 943 c 0
 955 974 897 992 838 996 c 1
 782 996 l 1
 752 994 721 985 689 970 c 0
 639 945 600 912 572 871 c 1
 608 863 l 2
 855 812 1006 768 1063 729 c 0
 1073 722 1082 715 1090 708 c 1
 1113 683 l 1
 1142 644 1149 589 1134 518 c 1
 1090 314 l 2
 1065 195 1013 110 936 59 c 0
 865 13 760 -10 621 -10 c 0
 594 -10 568 -9 545 -6 c 0
 351 13 275 120 316 314 c 2
 388 650 l 1
 548 650 l 1
 476 314 l 1
 467 269 475 233 502 205 c 0
 535 170 586 152 655 150 c 0
 663 150 l 0
 699 150 735 155 772 166 c 0
 862 192 915 241 930 314 c 1
 966 480 l 1
EndSplineSet
EndChar
StartChar: uni0E19
Encoding: 147 3609 149
OldEncoding: 3609
Width: 1400
Flags: HW
Fore
517 1042 m 0
 486 1042 458 1027 432 996 c 0
 419 979 410 962 406 945 c 1
 405 938 l 2
 398 892 409 861 437 844 c 0
 447 838 459 835 473 835 c 1
 510 838 536 853 551 882 c 0
 559 897 566 917 571 943 c 1
 579 994 572 1025 551 1036 c 1
 529 1041 l 2
 525 1042 521 1042 517 1042 c 0
418 256 m 1
 527 770 l 1
 513 756 490 747 457 743 c 0
 453 742 449 742 445 742 c 2
 412 744 l 1
 378 749 350 765 329 792 c 0
 290 842 291 913 332 1004 c 1
 353 1047 387 1084 436 1114 c 0
 474 1137 514 1149 556 1150 c 0
 560 1150 560 1150 565 1150 c 0
 619 1149 660 1131 689 1095 c 0
 724 1052 732 980 711 881 c 1
 578 256 l 1
 566 201 569 167 587 154 c 0
 594 149 602 147 613 147 c 0
 676 148 820 229 1045 391 c 0
 1063 404 1063 404 1070 409 c 1
 1226 1139 l 1
 1386 1139 l 1
 1244 475 l 1
 1309 474 1356 446 1384 391 c 1
 1403 350 1406 296 1393 229 c 1
 1378 169 l 1
 1364 128 1344 93 1318 66 c 0
 1275 22 1227 -3 1173 -8 c 0
 1162 -9 1151 -10 1140 -10 c 0
 1078 -10 1039 18 1023 75 c 0
 1018 96 1016 120 1019 146 c 1
 1036 243 l 1
 863 125 l 1
 730 39 625 -4 546 -5 c 0
 521 -5 498 -0 477 9 c 0
 468 13 458 18 449 25 c 0
 416 50 400 87 400 136 c 0
 401 164 407 204 418 256 c 1
1204 328 m 1
 1177 200 l 1
 1170 164 1167 142 1168 133 c 0
 1170 113 1182 103 1204 103 c 0
 1226 103 1246 121 1264 156 c 0
 1271 171 1276 186 1279 202 c 0
 1288 242 1282 275 1262 301 c 0
 1248 319 1229 328 1204 328 c 1
EndSplineSet
EndChar
StartChar: uni0E1A
Encoding: 148 3610 150
OldEncoding: 3610
Width: 1300
Flags: HW
Fore
481 1042 m 0
 450 1042 422 1027 396 996 c 0
 383 979 374 962 370 945 c 1
 369 938 l 2
 362 892 373 861 401 844 c 0
 411 838 423 835 437 835 c 1
 474 838 500 853 515 882 c 0
 523 897 530 917 535 943 c 1
 543 994 536 1025 515 1036 c 1
 493 1041 l 2
 489 1042 485 1042 481 1042 c 0
560 339 m 2
 539 242 574 182 663 160 c 0
 688 154 719 151 754 150 c 1
 821 152 l 1
 946 164 1024 216 1056 308 c 0
 1059 318 1062 328 1065 339 c 1
 1235 1139 l 1
 1395 1139 l 1
 1211 273 l 2
 1183 142 1102 57 967 18 c 0
 902 -1 818 -10 715 -10 c 0
 562 -10 460 27 410 101 c 0
 379 146 371 204 386 273 c 1
 491 770 l 1
 477 756 454 747 421 743 c 0
 417 742 413 742 409 742 c 2
 376 744 l 1
 342 749 314 765 293 792 c 0
 254 842 255 913 296 1004 c 1
 317 1047 351 1084 400 1114 c 0
 438 1137 478 1149 520 1150 c 0
 524 1150 524 1150 529 1150 c 0
 583 1149 624 1131 653 1095 c 0
 688 1052 696 980 675 881 c 1
 560 339 l 2
EndSplineSet
EndChar
StartChar: uni0E1B
Encoding: 149 3611 151
OldEncoding: 3611
Width: 1300
Flags: HW
Fore
488 1042 m 0
 457 1042 429 1027 403 996 c 0
 390 979 381 962 377 945 c 1
 376 938 l 2
 369 892 380 861 408 844 c 0
 418 838 430 835 444 835 c 1
 481 838 507 853 522 882 c 0
 530 897 537 917 542 943 c 1
 550 994 543 1025 522 1036 c 1
 500 1041 l 2
 496 1042 492 1042 488 1042 c 0
567 339 m 2
 546 242 581 182 670 160 c 0
 695 154 726 151 761 150 c 1
 828 152 l 1
 953 164 1031 216 1063 308 c 0
 1066 318 1069 328 1072 339 c 1
 1314 1480 l 1
 1474 1480 l 1
 1218 273 l 2
 1190 142 1109 57 974 18 c 0
 909 -1 825 -10 722 -10 c 0
 569 -10 467 27 417 101 c 0
 386 146 378 204 393 273 c 1
 498 770 l 1
 484 756 461 747 428 743 c 0
 424 742 420 742 416 742 c 2
 383 744 l 1
 349 749 321 765 300 792 c 0
 261 842 262 913 303 1004 c 1
 324 1047 358 1084 407 1114 c 0
 445 1137 485 1149 527 1150 c 0
 531 1150 531 1150 536 1150 c 0
 590 1149 631 1131 660 1095 c 0
 695 1052 703 980 682 881 c 1
 567 339 l 2
EndSplineSet
EndChar
StartChar: uni0E1C
Encoding: 150 3612 152
OldEncoding: 3612
Width: 1200
Flags: HW
Fore
583 1042 m 0
 548 1042 523 1027 508 998 c 1
 500 985 493 966 488 943 c 0
 477 890 481 858 502 845 c 0
 511 840 523 836 539 835 c 1
 577 835 608 855 633 895 c 1
 640 908 646 923 651 938 c 1
 654 963 l 1
 654 994 642 1016 619 1031 c 0
 608 1038 596 1042 583 1042 c 0
186 248 m 1
 321 881 l 1
 342 980 379 1052 433 1095 c 0
 478 1131 527 1149 581 1150 c 1
 625 1147 l 1
 650 1142 673 1131 694 1114 c 0
 731 1084 750 1047 752 1004 c 0
 755 913 726 842 665 792 c 0
 623 758 580 741 535 741 c 0
 532 741 530 741 527 742 c 0
 494 743 471 753 457 770 c 1
 346 248 l 2
 339 217 347 190 370 167 c 0
 386 150 404 142 425 142 c 0
 464 142 498 158 528 189 c 1
 544 207 554 227 559 248 c 2
 655 698 l 1
 815 698 l 1
 719 248 l 1
 712 215 723 188 752 165 c 0
 771 150 792 142 817 142 c 0
 851 142 881 159 907 193 c 0
 920 210 928 229 932 248 c 2
 1122 1139 l 1
 1282 1139 l 1
 1092 248 l 2
 1071 151 1027 79 960 32 c 0
 919 3 873 -11 822 -12 c 1
 753 -9 l 1
 692 -2 646 20 615 59 c 0
 613 62 611 66 608 69 c 1
 565 24 508 -2 436 -9 c 1
 375 -12 l 1
 325 -9 l 1
 230 5 180 60 177 157 c 0
 176 185 179 215 186 248 c 1
EndSplineSet
EndChar
StartChar: uni0E1D
Encoding: 151 3613 153
OldEncoding: 3613
Width: 1200
Flags: HW
Fore
582 1042 m 0
 547 1042 522 1027 507 998 c 1
 499 985 492 966 487 943 c 0
 476 890 480 858 501 845 c 0
 510 840 522 836 538 835 c 1
 576 835 607 855 632 895 c 1
 639 908 645 923 650 938 c 1
 653 963 l 1
 653 994 641 1016 618 1031 c 0
 607 1038 595 1042 582 1042 c 0
185 248 m 1
 320 881 l 1
 341 980 378 1052 432 1095 c 0
 477 1131 526 1149 580 1150 c 1
 624 1147 l 1
 649 1142 672 1131 693 1114 c 0
 730 1084 749 1047 751 1004 c 0
 754 913 725 842 664 792 c 0
 622 758 579 741 534 741 c 0
 531 741 529 741 526 742 c 0
 493 743 470 753 456 770 c 1
 345 248 l 2
 338 217 346 190 369 167 c 0
 385 150 403 142 424 142 c 0
 463 142 497 158 527 189 c 1
 543 207 553 227 558 248 c 2
 654 698 l 1
 814 698 l 1
 718 248 l 1
 711 215 722 188 751 165 c 0
 770 150 791 142 816 142 c 0
 850 142 880 159 906 193 c 0
 919 210 927 229 931 248 c 2
 1193 1480 l 1
 1353 1480 l 1
 1091 248 l 2
 1070 151 1026 79 959 32 c 0
 918 3 872 -11 821 -12 c 1
 752 -9 l 1
 691 -2 645 20 614 59 c 0
 612 62 610 66 607 69 c 1
 564 24 507 -2 435 -9 c 1
 374 -12 l 1
 324 -9 l 1
 229 5 179 60 176 157 c 0
 175 185 178 215 185 248 c 1
EndSplineSet
EndChar
StartChar: uni0E1E
Encoding: 152 3614 154
OldEncoding: 3614
Width: 1350
Flags: HW
Fore
353 248 m 1
 465 776 l 1
 441 757 413 747 382 747 c 0
 344 747 312 763 287 795 c 0
 248 844 249 914 290 1005 c 0
 311 1049 345 1086 394 1116 c 0
 422 1133 450 1144 477 1148 c 1
 521 1151 l 1
 561 1150 597 1132 629 1097 c 1
 658 1064 667 1009 657 933 c 1
 653 910 647 877 638 835 c 1
 513 248 l 2
 506 217 514 190 537 167 c 0
 553 150 571 142 592 142 c 0
 631 142 665 158 695 189 c 1
 711 207 721 227 726 248 c 2
 894 1039 l 1
 1054 1039 l 1
 886 248 l 1
 879 215 890 188 919 165 c 0
 938 150 959 142 984 142 c 0
 1018 142 1048 159 1074 193 c 0
 1087 210 1095 229 1099 248 c 2
 1289 1139 l 1
 1449 1139 l 1
 1259 248 l 2
 1238 151 1194 79 1127 32 c 1
 1094 12 l 1
 1057 -2 l 1
 1016 -10 l 2
 1007 -11 998 -12 989 -12 c 2
 920 -9 l 1
 859 -2 813 20 782 59 c 0
 780 62 778 66 775 69 c 1
 732 24 675 -2 603 -9 c 1
 542 -12 l 1
 492 -9 l 1
 397 5 347 60 344 157 c 0
 343 185 346 215 353 248 c 1
467 1043 m 0
 440 1043 416 1029 393 1000 c 1
 378 976 l 1
 369 949 l 1
 369 947 369 945 368 944 c 0
 363 903 371 875 393 858 c 0
 402 851 413 847 426 847 c 0
 468 850 495 879 507 936 c 0
 508 941 509 945 510 950 c 0
 523 1012 509 1043 467 1043 c 0
EndSplineSet
EndChar
StartChar: uni0E1F
Encoding: 153 3615 155
OldEncoding: 3615
Width: 1450
Flags: HW
Fore
417 248 m 1
 529 776 l 1
 505 757 477 747 446 747 c 0
 408 747 376 763 351 795 c 0
 312 844 313 914 354 1005 c 0
 375 1049 409 1086 458 1116 c 0
 486 1133 514 1144 541 1148 c 1
 585 1151 l 1
 625 1150 661 1132 693 1097 c 1
 722 1064 731 1009 721 933 c 1
 717 910 711 877 702 835 c 1
 577 248 l 2
 570 217 578 190 601 167 c 0
 617 150 635 142 656 142 c 0
 695 142 729 158 759 189 c 1
 775 207 785 227 790 248 c 2
 958 1039 l 1
 1118 1039 l 1
 950 248 l 1
 943 215 954 188 983 165 c 0
 1002 150 1023 142 1048 142 c 0
 1082 142 1112 159 1138 193 c 0
 1151 210 1159 229 1163 248 c 2
 1425 1480 l 1
 1585 1480 l 1
 1323 248 l 2
 1302 151 1258 79 1191 32 c 1
 1158 12 l 1
 1121 -2 l 1
 1080 -10 l 2
 1071 -11 1062 -12 1053 -12 c 2
 984 -9 l 1
 923 -2 877 20 846 59 c 0
 844 62 842 66 839 69 c 1
 796 24 739 -2 667 -9 c 1
 606 -12 l 1
 556 -9 l 1
 461 5 411 60 408 157 c 0
 407 185 410 215 417 248 c 1
531 1043 m 0
 504 1043 480 1029 457 1000 c 1
 442 976 l 1
 433 949 l 1
 433 947 433 945 432 944 c 0
 427 903 435 875 457 858 c 0
 466 851 477 847 490 847 c 0
 532 850 559 879 571 936 c 0
 572 941 573 945 574 950 c 0
 587 1012 573 1043 531 1043 c 0
EndSplineSet
EndChar
StartChar: uni0E20
Encoding: 154 3616 156
OldEncoding: 3616
Width: 1350
Flags: HW
Fore
270 97 m 0
 305 97 330 112 345 141 c 1
 353 154 360 173 365 196 c 0
 376 249 372 281 351 294 c 0
 342 299 330 303 314 304 c 1
 276 304 245 284 220 244 c 1
 213 231 207 216 202 201 c 1
 199 176 l 1
 199 145 211 123 234 108 c 0
 245 101 257 97 270 97 c 0
563 403 m 2
 532 258 l 1
 511 159 474 88 420 44 c 0
 375 8 326 -10 272 -11 c 1
 228 -8 l 1
 203 -3 180 8 159 25 c 0
 122 55 103 92 101 135 c 0
 98 226 127 297 188 347 c 0
 230 381 273 398 318 398 c 0
 321 398 323 398 326 397 c 0
 359 396 382 386 396 369 c 1
 403 403 403 403 412 446 c 128
 419 475 436 508 463 546 c 0
 484 576 526 618 589 671 c 1
 570 701 534 731 481 762 c 0
 457 776 436 786 417 792 c 1
 444 855 493 917 564 979 c 0
 693 1092 838 1149 999 1149 c 0
 1144 1149 1251 1102 1318 1008 c 1
 1371 922 1384 810 1355 673 c 1
 1212 0 l 1
 1052 0 l 1
 1191 657 l 2
 1213 761 1210 838 1182 887 c 0
 1173 903 1161 917 1147 930 c 0
 1117 956 1072 974 1013 985 c 0
 996 988 980 989 965 989 c 0
 867 989 772 957 680 892 c 0
 652 872 626 850 602 825 c 1
 630 818 663 794 701 755 c 0
 736 720 754 689 756 663 c 1
 699 614 662 581 646 563 c 0
 612 526 589 491 578 458 c 0
 573 443 568 424 563 403 c 2
EndSplineSet
EndChar
StartChar: uni0E21
Encoding: 155 3617 157
OldEncoding: 3617
Width: 1350
Flags: HW
Fore
524 1042 m 0
 493 1042 465 1027 439 996 c 0
 426 979 417 962 413 945 c 1
 412 938 l 2
 405 892 416 861 444 844 c 0
 454 838 466 835 480 835 c 1
 517 838 543 853 558 882 c 0
 566 897 573 917 578 943 c 1
 586 994 579 1025 558 1036 c 0
 549 1040 538 1042 524 1042 c 0
465 446 m 1
 534 770 l 1
 525 759 506 749 477 742 c 0
 470 741 463 740 457 739 c 1
 423 741 l 1
 387 748 358 765 336 792 c 0
 297 842 298 913 339 1004 c 1
 360 1047 394 1084 443 1114 c 0
 481 1137 521 1149 563 1150 c 0
 567 1150 567 1150 572 1150 c 0
 626 1149 667 1131 696 1095 c 0
 731 1052 739 980 718 881 c 1
 617 409 l 1
 724 301 l 1
 833 198 913 147 964 147 c 0
 975 147 984 149 992 154 c 0
 1015 167 1033 201 1045 256 c 1
 1233 1139 l 1
 1393 1139 l 1
 1205 256 l 2
 1186 169 1163 108 1136 74 c 0
 1120 55 1100 39 1076 25 c 0
 1041 5 1004 -5 965 -5 c 0
 902 -5 833 23 759 79 c 0
 736 97 710 119 683 144 c 1
 581 243 l 1
 558 146 l 1
 535 78 496 31 443 6 c 0
 419 -5 394 -10 369 -10 c 0
 322 -10 283 4 254 32 c 0
 250 35 247 39 244 43 c 0
 210 88 200 142 213 205 c 0
 226 267 252 319 290 362 c 1
 341 417 400 445 465 446 c 1
449 328 m 1
 409 328 375 307 348 264 c 1
 334 244 325 223 320 202 c 0
 312 163 316 133 331 114 c 0
 336 107 344 103 353 103 c 0
 384 103 405 124 415 166 c 1
 422 200 l 1
 449 328 l 1
EndSplineSet
EndChar
StartChar: uni0E22
Encoding: 156 3618 158
OldEncoding: 3618
Width: 1200
Flags: HW
Fore
638 1046 m 0
 603 1046 578 1031 562 1002 c 0
 555 989 548 970 543 947 c 0
 532 894 536 862 557 849 c 0
 566 844 578 840 594 839 c 1
 633 839 664 859 688 899 c 0
 695 912 701 927 706 942 c 1
 709 967 l 1
 710 998 698 1020 673 1035 c 1
 663 1042 651 1046 638 1046 c 0
314 451 m 0
 345 493 397 530 469 562 c 1
 438 568 408 587 379 620 c 0
 352 649 343 701 352 777 c 0
 353 795 356 813 360 831 c 0
 376 905 390 956 402 983 c 0
 421 1024 452 1060 493 1093 c 1
 532 1126 580 1144 635 1149 c 1
 680 1149 l 1
 727 1145 764 1122 791 1080 c 0
 792 1077 794 1074 796 1071 c 0
 817 1034 822 986 809 926 c 0
 798 873 772 830 731 795 c 0
 690 761 643 744 588 743 c 1
 551 746 l 1
 531 751 515 759 502 770 c 1
 498 741 l 1
 497 729 499 718 502 708 c 0
 508 687 520 671 538 660 c 0
 573 637 617 624 668 620 c 0
 691 619 720 618 755 618 c 1
 731 505 l 1
 634 505 566 497 525 481 c 0
 468 458 432 413 418 347 c 0
 398 250 428 190 509 165 c 0
 542 155 587 150 643 150 c 0
 649 150 l 0
 743 151 810 165 851 192 c 0
 894 221 924 270 939 341 c 1
 1109 1139 l 1
 1269 1139 l 1
 1084 269 l 2
 1057 144 984 61 863 22 c 0
 798 1 714 -10 611 -10 c 0
 453 -10 349 19 298 78 c 0
 260 121 246 183 257 264 c 1
 273 349 l 1
 285 396 299 430 314 451 c 0
EndSplineSet
EndChar
StartChar: uni0E23
Encoding: 157 3619 159
OldEncoding: 3619
Width: 1100
Flags: HW
Fore
947 303 m 1
 926 207 906 142 887 109 c 0
 872 84 852 61 826 42 c 0
 781 7 738 -10 698 -11 c 1
 655 -8 l 2
 653 -8 l 0
 608 -1 573 23 548 64 c 0
 525 101 520 150 533 211 c 0
 545 266 572 310 614 344 c 0
 665 387 716 401 767 386 c 0
 781 381 792 374 800 363 c 1
 835 529 l 2
 846 584 824 626 768 656 c 1
 667 692 499 727 265 762 c 1
 294 829 335 894 388 957 c 0
 438 1016 500 1063 573 1099 c 0
 641 1132 722 1149 817 1149 c 0
 894 1149 962 1134 1022 1103 c 0
 1072 1078 1131 1065 1198 1065 c 0
 1224 1065 1247 1067 1268 1072 c 1
 1196 917 l 1
 1179 913 1160 911 1137 912 c 0
 1075 912 1023 922 982 941 c 0
 979 942 977 943 975 944 c 0
 908 980 840 998 773 998 c 0
 763 998 753 998 743 997 c 0
 683 993 627 967 574 918 c 0
 557 903 544 887 533 872 c 1
 667 849 l 1
 784 821 872 786 930 745 c 0
 985 706 1011 659 1008 603 c 0
 1008 594 1007 584 1005 574 c 1
 1004 573 l 1
 947 303 l 1
781 189 m 0
 796 258 780 293 733 293 c 0
 697 293 667 274 644 235 c 0
 636 222 630 208 627 193 c 1
 623 166 l 1
 624 135 635 113 658 99 c 0
 666 94 675 92 684 92 c 0
 731 92 761 119 776 173 c 0
 778 178 780 184 781 189 c 0
EndSplineSet
EndChar
StartChar: uni0E24
Encoding: 158 3620 160
OldEncoding: 3620
Width: 1240
Flags: HW
Fore
1004 -380 m 1
 844 -380 l 1
 1064 657 l 2
 1086 761 1083 838 1055 887 c 0
 1046 903 1034 917 1019 930 c 0
 990 956 945 974 886 985 c 0
 869 988 853 989 838 989 c 0
 740 989 645 957 553 892 c 0
 525 872 499 850 475 825 c 1
 503 818 536 794 574 755 c 0
 609 720 627 689 629 663 c 1
 572 614 535 581 519 563 c 0
 485 526 462 491 451 459 c 0
 446 444 441 425 436 403 c 2
 429 369 l 1
 444 383 467 392 500 396 c 0
 503 397 507 397 511 397 c 2
 545 395 l 1
 578 390 606 374 627 347 c 0
 666 297 665 226 624 135 c 0
 604 92 569 56 520 25 c 0
 482 2 442 -10 400 -11 c 2
 391 -11 l 2
 337 -10 296 8 267 44 c 0
 232 87 224 159 245 258 c 1
 276 403 l 2
 288 460 308 507 336 546 c 0
 357 576 399 618 462 671 c 1
 443 701 407 731 354 762 c 0
 330 776 309 786 290 792 c 1
 317 855 366 917 437 979 c 0
 566 1092 711 1149 872 1149 c 0
 1017 1149 1124 1102 1191 1008 c 1
 1244 922 1257 810 1228 673 c 1
 1004 -380 l 1
439 97 m 0
 470 97 498 112 524 143 c 0
 537 160 546 177 550 194 c 0
 551 197 551 199 551 201 c 0
 558 247 547 278 519 294 c 1
 509 301 497 304 483 304 c 1
 446 301 420 286 405 257 c 1
 393 222 l 2
 390 215 388 206 386 196 c 0
 377 145 384 114 405 103 c 0
 414 99 425 97 439 97 c 0
EndSplineSet
EndChar
StartChar: uni0E25
Encoding: 159 3621 161
OldEncoding: 3621
Width: 1255
Flags: HW
Fore
313 435 m 2
 330 516 371 579 435 624 c 0
 456 639 482 654 511 668 c 0
 583 703 663 720 750 720 c 0
 831 720 904 706 969 677 c 0
 1015 658 1043 635 1053 609 c 1
 1075 714 l 1
 1093 797 1089 855 1063 888 c 1
 1022 939 960 971 877 984 c 0
 856 987 834 989 811 989 c 0
 720 989 635 962 556 909 c 0
 524 887 497 862 474 835 c 1
 354 929 l 1
 407 996 483 1050 582 1092 c 0
 670 1130 757 1149 842 1149 c 0
 1031 1149 1155 1096 1214 990 c 0
 1253 921 1260 829 1235 713 c 2
 1084 0 l 1
 924 0 l 1
 979 263 l 1
 1004 376 979 459 906 511 c 0
 860 544 798 560 720 560 c 0
 611 560 535 530 494 471 c 0
 481 453 472 432 467 407 c 2
 459 369 l 1
 473 383 497 392 530 396 c 0
 534 397 538 397 541 397 c 2
 575 395 l 1
 608 390 636 374 657 347 c 0
 696 297 695 226 654 135 c 0
 635 92 600 56 550 25 c 0
 512 2 472 -10 430 -11 c 2
 421 -11 l 2
 367 -10 326 8 297 44 c 0
 262 87 254 159 275 258 c 1
 313 435 l 2
469 97 m 0
 500 97 528 112 554 143 c 0
 567 160 576 177 580 194 c 0
 581 197 581 199 581 201 c 0
 588 247 577 278 549 294 c 1
 539 301 527 304 513 304 c 1
 476 301 451 286 436 257 c 1
 423 222 l 2
 420 215 418 206 416 196 c 0
 407 145 414 114 435 103 c 0
 444 99 455 97 469 97 c 0
EndSplineSet
EndChar
StartChar: uni0E26
Encoding: 160 3622 162
OldEncoding: 3622
Width: 1350
Flags: HW
Fore
270 97 m 0
 305 97 330 112 345 141 c 1
 353 154 360 173 365 196 c 0
 376 249 372 281 351 294 c 0
 342 299 330 303 314 304 c 1
 276 304 245 284 220 244 c 1
 213 231 207 216 202 201 c 1
 199 176 l 1
 199 145 211 123 234 108 c 0
 245 101 257 97 270 97 c 0
563 403 m 2
 532 258 l 1
 511 159 474 88 420 44 c 0
 375 8 326 -10 272 -11 c 1
 228 -8 l 1
 203 -3 180 8 159 25 c 0
 122 55 103 92 101 135 c 0
 98 226 127 297 188 347 c 0
 230 381 273 398 318 398 c 0
 321 398 323 398 326 397 c 0
 359 396 382 386 396 369 c 1
 403 403 l 1
 416 460 436 508 463 546 c 0
 484 576 526 618 589 671 c 1
 570 701 534 731 481 762 c 0
 457 776 436 786 417 792 c 1
 444 855 493 917 564 979 c 0
 693 1092 838 1149 999 1149 c 0
 1144 1149 1251 1102 1318 1008 c 1
 1371 922 1384 810 1355 673 c 1
 1131 -380 l 1
 971 -380 l 1
 1191 657 l 2
 1213 761 1210 838 1182 887 c 0
 1173 903 1161 917 1147 930 c 0
 1117 956 1072 974 1013 985 c 0
 996 988 980 989 965 989 c 0
 867 989 772 957 680 892 c 0
 652 872 626 850 602 825 c 1
 630 818 663 794 701 755 c 0
 736 720 754 689 756 663 c 1
 699 614 662 581 646 563 c 0
 612 526 589 491 578 458 c 0
 573 443 568 424 563 403 c 2
EndSplineSet
EndChar
StartChar: uni0E27
Encoding: 161 3623 163
OldEncoding: 3623
Width: 1150
Flags: HW
Fore
785 97 m 0
 820 97 845 112 860 141 c 1
 868 154 875 173 880 196 c 0
 891 249 887 281 866 294 c 0
 857 299 845 303 829 304 c 1
 791 304 760 284 735 244 c 1
 728 231 722 216 717 201 c 1
 714 176 l 1
 714 145 726 123 749 108 c 0
 760 101 772 97 785 97 c 0
1145 714 m 2
 1048 258 l 1
 1027 159 990 88 935 44 c 0
 890 8 841 -10 787 -11 c 1
 743 -8 l 1
 718 -3 695 8 674 25 c 0
 637 55 618 92 616 135 c 0
 613 226 642 297 703 347 c 0
 745 381 788 398 833 398 c 0
 836 398 838 398 841 397 c 0
 874 396 898 386 912 369 c 1
 985 715 985 715 998 773 c 128
 1006 812 999 848 978 883 c 0
 975 888 971 892 967 897 c 0
 914 958 833 989 722 989 c 0
 613 989 509 948 412 866 c 0
 401 857 391 848 380 838 c 1
 265 929 l 1
 320 996 396 1051 495 1093 c 0
 582 1130 669 1149 754 1149 c 0
 867 1149 967 1119 1053 1059 c 0
 1115 1016 1150 960 1159 891 c 1
 1161 839 l 1
 1160 803 1155 761 1145 714 c 2
EndSplineSet
EndChar
StartChar: uni0E28
Encoding: 162 3624 164
OldEncoding: 3624
Width: 1300
Flags: HW
Fore
851 630 m 1
 842 638 830 642 815 642 c 0
 779 642 745 624 714 588 c 1
 708 579 l 2
 697 564 689 549 685 533 c 0
 682 521 682 510 685 499 c 1
 688 480 697 464 713 453 c 0
 723 446 734 443 747 443 c 0
 758 443 770 445 782 450 c 0
 815 463 841 488 862 523 c 0
 867 532 871 543 872 554 c 1
 879 587 872 613 851 630 c 1
1161 1059 m 1
 1217 1093 1271 1148 1322 1224 c 1
 1540 1224 l 1
 1479 1108 1386 1011 1263 934 c 1
 1292 867 1294 773 1268 651 c 2
 1130 0 l 1
 970 0 l 1
 1119 702 l 2
 1127 739 1125 778 1114 819 c 0
 1113 826 1111 832 1108 837 c 0
 1092 878 1057 915 1004 948 c 0
 960 975 901 989 826 989 c 0
 759 989 696 976 638 950 c 0
 589 929 541 895 496 850 c 0
 481 836 469 822 459 808 c 0
 431 768 410 714 396 646 c 0
 387 603 382 562 383 525 c 1
 369 256 l 1
 416 375 468 476 525 559 c 0
 542 584 559 605 574 621 c 0
 621 671 673 707 732 730 c 0
 741 733 749 736 756 738 c 0
 775 743 795 746 816 746 c 0
 863 746 899 733 925 708 c 0
 966 668 983 619 974 562 c 1
 965 527 l 1
 957 511 l 2
 930 458 892 415 845 381 c 0
 822 365 800 354 778 348 c 0
 761 344 744 342 727 342 c 0
 692 342 665 351 645 370 c 0
 626 389 616 407 614 424 c 1
 549 329 489 222 433 104 c 0
 413 62 399 27 390 0 c 1
 180 0 l 1
 202 108 l 1
 213 161 219 266 219 424 c 1
 217 513 224 596 241 673 c 0
 260 766 292 841 335 897 c 1
 388 964 450 1017 521 1057 c 1
 626 1114 730 1145 833 1149 c 0
 855 1149 l 0
 956 1148 1038 1130 1101 1095 c 1
 1123 1084 1143 1072 1161 1059 c 1
EndSplineSet
EndChar
StartChar: uni0E29
Encoding: 163 3625 165
OldEncoding: 3625
Width: 1350
Flags: HW
Fore
447 1039 m 0
 416 1039 388 1024 363 993 c 0
 349 976 340 959 337 942 c 1
 335 935 l 1
 329 889 340 858 367 841 c 0
 377 835 389 832 403 832 c 1
 440 835 466 850 481 879 c 0
 489 894 496 914 501 940 c 0
 510 991 503 1022 481 1033 c 0
 472 1037 461 1039 447 1039 c 0
1052 433 m 1
 1032 426 1009 422 983 422 c 0
 930 422 886 434 851 457 c 0
 819 479 799 512 791 557 c 0
 786 580 787 602 792 625 c 0
 796 642 802 658 810 673 c 1
 825 706 852 732 892 749 c 0
 913 758 934 763 956 763 c 0
 973 763 990 760 1006 754 c 0
 1031 744 1048 727 1056 702 c 0
 1064 680 1064 655 1056 628 c 1
 1045 598 1025 574 997 557 c 0
 987 552 978 548 970 546 c 1
 975 535 992 530 1019 529 c 1
 1050 532 l 1
 1059 534 1067 537 1074 541 c 1
 1201 1136 l 1
 1361 1136 l 1
 1258 652 l 1
 1291 679 1313 719 1324 771 c 1
 1431 767 l 1
 1421 724 l 1
 1406 673 1381 627 1347 586 c 0
 1318 552 1277 520 1224 491 c 1
 1178 273 l 1
 1152 153 1088 72 987 31 c 0
 918 4 821 -10 695 -10 c 0
 538 -10 433 26 380 99 c 0
 347 144 337 201 352 270 c 2
 458 767 l 1
 443 753 420 744 388 740 c 0
 384 739 380 739 375 738 c 1
 342 741 l 1
 309 746 281 762 259 789 c 1
 220 839 221 910 262 1001 c 1
 283 1044 318 1081 367 1111 c 0
 404 1134 444 1146 486 1147 c 0
 490 1147 490 1147 495 1147 c 0
 549 1146 591 1128 620 1092 c 0
 655 1049 662 977 641 878 c 1
 526 336 l 1
 506 243 536 186 617 163 c 0
 645 155 680 151 721 150 c 1
 789 152 l 1
 926 165 1007 227 1031 336 c 2
 1052 433 l 1
963 595 m 1
 980 611 990 626 993 640 c 0
 996 654 992 669 982 684 c 1
 971 697 958 704 941 704 c 0
 934 704 926 703 918 700 c 0
 909 697 900 691 891 684 c 0
 875 671 865 656 862 641 c 0
 859 626 862 610 872 595 c 1
 882 583 896 577 914 577 c 0
 932 577 948 583 963 595 c 1
EndSplineSet
EndChar
StartChar: uni0E2A
Encoding: 164 3626 166
OldEncoding: 3626
Width: 1250
Flags: HW
Fore
441 97 m 0
 472 97 500 112 526 143 c 0
 539 160 548 177 552 194 c 0
 553 197 553 199 553 201 c 0
 560 247 549 278 521 294 c 1
 511 301 499 304 485 304 c 1
 448 301 423 286 408 257 c 1
 395 222 l 2
 392 215 390 206 388 196 c 0
 379 145 386 114 407 103 c 0
 416 99 427 97 441 97 c 0
1208 938 m 1
 1226 877 1226 802 1207 713 c 2
 1056 0 l 1
 896 0 l 1
 951 263 l 1
 976 376 951 459 878 511 c 0
 832 544 770 560 692 560 c 0
 583 560 507 530 466 471 c 0
 453 453 444 432 439 407 c 2
 431 369 l 1
 445 383 469 392 502 396 c 0
 506 397 510 397 513 397 c 2
 547 395 l 1
 580 390 608 374 629 347 c 0
 668 297 667 226 626 135 c 0
 607 92 572 56 522 25 c 0
 484 2 444 -10 402 -11 c 2
 393 -11 l 2
 339 -10 298 8 269 44 c 0
 234 87 226 159 247 258 c 1
 285 435 l 2
 302 516 343 579 407 624 c 0
 428 639 454 654 483 668 c 0
 555 703 635 720 722 720 c 0
 803 720 876 706 941 677 c 0
 987 658 1015 635 1025 609 c 1
 1047 714 l 1
 1065 797 1061 855 1035 888 c 1
 994 939 932 971 849 984 c 0
 828 987 806 989 783 989 c 0
 692 989 607 962 528 909 c 0
 496 887 469 862 446 835 c 1
 326 929 l 1
 379 996 455 1050 554 1092 c 0
 642 1130 729 1149 814 1149 c 0
 969 1149 1080 1113 1147 1042 c 1
 1199 1078 1251 1134 1302 1209 c 1
 1468 1209 l 1
 1433 1130 1376 1061 1297 1000 c 0
 1272 981 1242 960 1208 938 c 1
EndSplineSet
EndChar
StartChar: uni0E2B
Encoding: 165 3627 167
OldEncoding: 3627
Width: 1350
Flags: HW
Fore
532 190 m 1
 586 288 668 400 779 527 c 0
 873 636 956 716 1028 767 c 1
 980 792 960 840 969 911 c 0
 972 928 972 928 976 950 c 0
 987 997 1012 1040 1052 1079 c 0
 1088 1114 1133 1135 1188 1142 c 0
 1197 1143 1206 1144 1215 1144 c 0
 1290 1144 1342 1119 1371 1068 c 0
 1389 1037 1395 1000 1388 956 c 1
 1376 904 l 1
 1360 862 l 1
 1339 820 1309 787 1269 764 c 1
 1297 747 1316 719 1326 678 c 0
 1331 655 1332 632 1327 610 c 2
 1198 0 l 1
 1038 0 l 1
 1164 594 l 1
 1172 633 1158 665 1122 690 c 1
 1042 638 946 546 834 415 c 0
 707 266 617 134 563 18 c 0
 560 12 558 6 556 0 c 1
 332 0 l 1
 496 776 l 1
 473 757 446 748 413 748 c 0
 375 748 343 763 318 794 c 1
 279 844 280 915 321 1006 c 0
 342 1050 376 1087 425 1116 c 0
 452 1133 480 1144 508 1148 c 1
 554 1152 l 1
 637 1151 683 1111 694 1032 c 0
 699 1001 697 965 688 924 c 2
 532 190 l 1
497 1049 m 0
 466 1049 438 1034 413 1003 c 0
 399 986 390 969 387 952 c 1
 385 945 l 1
 379 899 390 868 418 852 c 1
 427 845 439 842 453 842 c 1
 490 845 516 860 531 889 c 0
 539 904 546 924 551 950 c 0
 560 1001 553 1032 531 1043 c 1
 509 1048 l 2
 505 1049 501 1049 497 1049 c 0
1152 830 m 1
 1179 832 l 1
 1214 839 1240 860 1259 893 c 0
 1266 905 1270 918 1273 931 c 0
 1275 940 1276 948 1276 957 c 0
 1277 989 1264 1013 1239 1028 c 1
 1217 1037 l 1
 1201 1039 l 1
 1177 1036 l 1
 1151 1029 1128 1015 1109 993 c 0
 1097 980 1088 959 1082 931 c 2
 1078 911 l 1
 1078 895 l 1
 1081 881 1088 868 1101 856 c 0
 1117 840 1134 831 1152 830 c 1
EndSplineSet
EndChar
StartChar: uni0E2C
Encoding: 166 3628 168
OldEncoding: 3628
Width: 1400
Flags: HW
Fore
1467 1159 m 1
 1273 248 l 2
 1252 151 1208 79 1141 32 c 1
 1108 12 l 1
 1071 -2 l 1
 1030 -10 l 2
 1021 -11 1012 -12 1003 -12 c 2
 934 -9 l 1
 873 -2 827 20 796 59 c 0
 794 62 792 66 789 69 c 1
 746 24 689 -2 617 -9 c 1
 556 -12 l 1
 506 -9 l 1
 411 5 361 60 358 157 c 0
 357 185 360 215 367 248 c 1
 479 776 l 1
 455 757 427 747 396 747 c 0
 358 747 326 763 301 795 c 0
 262 844 263 914 304 1005 c 0
 325 1049 359 1086 408 1116 c 0
 436 1133 464 1144 491 1148 c 1
 535 1151 l 1
 575 1150 611 1132 643 1097 c 1
 672 1064 681 1009 671 933 c 1
 667 910 661 877 652 835 c 1
 527 248 l 2
 520 217 528 190 551 167 c 0
 567 150 585 142 606 142 c 0
 645 142 679 158 709 189 c 1
 725 207 735 227 740 248 c 2
 908 1039 l 1
 1068 1039 l 1
 900 248 l 1
 893 215 904 188 933 165 c 0
 952 150 973 142 998 142 c 0
 1032 142 1062 159 1088 193 c 0
 1101 210 1109 229 1113 248 c 2
 1309 1167 l 1
 1259 1171 1222 1190 1197 1225 c 0
 1175 1255 1170 1296 1181 1348 c 0
 1186 1370 1193 1391 1203 1411 c 0
 1225 1454 1261 1485 1310 1505 c 0
 1335 1514 1359 1519 1384 1519 c 0
 1413 1519 1440 1512 1463 1498 c 0
 1500 1475 1516 1438 1513 1387 c 0
 1512 1370 1507 1343 1499 1305 c 2
 1494 1281 l 1
 1531 1284 1564 1297 1591 1318 c 0
 1630 1349 1656 1399 1670 1467 c 1
 1770 1467 l 1
 1757 1406 1745 1364 1732 1340 c 0
 1727 1329 1720 1317 1712 1306 c 0
 1688 1269 1654 1236 1610 1207 c 0
 1564 1175 1516 1159 1467 1159 c 1
481 1043 m 0
 454 1043 430 1029 407 1000 c 1
 392 976 l 1
 383 949 l 1
 383 947 383 945 382 944 c 0
 377 903 385 875 407 858 c 0
 416 851 427 847 440 847 c 0
 482 850 509 879 521 936 c 0
 522 941 523 945 524 950 c 0
 537 1012 523 1043 481 1043 c 0
1330 1263 m 0
 1368 1263 1398 1279 1419 1310 c 0
 1427 1323 1433 1337 1436 1353 c 0
 1445 1396 1433 1423 1400 1435 c 0
 1391 1438 1380 1440 1368 1440 c 0
 1331 1440 1301 1425 1280 1394 c 0
 1271 1381 1265 1367 1262 1351 c 0
 1255 1320 1263 1296 1284 1278 c 0
 1297 1268 1312 1263 1330 1263 c 0
EndSplineSet
EndChar
StartChar: uni0E2D
Encoding: 167 3629 169
OldEncoding: 3629
Width: 1230
Flags: HW
Fore
588 642 m 0
 553 642 528 627 513 598 c 1
 498 563 l 1
 493 543 l 1
 482 490 487 458 508 445 c 0
 516 440 528 436 544 435 c 1
 583 435 614 455 638 495 c 0
 646 508 652 523 656 538 c 1
 660 563 l 1
 660 594 648 616 625 631 c 0
 614 638 601 642 588 642 c 0
280 270 m 2
 315 434 l 1
 335 529 356 595 379 631 c 0
 394 654 413 675 437 694 c 0
 496 739 561 756 630 745 c 0
 675 738 710 713 735 672 c 0
 757 634 762 585 749 525 c 0
 738 470 711 426 669 392 c 0
 617 349 566 335 516 350 c 0
 483 361 465 368 462 373 c 1
 447 304 447 304 438 262 c 128
 432 233 461 205 524 176 c 0
 561 160 603 151 650 150 c 1
 707 153 l 1
 790 163 856 192 906 240 c 0
 935 269 954 302 962 339 c 2
 1041 715 l 1
 1058 796 1055 852 1032 882 c 0
 994 930 937 963 862 980 c 0
 835 986 807 989 778 989 c 0
 661 989 564 958 489 895 c 1
 452 862 l 1
 435 843 l 1
 321 929 l 1
 376 996 452 1051 551 1093 c 0
 638 1130 724 1149 809 1149 c 0
 906 1149 996 1126 1079 1079 c 0
 1126 1052 1161 1021 1183 987 c 1
 1220 933 1228 854 1209 751 c 1
 1108 273 l 1
 1089 184 1029 113 928 60 c 0
 838 13 733 -10 612 -10 c 0
 502 -10 415 18 350 73 c 0
 287 127 263 193 280 270 c 2
EndSplineSet
EndChar
StartChar: uni0E2E
Encoding: 168 3630 170
OldEncoding: 3630
Width: 1250
Flags: HW
Fore
595 642 m 0
 560 642 535 627 520 598 c 1
 505 563 l 1
 500 543 l 1
 489 490 494 458 515 445 c 0
 523 440 535 436 551 435 c 1
 590 435 621 455 645 495 c 0
 653 508 659 523 663 538 c 1
 667 563 l 1
 667 594 655 616 632 631 c 0
 621 638 608 642 595 642 c 0
1049 718 m 2
 1056 752 1059 770 1057 772 c 0
 1056 773 1056 777 1056 782 c 2
 1056 784 l 1
 1057 807 1053 827 1046 842 c 1
 971 790 873 764 750 764 c 1
 673 767 l 1
 555 777 474 807 431 856 c 0
 406 885 397 919 405 958 c 0
 415 1006 462 1049 545 1086 c 0
 633 1126 728 1147 829 1149 c 0
 834 1149 834 1149 840 1149 c 0
 939 1149 1026 1126 1100 1080 c 0
 1124 1064 l 1
 1159 1100 1183 1131 1196 1158 c 1
 1309 1116 l 1
 1274 1061 1238 1014 1201 975 c 1
 1226 922 1233 859 1222 786 c 1
 1199 669 l 1
 1194 649 1191 634 1189 625 c 2
 1115 273 l 1
 1096 184 1036 113 935 60 c 0
 845 13 740 -10 619 -10 c 0
 509 -10 422 18 357 73 c 0
 294 127 270 193 287 270 c 2
 322 434 l 1
 342 529 363 595 386 631 c 0
 401 654 420 675 444 694 c 0
 503 739 568 756 637 745 c 0
 682 738 717 713 742 672 c 0
 764 634 769 585 756 525 c 0
 745 470 718 426 676 392 c 0
 624 349 573 335 523 350 c 0
 490 361 472 368 469 373 c 1
 454 304 454 304 445 262 c 128
 439 233 468 205 531 176 c 0
 568 160 610 151 657 150 c 1
 714 153 l 1
 797 163 863 192 913 240 c 0
 942 269 961 302 969 339 c 2
 1049 718 l 2
1026 952 m 1
 967 1004 897 1033 816 1038 c 0
 804 1038 l 2
 750 1035 l 1
 693 1028 644 1014 603 995 c 0
 576 982 561 970 557 958 c 1
 557 945 l 1
 564 921 601 901 667 886 c 0
 702 879 735 875 768 875 c 0
 858 875 944 901 1026 952 c 1
EndSplineSet
EndChar
StartChar: uni0E2F
Encoding: 169 3631 171
OldEncoding: 3631
Width: 1150
Flags: HW
Fore
1269 1149 m 1
 1025 0 l 1
 865 0 l 1
 1041 830 l 1
 962 764 875 721 780 702 c 0
 731 691 681 686 632 686 c 0
 537 686 463 703 410 738 c 1
 363 765 333 803 322 852 c 0
 317 872 316 893 319 914 c 0
 330 979 363 1034 420 1078 c 0
 458 1108 500 1126 546 1132 c 0
 608 1141 657 1126 694 1087 c 0
 720 1059 732 1024 730 982 c 0
 727 924 697 874 638 832 c 1
 657 823 695 825 751 838 c 0
 868 866 960 921 1029 1003 c 0
 1066 1046 1092 1095 1109 1149 c 1
 1269 1149 l 1
530 1042 m 0
 493 1036 463 1016 441 983 c 0
 432 970 426 955 423 940 c 0
 422 932 421 924 420 917 c 0
 420 886 434 863 461 850 c 0
 472 845 485 842 498 842 c 0
 502 842 507 842 512 843 c 0
 553 849 584 868 607 901 c 0
 616 915 623 930 627 946 c 0
 628 950 628 954 628 958 c 0
 630 990 618 1015 593 1032 c 1
 580 1040 565 1044 549 1044 c 0
 543 1044 537 1043 530 1042 c 0
EndSplineSet
EndChar
StartChar: uni0E30
Encoding: 170 3632 172
OldEncoding: 3632
Width: 1100
Flags: HW
Fore
232 289 m 1
 243 330 l 1
 263 387 299 430 352 459 c 0
 375 472 400 480 425 483 c 1
 462 484 l 1
 500 482 530 467 552 439 c 0
 571 414 580 385 578 351 c 1
 572 318 l 1
 559 269 531 231 488 204 c 2
 480 199 l 1
 488 196 503 194 524 194 c 0
 557 194 589 198 619 207 c 0
 718 236 791 283 838 349 c 0
 862 384 882 427 899 479 c 1
 1015 479 l 1
 989 357 922 258 813 181 c 0
 769 150 721 126 670 108 c 0
 616 88 559 78 500 78 c 0
 405 78 332 101 281 148 c 0
 240 185 224 232 232 289 c 1
413 408 m 0
 382 403 358 388 340 361 c 0
 333 351 329 340 326 328 c 0
 325 323 325 317 325 311 c 0
 325 283 338 265 363 256 c 0
 370 253 379 251 388 251 c 0
 392 251 396 251 400 252 c 0
 437 257 464 274 483 303 c 0
 489 312 493 322 495 332 c 0
 496 335 496 339 496 343 c 0
 497 371 486 391 462 403 c 1
 452 407 441 409 429 409 c 0
 424 409 418 409 413 408 c 0
352 814 m 1
 362 855 l 1
 383 912 419 955 472 984 c 0
 495 997 520 1005 545 1008 c 1
 583 1009 l 1
 620 1007 649 992 671 964 c 0
 691 939 700 910 698 876 c 1
 692 843 l 1
 685 818 673 794 656 772 c 1
 632 748 l 2
 622 739 611 731 599 724 c 1
 607 721 622 719 643 719 c 0
 676 719 708 723 739 732 c 0
 838 761 910 808 957 874 c 0
 982 909 1002 952 1019 1004 c 1
 1135 1004 l 1
 1109 882 1042 783 934 706 c 1
 889 675 841 651 790 633 c 0
 736 613 679 603 620 603 c 0
 525 603 452 626 401 673 c 0
 360 710 343 757 352 814 c 1
533 933 m 1
 502 928 478 913 460 886 c 0
 454 876 449 865 446 853 c 0
 445 848 444 842 444 836 c 0
 444 808 457 790 483 781 c 1
 490 778 498 776 507 776 c 0
 511 776 516 776 521 777 c 0
 556 782 583 799 602 828 c 0
 608 837 612 847 615 857 c 0
 616 860 616 864 616 868 c 0
 618 896 607 916 582 928 c 0
 573 932 564 934 553 934 c 2
 533 933 l 1
EndSplineSet
EndChar
StartChar: uni0E31
Encoding: 171 3633 173
OldEncoding: 3633
Width: 0
Flags: HW
Fore
-419 1444 m 1
 -408 1485 l 1
 -388 1542 -351 1585 -298 1614 c 0
 -275 1627 -250 1635 -225 1638 c 1
 -188 1639 l 1
 -151 1637 -121 1622 -99 1594 c 0
 -80 1569 -71 1540 -72 1506 c 1
 -78 1473 l 1
 -92 1424 -120 1386 -163 1359 c 2
 -171 1354 l 1
 -163 1351 -148 1349 -127 1349 c 0
 -94 1349 -62 1353 -31 1362 c 0
 67 1391 139 1438 186 1504 c 0
 210 1539 231 1582 248 1634 c 1
 364 1634 l 1
 338 1512 270 1413 161 1336 c 0
 118 1305 70 1281 19 1263 c 0
 -34 1243 -91 1233 -150 1233 c 0
 -245 1233 -319 1256 -370 1303 c 0
 -411 1340 -427 1387 -419 1444 c 1
-237 1563 m 0
 -268 1558 -293 1543 -310 1516 c 0
 -317 1506 -321 1495 -324 1483 c 0
 -325 1478 -326 1472 -326 1466 c 0
 -326 1438 -313 1420 -288 1411 c 0
 -281 1408 -272 1406 -263 1406 c 0
 -259 1406 -255 1406 -250 1407 c 0
 -214 1412 -187 1429 -168 1458 c 0
 -162 1467 -158 1477 -155 1487 c 0
 -154 1490 -154 1494 -154 1498 c 0
 -153 1526 -164 1546 -188 1558 c 1
 -198 1562 -209 1564 -221 1564 c 0
 -226 1564 -232 1564 -237 1563 c 0
EndSplineSet
EndChar
StartChar: uni0E32
Encoding: 172 3634 174
OldEncoding: 3634
Width: 1150
Flags: HW
Fore
1116 753 m 1
 956 0 l 1
 796 0 l 1
 950 729 l 1
 984 887 925 973 774 987 c 0
 764 988 754 989 743 989 c 2
 709 986 l 1
 654 975 599 944 545 891 c 0
 519 865 498 838 483 811 c 1
 315 837 l 1
 352 918 411 988 492 1049 c 0
 583 1116 674 1149 766 1149 c 0
 894 1149 990 1115 1055 1047 c 1
 1112 989 1135 909 1124 806 c 0
 1122 789 1119 771 1116 753 c 1
EndSplineSet
EndChar
StartChar: uni0E33
Encoding: 173 3635 175
OldEncoding: 3635
Width: 1050
Flags: HW
Fore
1065 753 m 1
 905 0 l 1
 745 0 l 1
 899 729 l 1
 933 887 874 973 723 987 c 0
 713 988 703 989 692 989 c 2
 658 986 l 1
 603 975 548 944 494 891 c 0
 468 865 447 838 432 811 c 1
 264 837 l 1
 301 918 360 988 441 1049 c 0
 532 1116 623 1149 715 1149 c 0
 843 1149 939 1115 1004 1047 c 1
 1061 989 1084 909 1073 806 c 0
 1071 789 1068 771 1065 753 c 1
55 1668 m 0
 125 1668 178 1642 215 1591 c 0
 244 1550 252 1500 240 1441 c 0
 224 1368 183 1308 116 1263 c 0
 66 1229 14 1212 -41 1212 c 0
 -106 1212 -156 1237 -192 1288 c 0
 -223 1332 -233 1383 -220 1441 c 0
 -206 1507 -168 1563 -106 1610 c 0
 -55 1649 -1 1668 55 1668 c 0
30 1540 m 0
 -9 1540 -42 1524 -69 1492 c 1
 -85 1468 l 1
 -90 1458 -94 1448 -96 1437 c 0
 -104 1400 -95 1371 -70 1350 c 0
 -54 1338 -35 1332 -13 1332 c 0
 32 1332 68 1350 94 1385 c 0
 106 1401 114 1418 118 1437 c 0
 127 1477 116 1506 86 1525 c 0
 71 1535 52 1540 30 1540 c 0
EndSplineSet
EndChar
StartChar: uni0E34
Encoding: 174 3636 176
OldEncoding: 3636
Width: 0
Flags: HW
Fore
80 1227 m 1
 -56 1258 -260 1284 -532 1307 c 0
 -661 1317 -765 1322 -843 1322 c 1
 -807 1391 -745 1458 -657 1523 c 0
 -624 1547 -591 1567 -560 1583 c 0
 -484 1622 -400 1641 -309 1641 c 0
 -289 1641 -269 1640 -249 1638 c 0
 -161 1628 -85 1593 -22 1532 c 0
 -16 1527 -10 1521 -4 1515 c 0
 55 1450 83 1354 80 1227 c 1
-76 1359 m 1
 -74 1391 -91 1424 -127 1459 c 0
 -172 1502 -226 1525 -290 1530 c 1
 -346 1530 l 1
 -431 1525 -504 1497 -563 1448 c 1
 -590 1421 l 2
 -592 1418 -594 1416 -597 1413 c 1
 -509 1412 l 1
 -368 1404 -240 1390 -125 1369 c 0
 -105 1366 -89 1362 -76 1359 c 1
EndSplineSet
EndChar
StartChar: uni0E35
Encoding: 175 3637 177
OldEncoding: 3637
Width: 0
Flags: HW
Fore
80 1260 m 1
 81 1249 81 1238 81 1228 c 1
 -56 1259 -260 1285 -531 1308 c 0
 -660 1318 -764 1323 -842 1323 c 1
 -807 1392 -745 1459 -657 1524 c 0
 -624 1548 -591 1568 -560 1584 c 0
 -483 1623 -399 1642 -308 1642 c 0
 -288 1642 -268 1641 -249 1639 c 0
 -161 1629 -85 1594 -22 1533 c 0
 -12 1525 l 1
 31 1735 l 1
 181 1735 l 1
 80 1260 l 1
-87 1370 m 1
 -95 1401 -120 1432 -161 1461 c 0
 -202 1490 -246 1506 -294 1511 c 1
 -342 1512 l 1
 -409 1508 -472 1489 -529 1454 c 1
 -559 1434 l 2
 -563 1431 -567 1427 -570 1424 c 1
 -472 1424 -350 1413 -205 1392 c 0
 -154 1385 -114 1377 -87 1370 c 1
EndSplineSet
EndChar
StartChar: uni0E36
Encoding: 176 3638 178
OldEncoding: 3638
Width: 0
Flags: HW
Fore
-37 1548 m 1
 -20 1585 3 1614 31 1635 c 0
 72 1666 114 1681 159 1681 c 0
 214 1681 255 1661 284 1620 c 0
 307 1587 314 1548 305 1502 c 0
 292 1445 260 1398 207 1362 c 0
 167 1335 124 1321 78 1321 c 1
 81 1304 82 1273 81 1228 c 1
 -56 1259 -260 1285 -531 1308 c 0
 -660 1318 -764 1323 -842 1323 c 1
 -807 1392 -745 1459 -657 1524 c 0
 -624 1548 -591 1568 -560 1584 c 0
 -483 1623 -399 1642 -308 1642 c 0
 -288 1642 -268 1641 -249 1639 c 0
 -170 1630 -99 1599 -37 1548 c 1
135 1568 m 0
 107 1568 84 1556 65 1533 c 0
 56 1523 51 1512 48 1500 c 0
 43 1473 51 1452 72 1438 c 0
 81 1432 92 1429 105 1429 c 0
 137 1429 162 1442 181 1468 c 0
 188 1478 192 1489 194 1500 c 0
 200 1528 191 1548 167 1561 c 0
 158 1566 147 1568 135 1568 c 0
-85 1358 m 1
 -94 1389 -117 1421 -156 1454 c 0
 -199 1489 -245 1508 -294 1513 c 1
 -338 1514 l 1
 -402 1509 -466 1487 -530 1448 c 1
 -564 1423 l 2
 -569 1420 -573 1416 -576 1412 c 1
 -477 1412 -354 1401 -207 1380 c 0
 -153 1373 -112 1365 -85 1358 c 1
EndSplineSet
EndChar
StartChar: uni0E37
Encoding: 177 3639 179
OldEncoding: 3639
Width: 0
Flags: HW
Fore
-87 1544 m 1
 -72 1544 -51 1528 -22 1497 c 0
 -21 1495 -20 1494 -19 1493 c 1
 23 1695 l 1
 173 1695 l 1
 80 1258 l 1
 70 1201 l 1
 -65 1232 -274 1258 -557 1281 c 0
 -674 1291 -765 1296 -829 1296 c 1
 -778 1389 -696 1468 -582 1534 c 0
 -519 1571 -445 1594 -360 1604 c 1
 -299 1607 l 1
 -272 1606 -247 1603 -226 1598 c 1
 -205 1696 l 1
 -55 1696 l 1
 -87 1544 l 1
-113 1343 m 1
 -123 1382 -148 1415 -188 1442 c 0
 -221 1464 -258 1476 -301 1479 c 1
 -356 1479 l 1
 -440 1472 -509 1443 -562 1390 c 2
 -565 1387 l 1
 -443 1382 l 1
 -276 1371 -166 1358 -113 1343 c 1
EndSplineSet
EndChar
StartChar: uni0E38
Encoding: 178 3640 180
OldEncoding: 3640
Width: 0
Flags: HW
Fore
-454 -534 m 1
 -417 -360 l 1
 -429 -369 -441 -374 -453 -375 c 2
 -487 -376 l 1
 -516 -374 -540 -362 -558 -341 c 1
 -579 -318 -585 -285 -576 -244 c 0
 -573 -228 -567 -211 -558 -192 c 0
 -541 -157 -512 -129 -471 -107 c 0
 -444 -92 -417 -85 -390 -85 c 1
 -353 -88 l 1
 -313 -96 -286 -115 -273 -145 c 1
 -260 -178 -260 -230 -273 -299 c 0
 -274 -304 -275 -308 -276 -313 c 1
 -323 -534 l 1
 -454 -534 l 1
-417 -163 m 0
 -424 -163 -432 -165 -439 -168 c 0
 -456 -175 -470 -186 -483 -203 c 0
 -490 -214 -495 -225 -498 -236 c 0
 -507 -279 -493 -303 -457 -307 c 0
 -454 -308 -451 -308 -448 -308 c 0
 -441 -308 -433 -305 -425 -300 c 0
 -403 -286 -389 -265 -383 -237 c 0
 -382 -235 -382 -233 -382 -232 c 0
 -374 -187 -386 -164 -417 -163 c 0
EndSplineSet
EndChar
StartChar: uni0E39
Encoding: 179 3641 181
OldEncoding: 3641
Width: 0
Flags: HW
Fore
-371 -96 m 1
 -237 -96 l 1
 -330 -534 l 1
 -740 -534 l 1
 -703 -360 l 1
 -715 -369 -727 -374 -739 -375 c 2
 -773 -376 l 1
 -802 -374 -826 -362 -844 -341 c 1
 -865 -318 -871 -285 -862 -244 c 0
 -859 -228 -853 -211 -844 -192 c 0
 -827 -157 -798 -129 -757 -107 c 0
 -730 -92 -703 -85 -676 -85 c 1
 -639 -88 l 1
 -599 -96 -572 -115 -559 -145 c 1
 -546 -178 -546 -230 -559 -299 c 0
 -560 -304 -561 -308 -562 -313 c 1
 -588 -435 l 1
 -443 -435 l 1
 -371 -96 l 1
-703 -163 m 0
 -710 -163 -718 -165 -725 -168 c 0
 -742 -175 -756 -186 -769 -203 c 0
 -776 -214 -781 -225 -784 -236 c 0
 -793 -279 -779 -303 -743 -307 c 0
 -740 -308 -737 -308 -734 -308 c 0
 -727 -308 -719 -305 -711 -300 c 0
 -689 -286 -675 -265 -669 -237 c 0
 -668 -235 -668 -233 -668 -232 c 0
 -660 -187 -672 -164 -703 -163 c 0
EndSplineSet
EndChar
StartChar: uni0E3A
Encoding: 180 3642 182
OldEncoding: 3642
Width: 0
Flags: HW
Fore
-258 -60 m 0
 -221 -60 -193 -73 -173 -99 c 0
 -152 -128 -145 -160 -152 -195 c 0
 -160 -232 -180 -263 -213 -289 c 1
 -245 -316 -279 -330 -316 -330 c 0
 -351 -330 -380 -316 -401 -289 c 0
 -422 -262 -428 -231 -421 -195 c 0
 -414 -160 -394 -128 -361 -99 c 1
 -328 -73 -294 -60 -258 -60 c 0
EndSplineSet
EndChar
StartChar: uni0E3F
Encoding: 181 3647 183
OldEncoding: 3647
Width: 1250
Flags: HW
Fore
1058 827 m 1
 1142 802 1201 757 1236 693 c 1
 1270 627 1277 548 1258 457 c 0
 1229 324 1159 216 1048 133 c 0
 936 50 804 6 653 2 c 1
 624 -133 l 1
 512 -133 l 1
 541 0 l 1
 152 0 l 1
 468 1489 l 1
 857 1489 l 1
 880 1595 l 1
 992 1595 l 1
 969 1489 l 1
 1114 1487 1217 1458 1280 1402 c 0
 1341 1347 1360 1261 1335 1144 c 0
 1322 1082 1290 1022 1241 965 c 0
 1191 908 1131 865 1060 836 c 1
 1058 827 l 1
729 885 m 1
 821 1321 l 1
 628 1321 l 1
 536 885 l 1
 729 885 l 1
841 887 m 1
 900 888 957 906 1014 941 c 0
 1069 976 1105 1037 1123 1124 c 0
 1137 1189 1130 1235 1101 1264 c 0
 1072 1293 1032 1310 981 1315 c 1
 970 1315 954 1316 933 1319 c 1
 841 887 l 1
577 170 m 1
 693 719 l 1
 500 719 l 1
 384 170 l 1
 577 170 l 1
689 174 m 1
 778 178 856 202 921 246 c 0
 987 291 1030 359 1049 449 c 0
 1064 518 1065 569 1052 602 c 0
 1039 635 1013 662 972 683 c 1
 932 706 876 717 805 717 c 1
 689 174 l 1
EndSplineSet
EndChar
StartChar: uni0E40
Encoding: 182 3648 184
OldEncoding: 3648
Width: 700
Flags: HW
Fore
411 1149 m 1
 571 1149 l 1
 412 403 l 1
 405 369 l 1
 420 383 443 392 476 396 c 0
 479 397 483 397 487 397 c 2
 521 395 l 1
 554 390 582 374 603 347 c 0
 642 297 641 226 600 135 c 1
 579 92 545 55 496 25 c 0
 458 2 418 -10 376 -11 c 0
 372 -11 372 -11 367 -11 c 0
 313 -10 272 8 243 44 c 0
 208 87 200 159 221 258 c 1
 252 403 l 1
 411 1149 l 1
415 97 m 0
 446 97 474 112 500 143 c 0
 513 160 522 177 526 194 c 0
 527 197 527 199 527 201 c 0
 534 247 523 278 495 294 c 1
 485 301 473 304 459 304 c 1
 422 301 396 286 381 257 c 0
 374 242 367 222 362 196 c 0
 353 145 360 114 381 103 c 0
 390 99 401 97 415 97 c 0
EndSplineSet
EndChar
StartChar: uni0E41
Encoding: 183 3649 185
OldEncoding: 3649
Width: 1320
Flags: HW
Fore
1048 1149 m 1
 1208 1149 l 1
 1049 403 l 1
 1042 369 l 1
 1057 383 1080 392 1113 396 c 0
 1116 397 1120 397 1124 397 c 2
 1158 395 l 1
 1191 390 1219 374 1240 347 c 0
 1279 297 1278 226 1237 135 c 1
 1216 92 1182 55 1133 25 c 0
 1095 2 1055 -10 1013 -11 c 0
 1009 -11 1009 -11 1004 -11 c 0
 950 -10 909 8 880 44 c 0
 845 87 837 159 858 258 c 1
 889 403 l 1
 1048 1149 l 1
1052 97 m 0
 1083 97 1111 112 1137 143 c 0
 1150 160 1159 177 1163 194 c 0
 1164 197 1164 199 1164 201 c 0
 1171 247 1160 278 1132 294 c 1
 1122 301 1110 304 1096 304 c 1
 1059 301 1033 286 1018 257 c 0
 1011 242 1004 222 999 196 c 0
 990 145 997 114 1018 103 c 0
 1027 99 1038 97 1052 97 c 0
435 1149 m 1
 595 1149 l 1
 436 403 l 1
 429 369 l 1
 444 383 467 392 500 396 c 0
 503 397 507 397 511 397 c 2
 545 395 l 1
 578 390 606 374 627 347 c 0
 666 297 665 226 624 135 c 1
 603 92 569 55 520 25 c 0
 482 2 442 -10 400 -11 c 0
 396 -11 396 -11 391 -11 c 0
 337 -10 296 8 267 44 c 0
 232 87 224 159 245 258 c 1
 276 403 l 1
 435 1149 l 1
439 97 m 0
 470 97 498 112 524 143 c 0
 537 160 546 177 550 194 c 0
 551 197 551 199 551 201 c 0
 558 247 547 278 519 294 c 1
 509 301 497 304 483 304 c 1
 446 301 420 286 405 257 c 0
 398 242 391 222 386 196 c 0
 377 145 384 114 405 103 c 0
 414 99 425 97 439 97 c 0
EndSplineSet
EndChar
StartChar: uni0E42
Encoding: 184 3650 186
OldEncoding: 3650
Width: 1100
Flags: HW
Fore
741 850 m 2
 758 931 760 987 747 1017 c 0
 737 1038 715 1057 681 1076 c 0
 601 1120 464 1153 270 1175 c 1
 277 1204 308 1256 364 1331 c 0
 375 1346 386 1359 396 1370 c 0
 464 1451 542 1507 630 1539 c 0
 675 1556 719 1564 763 1564 c 0
 770 1564 777 1564 784 1563 c 0
 823 1561 877 1546 947 1517 c 0
 987 1500 1018 1488 1039 1483 c 0
 1089 1470 1137 1463 1182 1463 c 0
 1260 1463 1326 1483 1379 1524 c 1
 1325 1370 l 1
 1259 1339 1191 1323 1120 1323 c 0
 1077 1323 1035 1329 994 1340 c 0
 979 1345 940 1361 875 1388 c 0
 827 1409 786 1421 752 1424 c 1
 717 1423 l 1
 657 1416 597 1381 536 1319 c 0
 523 1306 511 1293 502 1280 c 1
 641 1255 745 1220 814 1174 c 0
 825 1167 835 1159 842 1152 c 0
 882 1114 906 1077 915 1041 c 1
 924 999 919 936 902 852 c 1
 806 403 l 1
 799 369 l 1
 814 383 837 392 870 396 c 0
 874 397 878 397 882 397 c 2
 915 395 l 1
 949 390 977 374 998 347 c 0
 1037 297 1036 226 995 135 c 1
 974 92 940 55 891 25 c 0
 852 2 812 -10 770 -11 c 0
 762 -11 l 0
 708 -10 667 8 638 44 c 1
 602 87 594 159 615 258 c 1
 646 403 l 1
 741 850 l 2
809 97 m 0
 840 97 868 112 894 143 c 0
 908 160 917 177 921 194 c 0
 922 197 922 199 921 201 c 1
 928 247 917 278 890 294 c 0
 879 301 867 304 853 304 c 1
 816 301 791 286 776 257 c 0
 768 242 761 222 756 196 c 1
 748 145 755 114 776 103 c 0
 784 99 795 97 809 97 c 0
EndSplineSet
EndChar
StartChar: uni0E43
Encoding: 185 3651 187
OldEncoding: 3651
Width: 1000
Flags: HW
Fore
828 632 m 2
 779 403 l 1
 772 369 l 1
 786 383 810 392 843 396 c 0
 846 397 850 397 854 397 c 2
 888 395 l 1
 921 390 949 374 970 347 c 0
 1009 297 1008 226 967 135 c 1
 946 92 912 55 863 25 c 0
 825 2 785 -10 743 -11 c 0
 739 -11 739 -11 734 -11 c 0
 680 -10 639 8 610 44 c 0
 575 87 567 159 588 258 c 1
 619 403 l 1
 668 634 l 1
 687 721 711 786 741 830 c 0
 748 841 757 853 766 865 c 0
 775 877 807 909 862 961 c 1
 937 1034 984 1095 1003 1144 c 1
 1012 1180 l 1
 1013 1187 1014 1193 1015 1200 c 0
 1017 1278 987 1336 926 1374 c 1
 892 1394 855 1404 816 1404 c 1
 851 1373 862 1322 848 1250 c 1
 834 1200 l 1
 817 1153 795 1116 767 1088 c 0
 699 1021 621 988 534 987 c 0
 515 987 496 989 476 992 c 0
 406 1003 359 1038 334 1095 c 0
 325 1114 320 1134 319 1157 c 0
 318 1175 319 1195 324 1217 c 0
 337 1276 364 1330 405 1380 c 0
 412 1389 419 1396 426 1403 c 0
 520 1492 631 1543 760 1557 c 0
 779 1559 798 1560 817 1560 c 2
 877 1557 l 1
 985 1544 1064 1499 1113 1424 c 0
 1148 1371 1163 1305 1159 1226 c 0
 1158 1207 1156 1188 1152 1169 c 0
 1133 1082 1087 1006 1014 942 c 0
 957 891 917 849 896 816 c 0
 867 772 845 711 828 632 c 2
782 97 m 0
 813 97 841 112 867 143 c 0
 880 160 889 177 893 194 c 0
 894 197 894 199 894 201 c 0
 901 247 890 278 862 294 c 1
 852 301 840 304 826 304 c 1
 789 301 763 286 748 257 c 0
 741 242 734 222 729 196 c 0
 720 145 727 114 748 103 c 0
 757 99 768 97 782 97 c 0
606 1350 m 0
 565 1347 528 1330 495 1298 c 1
 476 1277 463 1255 458 1231 c 0
 458 1230 458 1228 457 1226 c 0
 448 1173 463 1135 500 1113 c 0
 517 1104 537 1099 561 1099 c 1
 596 1102 l 1
 643 1111 680 1135 707 1172 c 0
 718 1189 726 1207 730 1226 c 0
 731 1227 731 1229 731 1230 c 0
 738 1274 725 1307 690 1330 c 0
 670 1343 646 1350 617 1350 c 0
 612 1350 612 1350 606 1350 c 0
EndSplineSet
EndChar
StartChar: uni0E44
Encoding: 186 3652 188
OldEncoding: 3652
Width: 1140
Flags: HW
Fore
1114 1341 m 2
 914 403 l 1
 907 369 l 1
 922 383 945 392 978 396 c 0
 982 397 986 397 989 397 c 2
 1023 395 l 1
 1056 390 1084 374 1105 347 c 0
 1144 297 1143 226 1102 135 c 1
 1081 92 1047 55 998 25 c 0
 960 2 920 -10 878 -11 c 0
 874 -11 874 -11 869 -11 c 0
 815 -10 774 8 745 44 c 0
 710 87 702 159 723 258 c 1
 754 403 l 1
 951 1327 l 1
 965 1394 956 1427 925 1427 c 0
 901 1427 878 1406 856 1363 c 1
 791 1221 l 1
 784 1208 777 1195 770 1184 c 0
 731 1122 685 1084 634 1069 c 0
 611 1062 583 1059 551 1059 c 0
 483 1059 436 1084 409 1133 c 0
 384 1181 363 1303 348 1498 c 1
 347 1506 346 1514 346 1521 c 1
 495 1521 l 1
 507 1306 l 1
 509 1241 525 1199 556 1180 c 0
 564 1175 572 1173 581 1173 c 0
 615 1173 646 1197 674 1246 c 0
 680 1256 692 1281 711 1322 c 1
 760 1422 795 1483 818 1504 c 1
 844 1531 881 1551 929 1564 c 0
 948 1569 964 1572 978 1572 c 0
 1066 1568 1114 1530 1123 1457 c 1
 1123 1411 l 1
 1116 1352 l 1
 1115 1348 1115 1344 1114 1341 c 2
917 97 m 0
 948 97 976 112 1002 143 c 0
 1015 160 1024 177 1028 194 c 0
 1029 197 1029 199 1029 201 c 0
 1036 247 1025 278 997 294 c 1
 987 301 975 304 961 304 c 1
 924 301 899 286 884 257 c 0
 876 242 869 222 864 196 c 0
 855 145 862 114 883 103 c 0
 892 99 903 97 917 97 c 0
EndSplineSet
EndChar
StartChar: uni0E45
Encoding: 187 3653 189
OldEncoding: 3653
Width: 1000
Flags: HW
Fore
1043 753 m 1
 802 -380 l 1
 642 -380 l 1
 877 729 l 1
 911 887 852 973 701 987 c 0
 691 988 681 989 670 989 c 2
 636 986 l 1
 581 975 526 944 472 891 c 0
 446 865 425 838 410 811 c 1
 242 837 l 1
 279 918 338 988 419 1049 c 0
 510 1116 601 1149 693 1149 c 0
 821 1149 917 1115 982 1047 c 1
 1039 989 1062 909 1051 806 c 0
 1049 789 1046 771 1043 753 c 1
EndSplineSet
EndChar
StartChar: uni0E46
Encoding: 188 3654 190
OldEncoding: 3654
Width: 1100
Flags: HW
Fore
457 609 m 1
 483 608 l 1
 512 612 539 627 562 654 c 1
 563 657 565 659 567 662 c 0
 580 680 588 699 592 718 c 0
 595 733 596 747 594 760 c 0
 590 781 578 796 559 804 c 0
 558 805 556 805 553 806 c 2
 525 808 l 1
 490 806 462 789 439 758 c 1
 434 753 430 747 427 740 c 0
 421 727 417 715 414 702 c 1
 411 673 l 1
 415 647 l 1
 423 626 437 613 457 609 c 1
708 -374 m 1
 955 789 955 789 961 817 c 128
 965 836 963 864 954 903 c 1
 949 929 934 956 908 985 c 0
 908 984 853 952 743 887 c 1
 624 968 l 1
 613 977 606 982 605 985 c 1
 584 972 562 948 539 913 c 2
 526 892 l 1
 539 898 554 901 571 901 c 0
 578 901 587 901 596 900 c 0
 641 895 673 867 692 817 c 1
 700 794 700 765 693 732 c 0
 683 685 663 642 632 601 c 0
 603 562 561 535 508 520 c 0
 488 515 468 512 448 512 c 0
 439 512 431 513 422 514 c 0
 369 520 330 549 305 602 c 0
 303 607 301 611 298 616 c 1
 285 651 286 702 301 771 c 0
 304 785 308 798 312 810 c 0
 334 877 376 946 438 1017 c 0
 481 1065 534 1105 599 1137 c 0
 616 1146 630 1152 641 1155 c 1
 641 1154 686 1118 777 1047 c 1
 944 1155 l 1
 981 1144 1018 1116 1055 1071 c 0
 1062 1062 1069 1052 1076 1042 c 0
 1103 1001 1118 941 1120 864 c 0
 1121 834 1120 809 1115 789 c 1
 868 -374 l 1
 708 -374 l 1
EndSplineSet
EndChar
StartChar: uni0E47
Encoding: 189 3655 191
OldEncoding: 3655
Width: 0
Flags: HW
Fore
-116 1583 m 0
 -141 1582 -161 1570 -177 1548 c 1
 -188 1528 l 1
 -190 1517 l 1
 -194 1491 -184 1474 -161 1465 c 0
 -154 1462 -145 1460 -134 1460 c 0
 -108 1461 -87 1473 -72 1495 c 0
 -67 1502 -63 1510 -62 1519 c 0
 -56 1546 -64 1565 -87 1576 c 1
 -94 1581 -104 1583 -116 1583 c 0
-221 1434 m 0
 -248 1454 -258 1483 -251 1522 c 0
 -248 1533 -244 1544 -239 1553 c 0
 -215 1596 -178 1623 -127 1633 c 0
 -120 1634 -112 1635 -104 1636 c 1
 -66 1634 l 1
 -19 1627 9 1605 20 1566 c 0
 28 1539 28 1509 21 1476 c 0
 15 1447 5 1420 -10 1395 c 0
 -49 1334 -99 1298 -161 1287 c 0
 -172 1285 -184 1284 -195 1284 c 0
 -270 1284 -331 1300 -376 1333 c 1
 -419 1362 l 1
 -432 1369 -447 1372 -462 1372 c 0
 -483 1372 -498 1354 -507 1318 c 0
 -513 1296 -518 1285 -522 1284 c 0
 -621 1284 -683 1320 -708 1393 c 0
 -721 1428 -723 1467 -714 1510 c 0
 -710 1529 -704 1546 -696 1563 c 0
 -653 1654 -583 1716 -484 1749 c 0
 -482 1750 -479 1750 -476 1751 c 0
 -423 1768 -352 1777 -263 1778 c 0
 -202 1779 -160 1782 -136 1789 c 0
 -87 1803 -47 1827 -17 1862 c 0
 -8 1872 -0 1883 5 1894 c 1
 147 1894 l 1
 131 1841 92 1790 29 1742 c 0
 -15 1708 -59 1686 -102 1675 c 0
 -136 1666 -194 1661 -275 1660 c 0
 -355 1659 -417 1650 -460 1631 c 0
 -509 1610 -541 1578 -558 1537 c 1
 -567 1505 l 1
 -568 1472 l 1
 -566 1444 -555 1430 -535 1430 c 1
 -523 1461 l 1
 -502 1503 -471 1524 -430 1524 c 0
 -408 1524 -384 1511 -357 1486 c 0
 -324 1455 -297 1435 -276 1426 c 0
 -250 1415 -220 1409 -185 1409 c 0
 -172 1409 -161 1412 -153 1417 c 1
 -186 1418 l 1
 -197 1421 -209 1426 -221 1434 c 0
EndSplineSet
EndChar
StartChar: uni0E48
Encoding: 190 3656 192
OldEncoding: 3656
Width: 0
Flags: HW
Fore
114 2106 m 1
 256 2106 l 1
 197 1826 l 1
 55 1826 l 1
 114 2106 l 1
EndSplineSet
EndChar
StartChar: uni0E49
Encoding: 191 3657 193
OldEncoding: 3657
Width: 0
Flags: HW
Fore
525 2156 m 1
 463 2021 355 1910 200 1825 c 0
 79 1758 -43 1718 -168 1706 c 1
 -229 1703 l 1
 -212 1783 l 1
 -178 1791 -147 1810 -119 1840 c 0
 -109 1851 -98 1869 -86 1893 c 1
 -104 1886 -123 1882 -142 1882 c 0
 -176 1882 -205 1895 -229 1920 c 0
 -252 1943 -258 1977 -249 2020 c 0
 -247 2030 l 0
 -237 2069 -216 2101 -184 2127 c 0
 -153 2153 -117 2167 -77 2170 c 1
 -55 2170 l 1
 -15 2167 14 2158 33 2143 c 0
 42 2135 52 2125 61 2113 c 1
 80 2084 86 2049 78 2009 c 0
 77 2006 76 2002 75 1998 c 0
 60 1943 37 1897 8 1862 c 2
 -4 1848 l 1
 119 1891 222 1957 303 2046 c 0
 335 2081 362 2117 383 2156 c 1
 525 2156 l 1
-111 1945 m 0
 -86 1945 -62 1957 -40 1981 c 0
 -28 1994 -20 2009 -17 2024 c 0
 -12 2049 -19 2070 -40 2087 c 0
 -51 2097 -64 2102 -78 2102 c 0
 -105 2102 -130 2090 -152 2066 c 0
 -164 2053 -172 2039 -175 2024 c 0
 -182 1994 -173 1971 -149 1956 c 0
 -138 1949 -125 1945 -111 1945 c 0
EndSplineSet
EndChar
StartChar: uni0E4A
Encoding: 192 3658 194
OldEncoding: 3658
Width: 0
Flags: HW
Fore
-196 1799 m 1
 -193 1822 -200 1839 -219 1850 c 0
 -226 1854 -234 1856 -243 1856 c 0
 -246 1856 -246 1856 -248 1856 c 0
 -273 1854 -293 1841 -306 1817 c 1
 -314 1794 l 1
 -314 1793 -314 1793 -315 1792 c 0
 -319 1767 -312 1750 -293 1741 c 0
 -287 1738 -280 1736 -271 1736 c 0
 -246 1736 -225 1748 -208 1771 c 0
 -203 1779 -199 1788 -196 1799 c 1
235 1839 m 1
 451 2169 l 1
 586 2169 l 2
 585 2169 518 2057 385 1832 c 0
 334 1747 240 1695 102 1677 c 0
 78 1674 54 1672 30 1672 c 1
 76 1725 105 1781 118 1840 c 0
 125 1877 125 1910 117 1941 c 0
 108 1974 91 2001 64 2020 c 1
 -102 1902 l 1
 -182 1988 l 1
 -198 2004 -210 2015 -217 2020 c 1
 -268 2001 -306 1966 -331 1915 c 0
 -338 1900 -344 1886 -347 1871 c 0
 -350 1859 -351 1848 -350 1837 c 1
 -347 1846 -338 1859 -323 1875 c 0
 -300 1901 -268 1914 -228 1914 c 0
 -216 1914 -206 1913 -198 1910 c 0
 -159 1897 -139 1869 -139 1826 c 0
 -139 1820 -139 1814 -140 1807 c 1
 -149 1774 l 1
 -165 1732 -193 1703 -233 1686 c 0
 -260 1674 -290 1668 -321 1668 c 0
 -349 1668 -374 1672 -396 1681 c 0
 -441 1700 -468 1738 -476 1795 c 0
 -479 1822 -478 1853 -471 1886 c 0
 -465 1908 l 0
 -445 1980 -390 2044 -300 2101 c 1
 -261 2124 -224 2142 -189 2154 c 1
 -74 2036 l 1
 92 2154 l 1
 145 2135 188 2097 219 2042 c 0
 250 1989 260 1933 247 1876 c 0
 244 1863 240 1851 235 1839 c 1
EndSplineSet
EndChar
StartChar: uni0E4B
Encoding: 193 3659 195
OldEncoding: 3659
Width: 0
Flags: HW
Fore
221 1812 m 1
 79 1812 l 1
 48 1670 l 1
 -93 1670 l 1
 -62 1812 l 1
 -204 1812 l 1
 -174 1954 l 1
 -32 1954 l 1
 -2 2096 l 1
 139 2096 l 1
 109 1954 l 1
 251 1954 l 1
 221 1812 l 1
EndSplineSet
EndChar
StartChar: uni0E4C
Encoding: 194 3660 196
OldEncoding: 3660
Width: 0
Flags: HW
Fore
489 2169 m 1
 462 2122 409 2076 328 2030 c 0
 307 2018 296 2011 294 2010 c 0
 260 1989 209 1970 140 1952 c 1
 91 1942 l 1
 136 1932 163 1906 171 1864 c 1
 175 1817 l 1
 171 1789 l 1
 165 1764 149 1734 122 1699 c 0
 94 1662 51 1637 -8 1625 c 0
 -21 1623 -33 1622 -44 1621 c 1
 -86 1624 l 1
 -141 1633 -181 1651 -204 1680 c 0
 -205 1681 -205 1681 -207 1683 c 0
 -230 1716 -239 1756 -233 1805 c 1
 -227 1831 l 1
 -209 1891 -178 1937 -134 1969 c 0
 -94 1998 -24 2023 77 2044 c 0
 121 2053 148 2060 159 2063 c 0
 210 2079 256 2102 297 2133 c 0
 313 2146 325 2158 334 2169 c 1
 489 2169 l 1
-8 1885 m 0
 -43 1885 -73 1871 -97 1844 c 1
 -111 1821 l 2
 -116 1812 -120 1803 -123 1792 c 0
 -126 1775 -123 1758 -114 1742 c 0
 -98 1717 -74 1705 -41 1705 c 1
 -0 1710 30 1728 51 1758 c 0
 59 1769 64 1782 67 1795 c 0
 76 1834 65 1861 34 1876 c 0
 22 1882 8 1885 -8 1885 c 0
EndSplineSet
EndChar
StartChar: uni0E4D
Encoding: 195 3661 197
OldEncoding: 3661
Width: 0
Flags: HW
Fore
59 1514 m 0
 100 1514 133 1499 156 1470 c 1
 178 1440 185 1404 176 1362 c 0
 167 1321 146 1286 111 1257 c 0
 75 1228 37 1213 -4 1213 c 0
 -45 1213 -77 1228 -100 1257 c 0
 -123 1286 -131 1321 -122 1362 c 0
 -113 1404 -91 1440 -55 1470 c 0
 -20 1499 18 1514 59 1514 c 0
10 1285 m 0
 32 1285 52 1292 70 1307 c 0
 89 1322 101 1341 106 1362 c 0
 111 1383 107 1402 94 1418 c 0
 82 1433 65 1441 43 1441 c 0
 22 1441 2 1433 -17 1418 c 0
 -36 1402 -48 1383 -53 1362 c 0
 -58 1341 -54 1322 -41 1307 c 0
 -28 1292 -11 1285 10 1285 c 0
EndSplineSet
EndChar
StartChar: uni0E4E
Encoding: 196 3662 198
OldEncoding: 3662
Width: 0
Flags: HW
Fore
302 1901 m 1
 242 1917 188 1925 139 1925 c 0
 54 1925 8 1905 0 1866 c 0
 -9 1821 39 1798 144 1798 c 2
 214 1798 l 1
 190 1686 l 1
 125 1686 l 2
 1 1686 -65 1666 -74 1626 c 0
 -78 1606 -63 1589 -29 1575 c 0
 5 1561 54 1554 117 1554 c 2
 195 1554 l 1
 171 1444 l 1
 87 1444 l 2
 -12 1444 -87 1461 -138 1495 c 128
 -189 1529 -209 1569 -199 1616 c 0
 -193 1644 -178 1670 -152 1694 c 128
 -128 1717 -98 1734 -63 1743 c 1
 -114 1772 -134 1815 -122 1872 c 0
 -111 1921 -81 1961 -32 1991 c 0
 16 2021 78 2036 153 2036 c 0
 209 2036 266 2028 325 2013 c 1
 302 1901 l 1
EndSplineSet
EndChar
StartChar: uni0E4F
Encoding: 197 3663 199
OldEncoding: 3663
Width: 1250
Flags: HW
Fore
703 917 m 0
 590 917 485 877 388 797 c 1
 290 717 229 621 205 508 c 0
 181 396 201 299 265 219 c 0
 328 139 416 100 530 100 c 0
 643 100 749 139 847 219 c 1
 944 299 1004 396 1028 508 c 0
 1052 621 1033 717 969 797 c 0
 906 877 817 917 703 917 c 0
586 361 m 0
 630 361 670 375 705 403 c 0
 739 431 761 466 770 509 c 0
 780 552 773 588 750 616 c 0
 727 644 693 658 649 658 c 0
 604 658 565 644 530 616 c 0
 495 588 473 552 464 509 c 0
 455 466 462 431 485 403 c 0
 507 375 541 361 586 361 c 0
729 1040 m 0
 873 1040 984 988 1064 884 c 0
 1143 780 1168 655 1136 509 c 0
 1105 363 1028 238 905 134 c 1
 781 30 647 -21 503 -21 c 0
 360 -21 249 30 170 134 c 0
 90 238 65 363 97 509 c 0
 128 655 205 780 329 884 c 1
 453 988 586 1040 729 1040 c 0
562 258 m 0
 489 258 433 282 396 330 c 0
 358 377 348 438 363 511 c 0
 379 584 415 644 473 692 c 0
 530 739 596 763 670 763 c 0
 744 763 800 739 837 692 c 0
 874 644 885 584 870 511 c 0
 854 438 818 377 760 330 c 0
 702 282 637 258 562 258 c 0
EndSplineSet
EndChar
StartChar: uni0E50
Encoding: 198 3664 200
OldEncoding: 3664
Width: 1250
Flags: HW
Fore
659 163 m 0
 746 163 826 192 900 250 c 0
 973 308 1019 377 1036 457 c 0
 1053 540 1036 611 985 668 c 0
 936 723 869 751 784 751 c 0
 699 750 621 721 549 663 c 0
 479 606 436 537 419 457 c 0
 400 370 417 297 469 240 c 0
 515 189 578 163 659 163 c 0
619 -10 m 0
 500 -10 404 28 332 105 c 0
 261 180 229 275 236 390 c 0
 238 412 242 435 247 458 c 0
 272 576 333 679 432 767 c 0
 525 850 630 901 747 918 c 0
 771 922 795 924 818 924 c 1
 880 921 l 1
 993 907 1080 860 1143 779 c 0
 1208 695 1231 595 1212 479 c 0
 1209 458 l 0
 1185 347 1125 247 1029 159 c 0
 936 74 832 20 715 -1 c 0
 683 -7 651 -10 619 -10 c 0
EndSplineSet
EndChar
StartChar: uni0E51
Encoding: 199 3665 201
OldEncoding: 3665
Width: 1300
Flags: HW
Fore
1042 529 m 0
 1045 647 995 721 892 751 c 0
 861 760 825 765 785 765 c 0
 713 765 649 740 592 690 c 0
 571 671 553 651 540 629 c 0
 523 600 511 571 504 541 c 0
 499 514 498 488 502 465 c 0
 503 460 505 456 507 452 c 1
 524 395 569 366 641 363 c 0
 644 363 646 363 649 362 c 0
 662 362 676 364 689 368 c 0
 719 377 740 390 751 409 c 1
 756 421 l 1
 743 413 726 409 706 409 c 1
 673 412 l 1
 663 415 654 418 647 422 c 0
 614 441 599 473 601 519 c 1
 605 550 l 1
 618 599 648 637 695 663 c 0
 706 669 717 674 728 677 c 0
 751 684 774 687 799 687 c 0
 826 687 851 683 873 675 c 0
 911 662 937 632 950 585 c 0
 953 574 955 564 956 553 c 0
 959 520 957 489 951 462 c 0
 943 426 928 392 907 360 c 0
 860 289 796 242 717 218 c 0
 684 208 650 203 615 203 c 0
 522 203 447 232 388 291 c 1
 367 314 350 339 337 367 c 0
 316 414 313 476 329 552 c 0
 340 606 359 653 386 692 c 0
 387 694 389 696 390 697 c 0
 485 832 607 906 756 921 c 0
 773 923 791 924 808 924 c 2
 883 921 l 1
 1046 904 1149 836 1193 715 c 0
 1209 672 1217 624 1216 570 c 0
 1215 531 1211 492 1203 453 c 0
 1178 338 1124 240 1040 159 c 1
 946 66 821 12 664 -4 c 0
 638 -7 610 -9 580 -10 c 1
 512 -8 l 1
 402 1 313 31 245 82 c 0
 231 93 219 104 209 115 c 1
 324 254 l 1
 377 197 450 162 545 149 c 0
 565 146 585 145 604 145 c 0
 608 145 608 145 611 145 c 0
 699 146 783 172 862 223 c 0
 879 234 896 246 911 259 c 0
 967 307 1006 371 1029 450 c 1
 1039 501 l 1
 1040 511 1041 520 1042 529 c 0
700 545 m 0
 695 520 702 503 722 492 c 0
 730 487 739 485 750 485 c 0
 781 485 804 500 818 529 c 0
 821 535 824 541 825 548 c 0
 830 569 822 585 802 596 c 0
 794 601 784 603 773 603 c 0
 746 602 725 591 710 568 c 0
 705 561 702 553 700 545 c 0
EndSplineSet
EndChar
StartChar: uni0E52
Encoding: 200 3666 202
OldEncoding: 3666
Width: 1350
Flags: HW
Fore
700 513 m 0
 695 489 702 471 721 460 c 0
 729 455 738 453 749 453 c 0
 780 453 803 468 817 497 c 0
 820 503 823 509 824 516 c 0
 829 537 821 553 801 564 c 0
 794 569 784 571 772 571 c 0
 745 570 724 559 709 536 c 0
 704 529 701 521 700 513 c 0
656 0 m 2
 582 0 525 1 485 4 c 128
 445 6 399 35 346 92 c 0
 338 101 330 110 322 120 c 0
 296 153 288 216 297 307 c 1
 337 611 l 1
 357 801 350 975 316 1134 c 1
 510 1134 l 1
 537 979 537 788 512 560 c 1
 496 426 488 351 487 334 c 0
 486 293 489 266 498 252 c 0
 525 210 557 185 592 178 c 0
 607 175 631 173 663 173 c 2
 693 173 l 1
 1077 174 l 1
 1148 506 l 1
 1161 570 1160 624 1145 667 c 0
 1134 695 1119 719 1100 738 c 2
 1094 744 l 1
 1093 743 1054 720 975 674 c 1
 876 744 l 1
 849 733 822 711 797 679 c 1
 824 679 l 1
 861 675 891 657 914 624 c 1
 921 616 926 607 929 598 c 0
 939 570 941 541 934 511 c 0
 925 469 902 430 863 394 c 0
 827 360 783 343 731 343 c 0
 708 343 685 347 664 355 c 0
 655 358 646 363 638 368 c 0
 577 405 556 473 577 570 c 0
 578 575 579 581 580 586 c 0
 599 664 637 732 693 790 c 0
 718 816 758 845 811 877 c 0
 850 900 884 915 914 924 c 1
 914 923 945 892 1008 831 c 1
 1132 924 l 1
 1173 913 1211 887 1247 847 c 1
 1273 815 l 1
 1274 813 l 2
 1305 765 1324 720 1331 679 c 0
 1339 631 1336 573 1321 506 c 1
 1214 0 l 1
 656 0 l 2
EndSplineSet
EndChar
StartChar: uni0E53
Encoding: 201 3667 203
OldEncoding: 3667
Width: 1400
Flags: HW
Fore
343 136 m 1
 344 114 355 100 376 94 c 1
 397 92 l 1
 402 93 406 93 410 94 c 0
 442 103 461 122 468 152 c 0
 469 159 470 165 470 171 c 0
 469 191 457 204 436 209 c 1
 414 210 l 1
 410 209 406 208 401 207 c 0
 374 200 357 184 348 160 c 1
 343 140 l 1
 344 139 344 137 343 136 c 1
213 108 m 0
 195 182 188 285 193 416 c 0
 196 476 201 524 208 561 c 1
 225 622 l 1
 263 738 324 822 409 873 c 0
 464 907 528 924 599 924 c 1
 653 922 l 1
 738 913 801 878 843 819 c 1
 854 802 863 785 868 768 c 1
 915 829 973 873 1041 900 c 0
 1081 916 1122 924 1163 924 c 0
 1383 924 1463 779 1402 489 c 1
 1377 387 l 1
 1345 276 1296 147 1229 0 c 1
 1053 0 l 1
 1134 188 1187 328 1214 419 c 1
 1237 511 l 1
 1270 672 1238 753 1143 753 c 0
 1083 753 1029 723 980 663 c 0
 957 634 940 603 928 570 c 0
 891 475 859 373 831 264 c 0
 824 236 824 236 819 216 c 1
 689 216 l 1
 706 292 715 392 718 515 c 1
 719 539 719 558 718 573 c 0
 715 645 692 697 650 728 c 0
 629 745 603 753 572 753 c 0
 483 753 423 701 390 597 c 1
 376 540 l 1
 360 463 357 392 366 326 c 0
 367 322 367 318 367 314 c 1
 395 326 424 332 453 332 c 0
 492 332 523 321 546 300 c 0
 584 265 597 219 585 163 c 0
 579 133 565 102 543 70 c 0
 511 22 460 -5 391 -11 c 1
 345 -11 l 2
 342 -10 340 -10 338 -10 c 0
 276 -3 236 32 217 94 c 0
 213 108 l 0
EndSplineSet
EndChar
StartChar: uni0E54
Encoding: 202 3668 204
OldEncoding: 3668
Width: 1550
Flags: HW
Fore
1730 1262 m 1
 1680 1097 1599 972 1487 888 c 0
 1375 804 1237 762 1074 762 c 2
 814 762 l 2
 581 762 443 662 400 461 c 0
 381 373 394 300 436 244 c 128
 480 186 542 158 623 158 c 0
 684 158 807 182 991 231 c 1
 961 257 938 292 922 335 c 0
 906 378 902 420 910 459 c 0
 926 533 959 590 1010 631 c 0
 1061 672 1119 692 1183 692 c 0
 1236 692 1277 673 1306 636 c 0
 1335 599 1345 555 1334 504 c 0
 1323 455 1297 411 1255 374 c 0
 1212 337 1162 317 1104 313 c 1
 1129 282 1159 262 1194 254 c 0
 1295 229 1367 193 1412 145 c 1
 1252 -2 l 1
 1231 22 1206 41 1177 55 c 0
 1149 69 1105 76 1046 76 c 0
 1003 76 938 64 849 40 c 0
 736 9 646 -6 578 -6 c 0
 452 -6 355 40 286 132 c 128
 218 224 198 336 226 469 c 0
 258 618 332 731 448 808 c 128
 565 885 705 924 868 924 c 2
 1114 924 l 2
 1326 924 1470 1037 1546 1262 c 1
 1730 1262 l 1
1126 428 m 0
 1147 428 1166 435 1185 450 c 0
 1203 464 1214 481 1218 502 c 0
 1223 524 1219 543 1208 558 c 0
 1197 573 1180 580 1159 580 c 0
 1138 580 1119 572 1101 558 c 128
 1083 542 1072 524 1067 502 c 0
 1063 481 1067 464 1078 450 c 0
 1089 435 1105 428 1126 428 c 0
EndSplineSet
EndChar
StartChar: uni0E55
Encoding: 203 3669 205
OldEncoding: 3669
Width: 1550
Flags: HW
Fore
1730 1262 m 1
 1680 1097 1599 972 1487 888 c 0
 1375 804 1237 762 1074 762 c 2
 814 762 l 2
 581 762 443 662 400 461 c 0
 381 373 394 300 436 244 c 128
 480 186 542 158 623 158 c 0
 684 158 807 182 991 231 c 1
 961 257 938 292 922 335 c 0
 906 378 902 420 910 459 c 0
 926 533 959 590 1010 631 c 0
 1061 672 1119 692 1183 692 c 0
 1236 692 1277 673 1306 636 c 0
 1335 599 1345 555 1334 504 c 0
 1323 455 1297 411 1255 374 c 0
 1212 337 1162 317 1104 313 c 1
 1129 282 1158 262 1192 254 c 0
 1293 229 1365 193 1410 145 c 1
 1252 -2 l 1
 1231 22 1206 41 1177 55 c 0
 1149 69 1105 76 1046 76 c 0
 1003 76 938 64 849 40 c 0
 736 9 646 -6 578 -6 c 0
 452 -6 355 40 286 132 c 128
 218 224 198 336 226 469 c 0
 255 602 320 709 423 788 c 0
 525 867 655 912 813 922 c 1
 808 948 808 973 813 997 c 0
 824 1049 853 1093 898 1130 c 0
 943 1167 992 1186 1045 1186 c 0
 1097 1186 1138 1167 1167 1130 c 0
 1196 1093 1205 1049 1194 997 c 0
 1189 970 1179 947 1165 926 c 1
 1350 945 1477 1057 1546 1262 c 1
 1730 1262 l 1
988 922 m 0
 1008 922 1027 929 1046 944 c 0
 1064 958 1075 975 1079 995 c 0
 1084 1017 1080 1035 1069 1050 c 0
 1058 1065 1042 1073 1021 1073 c 0
 1000 1073 980 1066 962 1050 c 128
 944 1036 933 1017 928 995 c 0
 924 975 928 958 940 944 c 0
 951 929 967 922 988 922 c 0
1126 428 m 0
 1147 428 1166 435 1185 450 c 0
 1203 464 1214 481 1218 502 c 0
 1223 524 1219 543 1208 558 c 0
 1197 573 1180 580 1159 580 c 0
 1138 580 1119 572 1101 558 c 128
 1083 542 1072 524 1067 502 c 0
 1063 481 1067 464 1078 450 c 0
 1089 435 1105 428 1126 428 c 0
EndSplineSet
EndChar
StartChar: uni0E56
Encoding: 204 3670 206
OldEncoding: 3670
Width: 1300
Flags: HW
Fore
610 885 m 1
 692 914 772 928 850 928 c 0
 1010 928 1131 883 1212 792 c 0
 1294 702 1319 583 1288 436 c 0
 1259 301 1190 191 1081 108 c 0
 972 25 850 -16 715 -16 c 0
 604 -16 518 20 459 91 c 0
 400 162 380 245 399 338 c 0
 415 413 449 474 502 522 c 0
 556 570 614 594 677 594 c 0
 729 594 770 575 799 538 c 0
 828 501 838 457 827 406 c 0
 816 356 790 313 748 276 c 0
 707 239 657 219 600 215 c 1
 607 195 626 177 656 162 c 0
 685 147 716 139 748 139 c 0
 835 139 913 166 982 222 c 128
 1050 276 1093 348 1112 436 c 0
 1133 535 1116 613 1061 672 c 0
 1006 731 924 760 814 760 c 0
 701 760 596 741 497 702 c 1
 448 945 375 1131 280 1262 c 1
 528 1262 l 1
 579 1141 607 1015 610 885 c 1
623 330 m 0
 644 330 663 337 680 352 c 1
 699 366 710 383 714 403 c 0
 719 425 715 444 704 458 c 128
 692 474 676 481 655 481 c 0
 634 481 615 473 597 458 c 0
 578 443 567 425 562 403 c 0
 558 383 562 366 574 352 c 0
 586 337 602 330 623 330 c 0
EndSplineSet
EndChar
StartChar: uni0E57
Encoding: 205 3671 207
OldEncoding: 3671
Width: 1540
Flags: HW
Fore
1487 334 m 1
 1440 111 1297 -0 1057 0 c 2
 791 0 l 1
 793 10 l 1
 828 53 867 117 908 203 c 0
 949 289 976 367 991 436 c 0
 1016 550 1025 632 1020 684 c 128
 1015 734 995 760 960 760 c 0
 886 760 828 662 787 467 c 1
 613 467 l 1
 654 662 639 760 567 760 c 0
 498 760 441 652 395 436 c 0
 385 389 381 359 382 348 c 1
 404 357 434 362 471 362 c 0
 525 362 566 343 595 306 c 1
 622 268 631 223 620 172 c 0
 609 120 581 76 536 39 c 0
 490 2 441 -16 389 -16 c 0
 306 -16 249 23 219 101 c 0
 188 179 188 291 219 436 c 0
 288 761 416 924 602 924 c 0
 694 924 749 875 766 776 c 1
 828 875 904 924 995 924 c 0
 1180 924 1238 761 1169 436 c 0
 1151 349 1121 263 1079 178 c 1
 1094 178 l 2
 1209 178 1277 231 1300 338 c 2
 1469 1130 l 1
 1657 1130 l 1
 1487 334 l 1
413 96 m 0
 443 96 468 109 487 135 c 0
 496 147 502 160 505 174 c 0
 512 203 504 224 481 238 c 0
 470 245 458 248 445 248 c 0
 416 248 391 236 371 211 c 0
 362 200 356 187 353 174 c 0
 346 143 355 120 379 105 c 0
 389 99 400 96 413 96 c 0
EndSplineSet
EndChar
StartChar: uni0E58
Encoding: 206 3672 208
OldEncoding: 3672
Width: 1580
Flags: HW
Fore
1730 1262 m 1
 1681 1099 1600 975 1487 888 c 0
 1405 825 1290 787 1143 776 c 0
 1118 774 1036 772 899 769 c 0
 768 766 671 753 607 728 c 0
 540 701 489 659 453 600 c 1
 429 555 l 1
 418 527 408 496 400 461 c 0
 383 382 392 315 425 260 c 0
 458 205 505 175 568 170 c 1
 585 251 616 318 658 370 c 128
 702 423 751 449 808 449 c 0
 843 449 876 439 909 420 c 0
 941 401 979 357 1024 287 c 0
 1062 228 1092 191 1115 176 c 0
 1138 161 1162 154 1187 154 c 0
 1226 154 1261 169 1292 200 c 0
 1323 230 1344 271 1356 324 c 1
 1335 314 1305 309 1267 309 c 0
 1214 309 1173 328 1145 366 c 0
 1117 403 1109 448 1120 500 c 0
 1131 551 1159 595 1204 632 c 0
 1249 669 1298 688 1350 688 c 0
 1425 688 1480 660 1515 603 c 0
 1550 546 1558 472 1538 381 c 0
 1512 258 1464 161 1393 92 c 0
 1322 23 1242 -12 1152 -12 c 0
 1107 -12 1064 1 1022 28 c 0
 981 54 934 110 881 196 c 0
 846 254 820 283 803 283 c 0
 774 283 750 236 729 141 c 1
 700 0 l 1
 575 0 l 2
 446 0 349 45 282 134 c 0
 216 223 197 335 226 469 c 0
 257 615 331 728 448 808 c 0
 538 869 658 906 807 917 c 0
 824 918 901 921 1038 925 c 0
 1165 929 1261 944 1325 971 c 0
 1431 1015 1502 1102 1538 1232 c 0
 1541 1242 1544 1252 1546 1262 c 1
 1730 1262 l 1
1294 424 m 0
 1324 424 1349 437 1368 462 c 0
 1377 473 1382 485 1385 498 c 0
 1392 529 1384 552 1361 566 c 1
 1341 574 l 1
 1326 575 l 2
 1295 575 1270 562 1250 535 c 1
 1238 513 l 1
 1236 508 1234 503 1233 498 c 0
 1227 469 1235 448 1258 434 c 0
 1268 427 1280 424 1294 424 c 0
EndSplineSet
EndChar
StartChar: uni0E59
Encoding: 207 3673 209
OldEncoding: 3673
Width: 1500
Flags: HW
Fore
1639 1130 m 1
 1582 912 1520 762 1454 679 c 1
 1387 596 1314 555 1237 555 c 0
 1205 555 1176 564 1151 582 c 0
 1126 599 1103 637 1080 696 c 1
 1065 739 1050 760 1035 760 c 0
 1001 760 955 708 896 604 c 1
 999 0 l 1
 825 0 l 1
 737 546 l 1
 725 616 711 669 696 706 c 0
 681 742 658 760 628 760 c 0
 575 760 529 732 488 676 c 128
 448 620 417 540 395 436 c 0
 386 395 382 366 382 348 c 1
 404 357 434 362 471 362 c 0
 525 362 566 343 595 306 c 1
 622 268 631 223 620 172 c 0
 609 120 581 76 536 39 c 0
 490 2 441 -16 389 -16 c 0
 306 -16 249 23 219 101 c 0
 188 179 188 291 219 436 c 0
 252 593 307 714 383 798 c 0
 460 882 553 924 663 924 c 0
 766 924 834 875 866 776 c 1
 930 875 998 924 1070 924 c 0
 1095 924 1117 916 1138 900 c 128
 1158 884 1179 849 1201 794 c 0
 1222 745 1240 721 1257 721 c 0
 1316 721 1382 857 1454 1130 c 1
 1639 1130 l 1
413 96 m 0
 434 96 453 103 471 118 c 0
 489 133 500 152 505 174 c 0
 510 194 506 211 494 226 c 0
 482 241 466 248 445 248 c 128
 424 248 405 241 388 226 c 0
 369 211 358 194 353 174 c 0
 348 152 352 134 364 118 c 128
 376 104 392 96 413 96 c 0
EndSplineSet
EndChar
StartChar: uni0E5A
Encoding: 208 3674 210
OldEncoding: 3674
Width: 1400
Flags: HW
Fore
1263 1120 m 1
 1025 0 l 1
 845 0 l 1
 1010 777 l 1
 943 728 884 695 833 678 c 1
 771 662 l 1
 722 651 673 646 624 646 c 0
 529 646 455 663 402 698 c 1
 360 721 332 758 318 808 c 0
 311 834 309 860 313 885 c 0
 323 950 356 1005 413 1049 c 0
 452 1079 494 1097 540 1103 c 0
 602 1112 651 1097 687 1058 c 0
 713 1030 725 995 724 953 c 0
 721 895 691 845 632 803 c 1
 651 794 689 796 744 809 c 0
 871 840 967 906 1032 1008 c 0
 1053 1042 1070 1079 1083 1120 c 1
 1263 1120 l 1
528 994 m 0
 499 989 477 975 462 951 c 1
 452 929 l 1
 449 909 l 1
 449 886 460 871 483 862 c 0
 490 859 498 858 507 858 c 0
 510 858 513 858 516 859 c 0
 549 864 574 879 590 904 c 0
 595 912 598 920 600 929 c 0
 601 932 601 934 601 937 c 0
 602 960 592 978 571 989 c 1
 562 993 552 995 542 995 c 0
 537 995 533 995 528 994 c 0
1253 0 m 1
 1065 0 l 1
 1303 1120 l 1
 1491 1120 l 1
 1253 0 l 1
EndSplineSet
EndChar
StartChar: uni0E5B
Encoding: 209 3675 211
OldEncoding: 3675
Width: 2370
Flags: HW
Fore
1804 340 m 0
 1792 340 1774 318 1748 275 c 0
 1708 209 1680 167 1663 147 c 0
 1633 112 1603 94 1575 94 c 0
 1544 94 1525 127 1516 192 c 0
 1504 312 l 0
 1500 338 1491 351 1480 351 c 0
 1468 351 1451 328 1427 281 c 0
 1391 211 1366 166 1351 146 c 0
 1329 116 1306 97 1284 91 c 0
 1266 88 l 0
 1215 88 1187 127 1181 206 c 0
 1181 217 1181 261 1182 338 c 0
 1182 353 1182 366 1181 376 c 0
 1172 375 1156 357 1134 322 c 0
 1092 254 1056 205 1027 175 c 0
 1015 161 1002 149 989 138 c 0
 907 54 795 6 653 -7 c 0
 626 -9 596 -10 566 -10 c 0
 557 -10 l 0
 436 -9 338 38 263 130 c 0
 257 136 252 143 247 150 c 0
 194 223 171 305 178 396 c 0
 180 423 184 452 191 483 c 0
 216 603 265 704 336 787 c 0
 355 808 374 827 395 844 c 0
 501 930 608 977 716 985 c 0
 725 986 734 986 743 986 c 0
 872 986 962 949 1012 875 c 0
 1028 848 l 0
 1059 781 1066 704 1047 614 c 0
 1038 576 1026 541 1010 510 c 0
 1008 507 1008 507 1006 504 c 0
 960 421 893 358 805 316 c 0
 746 288 686 273 625 272 c 0
 582 275 l 0
 526 285 484 312 457 358 c 0
 439 390 432 425 436 464 c 0
 445 514 l 0
 466 591 508 652 571 697 c 0
 576 700 581 703 585 706 c 0
 616 725 647 735 679 735 c 0
 705 735 730 728 753 714 c 0
 779 698 794 677 799 649 c 0
 800 642 l 0
 801 628 800 613 797 597 c 0
 792 575 784 555 771 537 c 0
 751 508 722 486 684 473 c 0
 665 466 648 463 632 463 c 0
 618 463 606 466 595 471 c 0
 598 463 l 0
 609 446 631 436 663 430 c 0
 697 429 l 0
 710 430 722 432 734 436 c 0
 776 449 812 478 842 523 c 0
 860 549 873 579 881 612 c 0
 888 652 l 0
 892 718 864 764 803 792 c 0
 773 805 738 812 700 812 c 0
 641 812 582 793 521 755 c 0
 508 747 496 739 486 730 c 0
 414 667 367 585 345 483 c 0
 328 402 333 335 362 282 c 0
 367 273 373 263 379 254 c 0
 404 219 442 190 493 169 c 0
 526 155 558 148 589 148 c 0
 595 148 l 0
 740 152 855 197 940 282 c 0
 994 340 l 0
 1020 369 1055 418 1099 489 c 0
 1134 546 1162 582 1185 598 c 0
 1201 609 1219 615 1237 615 c 0
 1288 615 1313 579 1314 508 c 0
 1309 383 l 0
 1312 364 l 0
 1315 359 1318 357 1323 357 c 0
 1342 357 1360 377 1378 416 c 0
 1421 518 l 0
 1450 578 1487 611 1532 615 c 0
 1536 615 1539 615 1543 615 c 0
 1582 615 1605 585 1611 524 c 0
 1617 390 l 0
 1620 362 1630 348 1645 348 c 0
 1660 348 1676 363 1695 392 c 0
 1722 433 1738 457 1743 463 c 0
 1767 492 1794 507 1823 507 c 0
 1846 507 1865 490 1878 457 c 0
 1905 389 l 0
 1925 347 1958 326 2004 326 c 0
 2383 326 l 0
 2360 218 l 0
 1975 218 l 0
 1910 218 1860 249 1825 310 c 0
 1814 330 1806 340 1804 340 c 0
716 605 m 0
 721 628 714 645 695 654 c 0
 688 657 681 658 673 658 c 0
 650 658 631 647 617 627 c 0
 612 619 609 611 607 602 c 0
 603 579 610 563 630 554 c 0
 636 551 643 550 652 550 c 0
 676 550 694 561 708 583 c 0
 712 590 714 597 716 605 c 0
EndSplineSet
EndChar
StartChar: afii61664
Encoding: 210 8204 212
OldEncoding: 8204
Width: 0
Flags: HW
Fore
309 1289 m 1
 -22 -275 l 1
 -94 -275 l 1
 237 1289 l 1
 309 1289 l 1
EndSplineSet
EndChar
StartChar: afii301
Encoding: 211 8205 213
OldEncoding: 8205
Width: 0
Flags: HW
Fore
-22 -275 m 1
 -94 -275 l 1
 200 1114 l 1
 37 978 l 1
 0 1027 l 1
 206 1196 l 1
 70 1364 l 1
 130 1413 l 1
 263 1242 l 1
 470 1413 l 1
 508 1364 l 1
 302 1196 l 1
 437 1027 l 1
 377 978 l 1
 272 1114 l 1
 -22 -275 l 1
EndSplineSet
EndChar
StartChar: afii299
Encoding: 212 8206 214
OldEncoding: 8206
Width: 0
Flags: HW
Fore
684 1198 m 1
 422 984 l 1
 383 1033 l 1
 548 1163 l 1
 282 1163 l 1
 -23 -275 l 1
 -94 -275 l 1
 226 1234 l 1
 563 1234 l 1
 453 1364 l 1
 513 1413 l 1
 684 1198 l 1
EndSplineSet
EndChar
StartChar: afii300
Encoding: 213 8207 215
OldEncoding: 8207
Width: 0
Flags: HW
Fore
-23 -275 m 1
 -94 -275 l 1
 211 1163 l 1
 -54 1163 l 1
 54 1033 l 1
 -4 984 l 1
 -176 1198 l 1
 86 1413 l 1
 124 1364 l 1
 -39 1234 l 1
 297 1234 l 1
 -23 -275 l 1
EndSplineSet
EndChar
StartChar: uni2010
Encoding: 214 8208 216
OldEncoding: 8208
Width: 973
Flags: HW
Fore
348 745 m 1
 973 745 l 1
 938 580 l 1
 313 580 l 1
 348 745 l 1
EndSplineSet
EndChar
StartChar: endash
Encoding: 215 8211 217
OldEncoding: 8211
Width: 1125
Flags: HW
Fore
1243 572 m 1
 117 572 l 1
 151 732 l 1
 1277 732 l 1
 1243 572 l 1
EndSplineSet
EndChar
StartChar: emdash
Encoding: 216 8212 218
OldEncoding: 8212
Width: 1886
Flags: HW
Fore
1987 572 m 1
 117 572 l 1
 151 732 l 1
 2021 732 l 1
 1987 572 l 1
EndSplineSet
EndChar
StartChar: afii00208
Encoding: 217 8213 219
OldEncoding: 8213
Width: 1862
Flags: HW
Fore
1873 572 m 1
 231 572 l 1
 265 732 l 1
 1907 732 l 1
 1873 572 l 1
EndSplineSet
EndChar
StartChar: underscoredbl
Encoding: 218 8215 220
OldEncoding: 8215
Width: 1118
Flags: HW
Fore
1088 -212 m 1
 -61 -212 l 1
 -33 -82 l 1
 1116 -82 l 1
 1088 -212 l 1
1044 -423 m 1
 -105 -423 l 1
 -78 -293 l 1
 1071 -293 l 1
 1044 -423 l 1
EndSplineSet
EndChar
StartChar: quoteleft
Encoding: 219 8216 221
OldEncoding: 8216
Width: 450
Flags: HW
Fore
546 997 m 1
 408 997 l 1
 266 1556 l 1
 508 1556 l 1
 546 997 l 1
EndSplineSet
EndChar
StartChar: quoteright
Encoding: 220 8217 222
OldEncoding: 8217
Width: 580
Flags: HW
Fore
826 1556 m 1
 446 997 l 1
 308 997 l 1
 584 1556 l 1
 826 1556 l 1
EndSplineSet
EndChar
StartChar: quotesinglbase
Encoding: 221 8218 223
OldEncoding: 8218
Width: 432
Flags: HW
Fore
446 283 m 1
 66 -276 l 1
 -71 -276 l 1
 204 283 l 1
 446 283 l 1
EndSplineSet
EndChar
StartChar: quotereversed
Encoding: 222 8219 224
OldEncoding: 8219
Width: 432
Flags: HW
Fore
665 1556 m 1
 389 997 l 1
 147 997 l 1
 527 1556 l 1
 665 1556 l 1
EndSplineSet
EndChar
StartChar: quotedblleft
Encoding: 223 8220 225
OldEncoding: 8220
Width: 850
Flags: HW
Fore
936 997 m 1
 802 997 l 1
 660 1556 l 1
 898 1556 l 1
 936 997 l 1
542 997 m 1
 408 997 l 1
 266 1556 l 1
 504 1556 l 1
 542 997 l 1
EndSplineSet
EndChar
StartChar: quotedblright
Encoding: 224 8221 226
OldEncoding: 8221
Width: 1000
Flags: HW
Fore
1226 1556 m 1
 846 997 l 1
 712 997 l 1
 988 1556 l 1
 1226 1556 l 1
832 1556 m 1
 452 997 l 1
 318 997 l 1
 594 1556 l 1
 832 1556 l 1
EndSplineSet
EndChar
StartChar: quotedblbase
Encoding: 225 8222 227
OldEncoding: 8222
Width: 814
Flags: HW
Fore
841 283 m 1
 461 -276 l 1
 327 -276 l 1
 603 283 l 1
 841 283 l 1
447 283 m 1
 67 -276 l 1
 -66 -276 l 1
 209 283 l 1
 447 283 l 1
EndSplineSet
EndChar
StartChar: dagger
Encoding: 226 8224 228
OldEncoding: 8224
Width: 1118
Flags: HW
Fore
1202 1034 m 1
 840 1039 l 1
 653 135 l 1
 521 135 l 1
 718 1039 l 1
 354 1034 l 1
 382 1163 l 1
 744 1158 l 1
 823 1556 l 1
 955 1556 l 1
 866 1158 l 1
 1230 1163 l 1
 1202 1034 l 1
EndSplineSet
EndChar
StartChar: daggerdbl
Encoding: 227 8225 229
OldEncoding: 8225
Width: 1118
Flags: HW
Fore
1090 507 m 1
 728 512 l 1
 651 124 l 1
 519 124 l 1
 606 512 l 1
 242 507 l 1
 270 636 l 1
 632 631 l 1
 720 1049 l 1
 356 1044 l 1
 384 1173 l 1
 746 1168 l 1
 823 1556 l 1
 955 1556 l 1
 868 1168 l 1
 1232 1173 l 1
 1204 1044 l 1
 842 1049 l 1
 754 631 l 1
 1118 636 l 1
 1090 507 l 1
EndSplineSet
EndChar
StartChar: bullet
Encoding: 228 8226 230
OldEncoding: 8226
Width: 950
Flags: HW
Fore
957 662 m 0
 936 565 884 483 801 414 c 128
 718 345 628 311 531 311 c 0
 434 311 359 345 304 414 c 128
 250 483 233 565 254 662 c 128
 275 759 327 841 410 910 c 128
 493 979 583 1013 680 1013 c 0
 777 1013 852 979 907 910 c 0
 961 841 978 759 957 662 c 0
EndSplineSet
EndChar
StartChar: ellipsis
Encoding: 229 8230 231
OldEncoding: 8230
Width: 1650
Flags: HW
Fore
1497 0 m 1
 1293 0 l 1
 1340 223 l 1
 1544 223 l 1
 1497 0 l 1
939 0 m 1
 735 0 l 1
 782 223 l 1
 986 223 l 1
 939 0 l 1
381 0 m 1
 177 0 l 1
 224 223 l 1
 428 223 l 1
 381 0 l 1
EndSplineSet
EndChar
StartChar: perthousand
Encoding: 230 8240 232
OldEncoding: 8240
Width: 2848
Flags: HW
Fore
1035 1076 m 0
 1003 926 949 815 874 742 c 128
 798 670 703 634 589 634 c 0
 473 634 393 671 349 744 c 128
 305 817 299 928 330 1075 c 0
 362 1224 416 1335 492 1408 c 128
 568 1481 663 1517 777 1517 c 0
 893 1517 973 1480 1016 1407 c 128
 1060 1334 1066 1223 1035 1076 c 0
1789 1489 m 1
 693 0 l 1
 528 0 l 1
 1624 1489 l 1
 1789 1489 l 1
1984 413 m 0
 1952 263 1898 152 1822 80 c 128
 1747 7 1652 -29 1538 -29 c 0
 1422 -29 1342 8 1298 81 c 128
 1254 154 1248 265 1279 412 c 0
 1311 561 1365 672 1441 745 c 128
 1517 818 1612 854 1726 854 c 0
 1842 854 1922 817 1966 744 c 128
 2009 671 2015 560 1984 413 c 0
857 1076 m 0
 879 1177 884 1254 871 1306 c 128
 858 1358 818 1384 749 1384 c 128
 680 1384 628 1358 593 1305 c 128
 558 1252 529 1176 508 1075 c 0
 487 975 482 899 494 846 c 128
 505 793 547 767 618 767 c 0
 687 767 738 793 773 846 c 128
 808 899 836 975 857 1076 c 0
1806 413 m 0
 1828 514 1833 591 1820 643 c 128
 1807 695 1767 721 1698 721 c 128
 1629 721 1577 695 1542 642 c 128
 1507 589 1478 513 1457 412 c 0
 1436 312 1431 236 1442 183 c 128
 1454 130 1496 104 1567 104 c 0
 1636 104 1687 130 1722 183 c 128
 1757 236 1785 312 1806 413 c 0
2828 413 m 0
 2796 263 2742 152 2666 80 c 128
 2591 7 2496 -29 2382 -29 c 0
 2266 -29 2186 8 2142 81 c 128
 2098 154 2092 265 2123 412 c 0
 2155 561 2209 672 2285 745 c 128
 2361 818 2456 854 2570 854 c 0
 2686 854 2766 817 2810 744 c 128
 2853 671 2859 560 2828 413 c 0
2650 413 m 0
 2672 514 2677 591 2664 643 c 128
 2651 695 2611 721 2542 721 c 128
 2473 721 2421 695 2386 642 c 128
 2351 589 2322 513 2301 412 c 0
 2280 312 2275 236 2286 183 c 128
 2298 130 2340 104 2411 104 c 0
 2480 104 2531 130 2566 183 c 128
 2601 236 2629 312 2650 413 c 0
EndSplineSet
EndChar
StartChar: minute
Encoding: 231 8242 233
OldEncoding: 8242
Width: 602
Flags: HW
Fore
887 1489 m 1
 457 870 l 1
 321 870 l 1
 647 1489 l 1
 887 1489 l 1
EndSplineSet
EndChar
StartChar: second
Encoding: 232 8243 234
OldEncoding: 8243
Width: 972
Flags: HW
Fore
883 1489 m 1
 453 870 l 1
 321 870 l 1
 647 1489 l 1
 883 1489 l 1
1277 1489 m 1
 847 870 l 1
 715 870 l 1
 1041 1489 l 1
 1277 1489 l 1
EndSplineSet
EndChar
StartChar: guilsinglleft
Encoding: 233 8249 235
OldEncoding: 8249
Width: 784
Flags: HW
Fore
669 172 m 1
 252 608 l 1
 271 697 l 1
 873 1132 l 1
 831 933 l 1
 440 652 l 1
 711 371 l 1
 669 172 l 1
EndSplineSet
EndChar
StartChar: guilsinglright
Encoding: 234 8250 236
OldEncoding: 8250
Width: 784
Flags: HW
Fore
790 608 m 1
 187 172 l 1
 229 371 l 1
 620 652 l 1
 349 933 l 1
 391 1132 l 1
 809 697 l 1
 790 608 l 1
EndSplineSet
EndChar
StartChar: uni203E
Encoding: 236 8254 238
OldEncoding: 8254
Width: 1118
Flags: HW
Fore
1470 1658 m 1
 304 1658 l 1
 332 1789 l 1
 1498 1789 l 1
 1470 1658 l 1
EndSplineSet
EndChar
StartChar: fraction
Encoding: 237 8260 239
OldEncoding: 8260
Width: 886
Flags: HW
Fore
1232 1489 m 1
 136 0 l 1
 -29 0 l 1
 1067 1489 l 1
 1232 1489 l 1
EndSplineSet
EndChar
StartChar: uni207F
Encoding: 238 8319 240
OldEncoding: 8319
Width: 1010
Flags: HW
Fore
1010 566 m 1
 838 566 l 1
 949 1088 l 2
 959 1135 966 1176 971 1210 c 128
 976 1244 974 1273 966 1298 c 0
 959 1322 945 1340 924 1351 c 128
 902 1362 871 1368 831 1368 c 0
 789 1368 746 1357 700 1336 c 128
 656 1314 609 1287 562 1254 c 1
 416 566 l 1
 245 566 l 1
 441 1488 l 1
 612 1488 l 1
 591 1388 l 1
 648 1430 702 1462 752 1485 c 128
 802 1508 854 1519 908 1519 c 0
 1005 1519 1073 1489 1114 1428 c 128
 1154 1368 1162 1280 1137 1163 c 2
 1010 566 l 1
EndSplineSet
EndChar
StartChar: uni25CC
Encoding: 239 9676 241
OldEncoding: 9676
Width: 1255
Flags: HW
Fore
340 928 m 0
 343 945 352 960 366 972 c 128
 380 983 396 989 413 989 c 0
 430 989 444 983 452 972 c 128
 462 960 464 945 461 928 c 0
 457 911 448 896 434 885 c 128
 420 874 404 868 387 868 c 0
 370 868 356 874 348 885 c 128
 338 896 336 911 340 928 c 0
559 1071 m 0
 563 1088 572 1103 586 1114 c 128
 599 1126 615 1132 632 1132 c 0
 649 1132 663 1126 672 1114 c 128
 681 1103 684 1088 680 1071 c 0
 677 1054 668 1039 654 1028 c 128
 639 1017 623 1011 606 1011 c 0
 589 1011 576 1017 567 1028 c 128
 558 1039 556 1054 559 1071 c 0
800 1139 m 0
 803 1156 812 1171 826 1182 c 128
 840 1194 856 1200 873 1200 c 0
 890 1200 904 1194 912 1182 c 128
 922 1171 924 1156 921 1139 c 0
 917 1122 908 1107 894 1096 c 128
 880 1085 864 1079 847 1079 c 0
 830 1079 816 1085 808 1096 c 128
 798 1107 796 1122 800 1139 c 0
129 505 m 0
 132 522 141 537 155 548 c 128
 169 560 185 566 202 566 c 0
 219 566 232 560 242 548 c 128
 250 537 253 522 250 505 c 0
 246 488 237 473 223 462 c 128
 209 451 193 445 176 445 c 0
 159 445 146 451 136 462 c 128
 128 473 125 488 129 505 c 0
208 309 m 0
 212 326 221 341 234 352 c 128
 248 364 264 370 281 370 c 0
 298 370 312 364 321 352 c 128
 330 341 333 326 329 309 c 0
 326 292 317 277 302 266 c 128
 288 255 272 249 255 249 c 0
 238 249 225 255 216 266 c 128
 207 277 205 292 208 309 c 0
319 158 m 0
 323 175 332 190 346 202 c 128
 359 213 375 219 392 219 c 0
 409 219 423 213 432 202 c 128
 441 190 444 175 440 158 c 0
 437 141 428 126 414 115 c 128
 399 104 383 98 366 98 c 0
 349 98 336 104 327 115 c 128
 318 126 316 141 319 158 c 0
565 67 m 0
 568 84 577 99 591 110 c 128
 605 122 621 128 638 128 c 0
 655 128 668 122 678 110 c 128
 686 99 689 84 686 67 c 0
 682 50 673 35 659 24 c 128
 645 13 629 7 612 7 c 0
 595 7 582 13 572 24 c 128
 564 35 561 50 565 67 c 0
872 128 m 0
 875 145 884 160 898 172 c 128
 912 183 928 189 945 189 c 0
 962 189 976 183 984 172 c 128
 994 160 996 145 993 128 c 0
 989 111 980 96 966 85 c 128
 952 74 936 68 919 68 c 0
 902 68 888 74 880 85 c 128
 870 96 868 111 872 128 c 0
1073 294 m 0
 1077 311 1086 326 1100 338 c 128
 1113 349 1129 355 1146 355 c 0
 1163 355 1177 349 1186 338 c 128
 1195 326 1198 311 1194 294 c 0
 1190 277 1181 262 1167 251 c 128
 1153 240 1137 234 1120 234 c 0
 1103 234 1090 240 1080 251 c 128
 1072 262 1069 277 1073 294 c 0
1191 498 m 0
 1195 515 1204 530 1218 542 c 128
 1231 553 1247 559 1264 559 c 0
 1281 559 1295 553 1304 542 c 128
 1313 530 1316 515 1312 498 c 0
 1309 481 1300 466 1286 455 c 128
 1272 444 1256 438 1239 438 c 0
 1222 438 1208 444 1200 455 c 128
 1190 466 1188 481 1191 498 c 0
1229 739 m 0
 1232 756 1241 771 1255 782 c 128
 1269 794 1285 800 1302 800 c 0
 1319 800 1332 794 1342 782 c 128
 1350 771 1353 756 1350 739 c 0
 1346 722 1337 707 1323 696 c 128
 1309 685 1293 679 1276 679 c 0
 1259 679 1246 685 1236 696 c 128
 1228 707 1225 722 1229 739 c 0
1167 951 m 0
 1170 968 1179 983 1193 994 c 128
 1207 1006 1223 1012 1240 1012 c 0
 1257 1012 1270 1006 1280 994 c 128
 1288 983 1291 968 1288 951 c 0
 1284 934 1275 919 1261 908 c 128
 1247 897 1231 891 1214 891 c 0
 1197 891 1184 897 1174 908 c 128
 1166 919 1163 934 1167 951 c 0
1009 1094 m 0
 1013 1111 1022 1126 1036 1138 c 128
 1049 1149 1065 1155 1082 1155 c 0
 1099 1155 1113 1149 1122 1138 c 128
 1131 1126 1134 1111 1130 1094 c 0
 1127 1077 1118 1062 1104 1051 c 128
 1089 1040 1073 1034 1056 1034 c 0
 1039 1034 1026 1040 1017 1051 c 128
 1008 1062 1006 1077 1009 1094 c 0
194 739 m 0
 197 756 206 771 220 782 c 128
 234 794 250 800 267 800 c 0
 284 800 298 794 306 782 c 128
 316 771 318 756 315 739 c 0
 311 722 302 707 288 696 c 128
 274 685 258 679 241 679 c 0
 224 679 210 685 202 696 c 128
 192 707 190 722 194 739 c 0
EndSplineSet
EndChar
StartChar: uniF700
Encoding: 240 63232 242
OldEncoding: 63232
Width: 1100
Flags: HW
Fore
419 589 m 0
 388 589 360 574 334 543 c 0
 321 526 312 509 308 492 c 1
 307 485 l 2
 300 439 311 408 339 391 c 0
 349 385 361 382 375 382 c 1
 412 385 438 400 453 429 c 0
 460 444 467 464 473 490 c 1
 481 541 474 572 452 583 c 0
 444 587 433 589 419 589 c 0
874 529 m 2
 885 583 844 625 749 656 c 0
 628 695 460 731 246 762 c 1
 275 829 316 894 369 957 c 0
 419 1016 481 1063 554 1099 c 0
 622 1132 703 1149 798 1149 c 0
 875 1149 943 1134 1003 1103 c 0
 1052 1078 1111 1065 1179 1065 c 0
 1205 1065 1228 1067 1249 1072 c 1
 1177 917 l 1
 1160 913 1140 911 1118 912 c 0
 1056 912 1004 922 963 941 c 0
 960 942 958 943 956 944 c 0
 889 980 821 998 753 998 c 0
 744 998 734 998 724 997 c 0
 663 993 607 967 554 918 c 0
 538 903 525 887 514 872 c 1
 648 849 l 1
 789 815 890 780 950 744 c 0
 1027 698 1058 641 1044 574 c 1
 981 279 l 1
 957 168 902 87 816 36 c 0
 763 5 704 -10 639 -10 c 0
 452 -10 380 88 422 283 c 1
 429 317 l 1
 414 303 391 294 359 290 c 0
 347 288 l 1
 313 291 l 1
 280 296 252 312 231 339 c 0
 191 389 192 460 234 551 c 0
 254 594 289 631 338 661 c 0
 375 684 415 696 458 697 c 0
 462 697 462 697 467 697 c 0
 520 696 562 678 591 642 c 0
 626 599 633 527 612 428 c 1
 582 283 l 1
 563 194 593 150 673 150 c 0
 749 150 797 189 817 268 c 1
 819 271 820 275 821 279 c 1
 874 529 l 2
EndSplineSet
EndChar
StartChar: uniF701
Encoding: 241 63233 243
OldEncoding: 63233
Width: 0
Flags: HW
Fore
-206 1176 m 1
 -343 1207 -547 1233 -819 1255 c 0
 -948 1266 -1051 1271 -1130 1271 c 1
 -1095 1340 -1033 1407 -944 1472 c 0
 -911 1496 -878 1516 -847 1532 c 0
 -771 1571 -687 1590 -596 1590 c 0
 -576 1590 -556 1589 -536 1587 c 0
 -448 1577 -372 1542 -309 1481 c 1
 -302 1476 -296 1470 -291 1464 c 0
 -232 1399 -204 1303 -206 1176 c 1
-362 1308 m 1
 -361 1340 -378 1373 -414 1408 c 0
 -459 1451 -513 1474 -577 1479 c 1
 -634 1479 l 1
 -719 1474 -791 1446 -850 1396 c 1
 -877 1370 l 2
 -880 1367 -882 1365 -884 1362 c 1
 -796 1360 l 1
 -655 1353 -526 1339 -411 1318 c 0
 -391 1315 -375 1311 -362 1308 c 1
EndSplineSet
EndChar
StartChar: uniF702
Encoding: 242 63234 244
OldEncoding: 63234
Width: 0
Flags: HW
Fore
-244 1196 m 1
 -244 1179 -244 1179 -244 1164 c 1
 -381 1195 -586 1221 -858 1244 c 0
 -980 1254 -1079 1259 -1154 1259 c 0
 -1161 1259 -1161 1259 -1169 1259 c 1
 -1134 1328 -1071 1395 -982 1460 c 0
 -949 1484 -917 1504 -885 1520 c 0
 -809 1559 -726 1578 -635 1578 c 0
 -614 1578 -595 1577 -576 1575 c 0
 -487 1565 -411 1530 -347 1469 c 0
 -344 1466 -341 1464 -338 1461 c 1
 -293 1671 l 1
 -143 1671 l 1
 -244 1196 l 1
-413 1306 m 1
 -422 1337 -447 1368 -488 1397 c 0
 -527 1426 -571 1442 -620 1447 c 1
 -669 1448 l 1
 -736 1444 -798 1425 -855 1390 c 0
 -872 1380 -885 1370 -895 1360 c 1
 -797 1360 -675 1349 -530 1328 c 0
 -479 1321 -440 1313 -413 1306 c 1
EndSplineSet
EndChar
